<?xml version="1.0" standalone="no"?>
<!DOCTYPE svg PUBLIC "-//W3C//DTD SVG 1.1//EN" "http://www.w3.org/Graphics/SVG/1.1/DTD/svg11.dtd" >
<svg>
<metadata>
Created by FontForge 20090914 at Fri Aug 10 11:14:00 2018
 By www-data
Copyright (c) 2015 by Luciano Vergara. All rights reserved.
</metadata>
<defs>
<font id="NordikkaW00-Bold" horiz-adv-x="506" >
  <font-face 
    font-family="NordikkaW00-Bold"
    font-weight="700"
    font-stretch="normal"
    units-per-em="1000"
    panose-1="2 0 0 0 0 0 0 0 0 0"
    ascent="800"
    descent="-200"
    x-height="560"
    cap-height="700"
    bbox="-69 -244 1427 930.003"
    underline-thickness="50"
    underline-position="-125"
    unicode-range="U+0020-U+FB02"
  />
<missing-glyph horiz-adv-x="449" 
d="M143 615v-530h163v530h-163zM42 700h365v-700h-365v700z" />
    <glyph glyph-name=".notdef" horiz-adv-x="449" 
d="M143 615v-530h163v530h-163zM42 700h365v-700h-365v700z" />
    <glyph glyph-name="space" unicode=" " horiz-adv-x="210" 
 />
    <glyph glyph-name="exclam" unicode="!" horiz-adv-x="245" 
d="M61 522v178h124v-178l-11 -336h-103zM193 57c0 -23.333 -6.5 -40.333 -19.5 -51s-30.167 -16 -51.5 -16c-20.667 0 -37.167 5.33301 -49.5 16s-18.5 27.667 -18.5 51c0 21.333 6.16699 37.333 18.5 48s28.833 16 49.5 16c21.333 0 38.5 -5.33301 51.5 -16
s19.5 -26.667 19.5 -48z" />
    <glyph glyph-name="quotedbl" unicode="&#x22;" horiz-adv-x="306" 
d="M29 750h110l-15 -199h-83zM168 750h111l-14 -199h-83z" />
    <glyph glyph-name="numbersign" unicode="#" horiz-adv-x="580" 
d="M92 189h-83l22 99h81l23 124h-83l22 98h82l35 190h114l-37 -190h104l35 190h113l-35 -190h85l-22 -98h-84l-23 -124h86l-22 -99h-84l-35 -189h-114l36 189h-103l-36 -189h-113zM329 288l22 124h-103l-22 -124h103z" />
    <glyph glyph-name="dollar" unicode="$" horiz-adv-x="468" 
d="M303 220c0 14.667 -2.83594 26.5029 -8.50293 35.5029s-13.667 16.5 -24 22.5s-22.666 11.167 -36.999 15.5l-46.5 13.5c-19.333 5.33301 -37.666 12.166 -54.999 20.499s-32.666 19.333 -45.999 33s-23.833 30.167 -31.5 49.5s-11.5 43 -11.5 71
c0 46 12.833 82.833 38.5 110.5s65.834 43.5 120.501 47.5v160h82v-163c41.333 -5.33301 77 -15.666 107 -30.999v-93c-29.333 11.333 -55.833 19.5 -79.5 24.5s-48.834 7.5 -75.501 7.5c-45.333 0 -68 -20.667 -68 -62c0 -14 2.83301 -25.5 8.5 -34.5
s13.5 -16.833 23.5 -23.5s22 -12.167 36 -16.5l45 -13.5c19.333 -5.33301 37.833 -11.833 55.5 -19.5s33.167 -17.834 46.5 -30.501s24 -28.334 32 -47.001s12 -42 12 -70c0 -46 -12.167 -82.667 -36.5 -110s-59.833 -45 -106.5 -53v-167h-82v163
c-61.333 2.66699 -114.333 13.667 -159 33v99c26.667 -10.667 54.667 -19.334 84 -26.001s59.333 -10 90 -10c57.333 0 86 21.333 86 64z" />
    <glyph glyph-name="percent" unicode="%" horiz-adv-x="880" 
d="M45 568c0 49.333 14.167 85.5 42.5 108.5s66.5 34.5 114.5 34.5c47.333 0 85.333 -11.5 114 -34.5s43 -59.167 43 -108.5v-129c0 -26.667 -3.83301 -49.5 -11.5 -68.5s-18.334 -34.667 -32.001 -47s-30.167 -21.333 -49.5 -27s-40.666 -8.5 -63.999 -8.5
c-47.333 0 -85.333 11.833 -114 35.5s-43 62.167 -43 115.5v129zM157 440c0 -23.333 4.16699 -38.833 12.5 -46.5s19.166 -11.5 32.499 -11.5s23.833 3.83301 31.5 11.5s11.5 23.167 11.5 46.5v126c0 19.333 -3.83301 32.666 -11.5 39.999s-18.167 11 -31.5 11
s-24.166 -3.66699 -32.499 -11s-12.5 -20.666 -12.5 -39.999v-126zM521 270c0 49.333 14.5 85.5 43.5 108.5s67.5 34.5 115.5 34.5c46.667 0 84.167 -11.5 112.5 -34.5s42.5 -59.167 42.5 -108.5v-129c0 -53.333 -14.167 -91.833 -42.5 -115.5s-65.833 -35.5 -112.5 -35.5
c-48 0 -86.5 11.833 -115.5 35.5s-43.5 62.167 -43.5 115.5v129zM635 142c0 -23.333 4 -38.833 12 -46.5s18.667 -11.5 32 -11.5c12.667 0 23.167 3.83301 31.5 11.5s12.5 23.167 12.5 46.5v126c0 19.333 -4.16699 32.666 -12.5 39.999s-18.833 11 -31.5 11
c-13.333 0 -24 -3.66699 -32 -11s-12 -20.666 -12 -39.999v-126zM587 700h126l-423 -700h-128z" />
    <glyph glyph-name="ampersand" unicode="&#x26;" horiz-adv-x="593" 
d="M37 179c0 20 3.50391 39.333 10.5039 58s16.167 36.167 27.5 52.5s24 31.333 38 45s27.667 25.834 41 36.501c-19.333 23.333 -36.833 50 -52.5 80s-23.5 60.333 -23.5 91c0 24 3.83301 46.333 11.5 67s19.167 38.5 34.5 53.5s34.166 26.833 56.499 35.5
s48.166 13 77.499 13c33.333 0 61.5 -4 84.5 -12s41.833 -19.167 56.5 -33.5s25.167 -31.333 31.5 -51s9.5 -41.167 9.5 -64.5c0 -20.667 -3.33301 -39.5 -10 -56.5s-15.834 -32.833 -27.501 -47.5s-25 -28.834 -40 -42.501s-30.833 -27.167 -47.5 -40.5l96 -139
c10.667 17.333 18.167 36.5 22.5 57.5s7.16602 40.167 8.49902 57.5h107c-2.66699 -35.333 -9.5 -70.333 -20.5 -105s-25.167 -67 -42.5 -97l107 -137h-142l-40 53c-18.667 -20 -42.5 -35.667 -71.5 -47s-60.5 -17 -94.5 -17c-31.333 0 -59.833 3.5 -85.5 10.5
s-47.5 17.833 -65.5 32.5s-32 33.167 -42 55.5s-15 48.833 -15 79.5v12zM223.004 293c-18 -19.333 -32.167 -38.833 -42.5 -58.5s-15.5 -40.167 -15.5 -61.5v-4c0 -28.667 8.16699 -48.667 24.5 -60s38.166 -17 65.499 -17c36.667 0 65.334 13.333 86.001 40zM202.004 544
c0 -19.333 4.50098 -37.499 13.501 -54.499s19.833 -33.167 32.5 -48.5c17.333 16 33.166 32.167 47.499 48.5s21.5 34.833 21.5 55.5c0 19.333 -4.5 35.166 -13.5 47.499s-24.167 18.5 -45.5 18.5c-37.333 0 -56 -22.333 -56 -67z" />
    <glyph glyph-name="quotesingle" unicode="'" horiz-adv-x="165" 
d="M29 750h110l-15 -199h-83z" />
    <glyph glyph-name="parenleft" unicode="(" horiz-adv-x="288" 
d="M177 126c0 -21.333 1.33301 -40.8311 4 -58.498s7.33398 -32.834 14.001 -45.501s15.667 -22.334 27 -29.001s25.666 -10 42.999 -10v-101c-40.667 0 -74.5 5.16699 -101.5 15.5s-48.667 25.5 -65 45.5s-27.833 44.333 -34.5 73s-10 61 -10 97v415
c0 36 3.33301 68.333 10 97s18.167 53 34.5 73s38 35.167 65 45.5s60.833 15.5 101.5 15.5v-101c-17.333 0 -31.666 -3.5 -42.999 -10.5s-20.333 -16.667 -27 -29s-11.334 -27.333 -14.001 -45s-4 -37.167 -4 -58.5v-389z" />
    <glyph glyph-name="parenright" unicode=")" horiz-adv-x="288" 
d="M24 -17c34 0 57.167 13 69.5 39s18.5 60.667 18.5 104v389c0 43.333 -6.16699 78 -18.5 104s-35.5 39 -69.5 39v101c40.667 0 74.5 -5.16699 101.5 -15.5s48.667 -25.5 65 -45.5s27.833 -44.333 34.5 -73s10 -61 10 -97v-415c0 -36 -3.33301 -68.333 -10 -97
s-18.167 -53 -34.5 -73s-38 -35.167 -65 -45.5s-60.833 -15.5 -101.5 -15.5v101v0z" />
    <glyph glyph-name="asterisk" unicode="*" horiz-adv-x="424" 
d="M146 517l-113 35l32 84l107 -42l-5 127h91l-4 -126l104 41l34 -84l-115 -35l77 -107l-80 -48l-63 103l-60 -103l-82 50z" />
    <glyph glyph-name="plus" unicode="+" horiz-adv-x="521" 
d="M208 258h-170v90h170v162h104v-162h171v-90h-171v-162h-104v162z" />
    <glyph glyph-name="comma" unicode="," horiz-adv-x="211" 
d="M37 -92c10 11.333 18.833 25.499 26.5 42.499s12.167 32.5 13.5 46.5c-12.667 4 -23.167 11.5 -31.5 22.5s-12.5 24.167 -12.5 39.5c0 22.667 6.83301 40 20.5 52s31.167 18 52.5 18c22 0 39.667 -5.83301 53 -17.5s20 -29.167 20 -52.5c0 -12.667 -1.83301 -26 -5.5 -40
s-8.5 -27.667 -14.5 -41s-12.833 -26.166 -20.5 -38.499s-15.167 -22.833 -22.5 -31.5h-79z" />
    <glyph glyph-name="hyphen" unicode="-" horiz-adv-x="369" 
d="M328 346v-90h-286v90h286z" />
    <glyph glyph-name="period" unicode="." horiz-adv-x="210" 
d="M179 57c0 -23.333 -6.66699 -40.833 -20 -52.5s-31 -17.5 -53 -17.5s-39.833 5.83301 -53.5 17.5s-20.5 29.167 -20.5 52.5c0 24.667 6.83301 42.834 20.5 54.501s31.5 17.5 53.5 17.5s39.667 -5.83301 53 -17.5s20 -29.834 20 -54.501z" />
    <glyph glyph-name="slash" unicode="/" horiz-adv-x="465" 
d="M335 750h124l-330 -860h-121z" />
    <glyph glyph-name="zero" unicode="0" horiz-adv-x="532" 
d="M47 508c0 34.667 5.5 64.667 16.5 90s26.167 46.333 45.5 63s42.333 29.167 69 37.5s56 12.5 88 12.5c32.667 0 62.5 -4.16699 89.5 -12.5s50.167 -20.833 69.5 -37.5s34.333 -37.667 45 -63s16 -55.333 16 -90v-316c0 -34.667 -5.33301 -64.667 -16 -90
s-25.667 -46.333 -45 -63s-42.5 -29.167 -69.5 -37.5s-56.833 -12.5 -89.5 -12.5c-32 0 -61.333 4.16699 -88 12.5s-49.667 20.833 -69 37.5s-34.5 37.667 -45.5 63s-16.5 55.333 -16.5 90v316zM178 206c0 -42 8 -70.5 24 -85.5s37.667 -22.5 65 -22.5s48.833 7.5 64.5 22.5
s23.5 43.5 23.5 85.5v288c0 42 -7.83301 70.5 -23.5 85.5s-37.167 22.5 -64.5 22.5s-49 -7.5 -65 -22.5s-24 -43.5 -24 -85.5v-288z" />
    <glyph glyph-name="one" unicode="1" horiz-adv-x="331" 
d="M283 700v-700h-131v568l-119 -49v115l164 66h86z" />
    <glyph glyph-name="two" unicode="2" horiz-adv-x="524" 
d="M55 674c25.333 12 53.835 21.668 85.502 29.001s69.167 11 112.5 11c74 0 129.833 -17 167.5 -51s56.5 -86.667 56.5 -158c0 -32.667 -6 -65.5 -18 -98.5s-28.5 -66.333 -49.5 -100s-46 -67.167 -75 -100.5s-60.833 -66.333 -95.5 -99h249v-107h-444v97
c98.667 78 173.667 152.833 225 224.5s77 134.5 77 188.5c0 35.333 -9.83301 59.833 -29.5 73.5s-45.834 20.5 -78.501 20.5c-26.667 0 -56.334 -3.33301 -89.001 -10s-64 -15.334 -94 -26.001v106z" />
    <glyph glyph-name="three" unicode="3" horiz-adv-x="471" 
d="M260 594l-224.999 0.00195312v106h402v-89l-168 -194c24.667 0.666992 48.334 -2 71.001 -8s42.667 -16.167 60 -30.5s31.166 -33.833 41.499 -58.5s15.5 -55 15.5 -91v-27c0 -68.667 -21.167 -121.334 -63.5 -158.001s-101.166 -55 -176.499 -55
c-42.667 0 -79 3.66699 -109 11s-57.667 16.666 -83 27.999v106c31.333 -10.667 63.166 -19.167 95.499 -25.5s62.5 -9.5 90.5 -9.5c33.333 0 61 9 83 27s33 42.667 33 74v15c0 19.333 -2.83301 35.333 -8.5 48s-13.334 22.667 -23.001 30s-21.167 12.5 -34.5 15.5
s-28 4.5 -44 4.5c-28 0 -52 -2 -72 -6l-60 82z" />
    <glyph glyph-name="four" unicode="4" horiz-adv-x="531" 
d="M479 0h-131v170h-298l-3 94l131 436h135l-126 -423h161v232l131 20v-529z" />
    <glyph glyph-name="five" unicode="5" horiz-adv-x="507" 
d="M338 227c0 20 -1.99805 36.668 -5.99805 50.001s-9.5 23.833 -16.5 31.5s-15.833 13 -26.5 16s-22.334 4.5 -35.001 4.5c-24.667 0 -47 -2.33301 -67 -7s-38 -10.667 -54 -18l-77 52v344h372v-106h-241v-178c12 5.33301 27.333 9.5 46 12.5s37 4.5 55 4.5
c27.333 0 52.166 -3.83301 74.499 -11.5s41.333 -19.5 57 -35.5s27.667 -36.5 36 -61.5s12.5 -54.833 12.5 -89.5v-39c0 -66.667 -18.833 -117.834 -56.5 -153.501s-93.834 -53.5 -168.501 -53.5c-42 0 -78.667 3.66699 -110 11s-59.666 17 -84.999 29v106
c32 -10.667 64.167 -19.334 96.5 -26.001s62.5 -10 90.5 -10c32 0 57.167 7.33301 75.5 22s27.5 38.334 27.5 71.001v35z" />
    <glyph glyph-name="six" unicode="6" horiz-adv-x="536" 
d="M268 -11c-32 0 -61.3281 4.16504 -87.9951 12.498s-49.834 20.833 -69.501 37.5s-35 37.834 -46 63.501s-16.5 56.167 -16.5 91.5v307c0 68.667 19.333 120.834 58 156.501s92.667 53.5 162 53.5c66.667 0 126 -12.667 178 -38v-100c-56 20.667 -111.667 31 -167 31
c-34 0 -59.667 -8.66699 -77 -26s-26 -47 -26 -89v-89c17.333 9.33301 37.666 16.5 60.999 21.5s45.666 7.5 66.999 7.5c26.667 0 51.167 -3.66699 73.5 -11s41.666 -19 57.999 -35s29.166 -36.5 38.499 -61.5s14 -55.5 14 -91.5v-30c0 -34.667 -5.33301 -65.167 -16 -91.5
s-25.667 -48.333 -45 -66s-42.5 -31 -69.5 -40s-56.833 -13.5 -89.5 -13.5zM176.005 207.998c0 -41.333 8.50098 -70.333 25.501 -87s39.167 -25 66.5 -25c28 0 50.833 9.16699 68.5 27.5s26.5 48.5 26.5 90.5c0 38.667 -7 66.167 -21 82.5s-35.667 24.5 -65 24.5
c-21.333 0 -40.333 -2.5 -57 -7.5s-31.334 -11.833 -44.001 -20.5v-85z" />
    <glyph glyph-name="seven" unicode="7" horiz-adv-x="447" 
d="M296 594h-274v106h420v-71l-233 -629h-134z" />
    <glyph glyph-name="eight" unicode="8" horiz-adv-x="537" 
d="M355 514c0 30 -6.66797 52.833 -20.001 68.5s-35.333 23.5 -66 23.5c-32 0 -54.5 -7.83301 -67.5 -23.5s-19.5 -38.5 -19.5 -68.5c0 -34 6.33301 -60 19 -78s31.334 -27 56.001 -27h20c25.333 0 44.833 9 58.5 27s20.167 44 19.5 78zM40.999 224
c0 34 7.49805 63.835 22.498 89.502s33.167 44.5 54.5 56.5c-19.333 18 -34.333 41 -45 69s-16 55.667 -16 83c0 59.333 17 105.666 51 138.999s87.667 50 161 50s127 -16.667 161 -50s51 -79.666 51 -138.999c0 -26.667 -5.16699 -53.834 -15.5 -81.501
s-25.833 -50.834 -46.5 -69.501c22.667 -14 41.334 -33.5 56.001 -58.5s22 -54.5 22 -88.5v-34c0 -61.333 -18.5 -110.166 -55.5 -146.499s-94.5 -54.5 -172.5 -54.5c-79.333 0 -137.166 18.167 -173.499 54.5s-54.5 85.166 -54.5 146.499v34zM255.997 320.002
c-24.667 0 -44.833 -9.16699 -60.5 -27.5s-23.5 -43.833 -23.5 -76.5v-24c0 -32 7.66699 -56 23 -72s40 -24 74 -24c64.667 0 97 32 97 96v24c0 32.667 -8 58.167 -24 76.5s-36 27.5 -60 27.5h-26z" />
    <glyph glyph-name="nine" unicode="9" horiz-adv-x="533" 
d="M266 604c-28 0 -50.167 -9.16602 -66.5 -27.499s-24.5 -50.5 -24.5 -96.5c0 -38.667 6.66699 -67.334 20 -86.001s35 -28 65 -28c19.333 0 37.333 1.66699 54 5s32 9 46 17v104c0 42.667 -8.66699 72 -26 88s-40 24 -68 24zM360 282.001
c-15.333 -9.33301 -33.167 -15.8311 -53.5 -19.498s-41.166 -5.5 -62.499 -5.5c-25.333 0 -49.833 3.66699 -73.5 11s-44.5 18.833 -62.5 34.5s-32.5 36 -43.5 61s-16.5 55.5 -16.5 91.5v45c0 36.667 5.33301 68.167 16 94.5s25.5 48.166 44.5 65.499
s41.833 30.166 68.5 38.499s56.334 12.5 89.001 12.5s62.667 -3.66699 90 -11s50.666 -19.166 69.999 -35.499s34.333 -37.333 45 -63s16 -56.5 16 -92.5v-308c0 -68.667 -20.833 -121.167 -62.5 -157.5s-97.834 -54.5 -168.501 -54.5c-68 0 -128 12.667 -180 38v100
c28 -10.667 56 -18.334 84 -23.001s56.333 -7 85 -7c35.333 0 63.333 9 84 27s31 48 31 90v68z" />
    <glyph glyph-name="colon" unicode=":" horiz-adv-x="213" 
d="M180 60c0 -23.333 -6.5 -40.833 -19.5 -52.5s-30.833 -17.5 -53.5 -17.5c-22 0 -39.667 5.83301 -53 17.5s-20 29.167 -20 52.5c0 24.667 6.66699 42.667 20 54s31 17 53 17c22.667 0 40.5 -5.66699 53.5 -17s19.5 -29.333 19.5 -54zM180 499
c0 -23.333 -6.5 -40.833 -19.5 -52.5s-30.833 -17.5 -53.5 -17.5c-22 0 -39.667 5.83301 -53 17.5s-20 29.167 -20 52.5c0 24.667 6.66699 42.667 20 54s31 17 53 17c22.667 0 40.5 -5.66699 53.5 -17s19.5 -29.333 19.5 -54z" />
    <glyph glyph-name="semicolon" unicode=";" horiz-adv-x="215" 
d="M40 -92c10 11.333 18.833 25.499 26.5 42.499s12.167 32.5 13.5 46.5c-12.667 4 -23.167 11.5 -31.5 22.5s-12.5 24.167 -12.5 39.5c0 22.667 6.83301 40 20.5 52s31.167 18 52.5 18c22 0 39.667 -5.83301 53 -17.5s20 -29.167 20 -52.5c0 -12.667 -1.83301 -26 -5.5 -40
s-8.5 -27.667 -14.5 -41s-12.833 -26.166 -20.5 -38.499s-15.167 -22.833 -22.5 -31.5h-79zM183 496.999c0 -23.333 -6.66699 -40.833 -20 -52.5s-31 -17.5 -53 -17.5s-39.833 5.83301 -53.5 17.5s-20.5 29.167 -20.5 52.5c0 24.667 6.83301 42.834 20.5 54.501
s31.5 17.5 53.5 17.5s39.667 -5.83301 53 -17.5s20 -29.834 20 -54.501z" />
    <glyph glyph-name="less" unicode="&#x3c;" horiz-adv-x="387" 
d="M155 329l190 -168l-79 -75l-224 204v78l224 204l79 -74z" />
    <glyph glyph-name="equal" unicode="=" horiz-adv-x="520" 
d="M42 227h437v-91h-437v91zM42 443h437v-90h-437v90z" />
    <glyph glyph-name="greater" unicode="&#x3e;" horiz-adv-x="387" 
d="M232 329l-190 169l79 74l224 -204v-78l-224 -204l-79 75z" />
    <glyph glyph-name="question" unicode="?" horiz-adv-x="474" 
d="M220 609c-27.333 0 -54.168 -2.83398 -80.501 -8.50098s-50.166 -12.167 -71.499 -19.5v102c24 9.33301 51.167 16.833 81.5 22.5s63.166 8.5 98.499 8.5c30.667 0 57.5 -4.33301 80.5 -13s42.333 -20.5 58 -35.5s27.334 -33 35.001 -54s11.5 -43.5 11.5 -67.5v-18
c0 -21.333 -2.16699 -40.5 -6.5 -57.5s-10.5 -32.833 -18.5 -47.5s-17.333 -28.667 -28 -42s-22.334 -26.333 -35.001 -39c-21.333 -24 -36.833 -45.333 -46.5 -64s-14.5 -41 -14.5 -67v-33h-126v37c0 26 1.83301 47.833 5.5 65.5s9 33.5 16 47.5s15.833 26.833 26.5 38.5
l36 38.5c17.333 18.667 32 37.834 44 57.501s18 43.5 18 71.5v7c0 20.667 -6.66699 37.5 -20 50.5s-34.666 19.5 -63.999 19.5zM295.998 52.999c0 -21.333 -7.16699 -37.666 -21.5 -48.999s-31.833 -17 -52.5 -17c-21.333 0 -39.5 5.66699 -54.5 17
s-22.5 27.666 -22.5 48.999c0 22.667 7.5 39.667 22.5 51s33.167 17 54.5 17c20.667 0 38.167 -5.66699 52.5 -17s21.5 -28.333 21.5 -51z" />
    <glyph glyph-name="at" unicode="@" horiz-adv-x="675" 
d="M271 294c-3.33301 -25.333 -2 -45 4 -59s18 -21 36 -21c15.333 0 29.833 4.33301 43.5 13s24.167 19 31.5 31l27 224h-64c-37.333 0 -59 -28.333 -65 -85zM79 497c4.66699 34 16.333 64.1689 35 90.502s42 48.5 70 66.5s59 31.667 93 41s68.667 14 104 14
s69 -5.16699 101 -15.5s59.833 -25 83.5 -44s41.667 -41.833 54 -68.5s16.5 -56.667 12.5 -90l-26 -216c-4.66699 -38 -17.334 -68.333 -38.001 -91s-49 -34 -85 -34c-18 0 -34 4 -48 12s-24.333 19.667 -31 35c-14 -14.667 -29.833 -26.167 -47.5 -34.5
s-35.167 -12.5 -52.5 -12.5c-42 0 -72.167 12 -90.5 36s-24.5 59 -18.5 105l12 117c5.33301 44.667 19.833 78.5 43.5 101.5s53.834 34.5 90.501 34.5h158l-33 -276c-2 -19.333 -1.33301 -33 2 -41s10 -12 20 -12c22 0 35.667 20 41 60l25 212
c3.33301 26.667 0.666016 49.667 -8.00098 69s-21.5 35.5 -38.5 48.5s-37.167 22.667 -60.5 29s-47.333 9.5 -72 9.5s-49.334 -3.16699 -74.001 -9.5s-47.334 -15.833 -68.001 -28.5s-38 -28.834 -52 -48.501s-22.333 -42.5 -25 -68.5l-34 -280
c-3.33301 -27.333 -0.5 -50.5 8.5 -69.5s22 -34.833 39 -47.5s36.833 -21.834 59.5 -27.501s46 -8.5 70 -8.5c22.667 0 46.834 2 72.501 6s49.167 9.66699 70.5 17v-67c-45.333 -15.333 -94.666 -23 -147.999 -23c-36 0 -70.167 5 -102.5 15s-60.166 24.333 -83.499 43
s-41 41.5 -53 68.5s-15.667 57.5 -11 91.5z" />
    <glyph glyph-name="A" unicode="A" horiz-adv-x="559" 
d="M424 0l-41 146h-208l-41 -146h-134l222 700h115l221 -700h-134zM204 249l150 -0.000976562l-50 180c-4 12.667 -7.5 25.667 -10.5 39s-5.5 25.833 -7.5 37.5l-5 30c-1.33301 8.33301 -2 13.833 -2 16.5c-0.666992 -3.33301 -1.66699 -9.16602 -3 -17.499l-5 -30
c-2 -11.667 -4.33301 -24.167 -7 -37.5s-5.66699 -26 -9 -38z" />
    <glyph glyph-name="B" unicode="B" horiz-adv-x="546" 
d="M52 700l236.002 -0.000976562c68.667 0 120.667 -13.5 156 -40.5s53 -71.833 53 -134.5v-40c0 -10 -1.33301 -20.667 -4 -32s-6.66699 -22.666 -12 -33.999s-12 -22 -20 -32s-17.333 -18.333 -28 -25c21.333 -10 39.5 -27.5 54.5 -52.5s22.167 -53.5 21.5 -85.5v-53
c-0.666992 -52 -16.834 -93.5 -48.501 -124.5s-81.834 -46.5 -150.501 -46.5h-258v700zM310.002 404.999c17.333 0 30.833 7 40.5 21s14.5 36 14.5 66v13c0 34 -6 56.833 -18 68.5s-31 17.5 -57 17.5h-107v-186h127zM309.002 108.999c25.333 0 43.5 7.5 54.5 22.5
s16.833 34.5 17.5 58.5l-1 27c0 26 -4.83301 46.833 -14.5 62.5s-25.167 23.5 -46.5 23.5h-136v-194h126z" />
    <glyph glyph-name="C" unicode="C" horiz-adv-x="472" 
d="M440 22c-53.333 -22 -110.666 -33 -171.999 -33c-69.333 0 -123.333 16.833 -162 50.5s-58 85.5 -58 155.5v310c0 70 19.333 121.833 58 155.5s92.667 50.5 162 50.5c61.333 0 118.666 -11 171.999 -33v-103c-28.667 9.33301 -55.334 16 -80.001 20s-49.667 6 -75 6
c-30.667 0 -56.167 -8.16699 -76.5 -24.5s-30.5 -45.5 -30.5 -87.5v-278c0 -42 10.167 -71.167 30.5 -87.5s45.833 -24.5 76.5 -24.5c25.333 0 50.333 2 75 6s51.334 10.667 80.001 20v-103z" />
    <glyph glyph-name="D" unicode="D" horiz-adv-x="557" 
d="M52 700h241c67.333 0 120.166 -17.833 158.499 -53.5s57.5 -88.167 57.5 -157.5v-278c0 -69.333 -19.167 -121.833 -57.5 -157.5s-91.166 -53.5 -158.499 -53.5h-241v700zM293 110c28 0 49.667 9 65 27s23 48 23 90v246c0 42 -7.66699 71.833 -23 89.5s-37 26.5 -65 26.5
h-110v-479h110z" />
    <glyph glyph-name="E" unicode="E" horiz-adv-x="480" 
d="M52 700h390v-111h-259v-179h216v-109h-216v-191h266v-110h-397v700z" />
    <glyph glyph-name="F" unicode="F" horiz-adv-x="469" 
d="M52 700h392v-111h-261v-203h216v-110h-216v-276h-131v700z" />
    <glyph glyph-name="G" unicode="G" horiz-adv-x="510" 
d="M440 575c-28.667 9.33301 -55.3311 16.002 -79.998 20.002s-49.667 6 -75 6c-30.667 0 -56.167 -8.16699 -76.5 -24.5s-30.5 -45.5 -30.5 -87.5v-278c0 -41.333 8.5 -70.333 25.5 -87s39.833 -25 68.5 -25c10.667 -0.666992 20.667 -0.333984 30 0.999023
s18.666 3.66602 27.999 6.99902v180h-96v97h226v-360c-28.667 -11.333 -58.667 -20 -90 -26s-66 -9 -104 -9c-70 0 -123.833 17 -161.5 51s-56.5 86 -56.5 156v309c0 70 19.333 121.833 58 155.5s92.667 50.5 162 50.5c61.333 0 118.666 -11 171.999 -33v-103z" />
    <glyph glyph-name="H" unicode="H" horiz-adv-x="561" 
d="M52 700h130v-283h198v283h130v-700h-130v305h-198v-305h-130v700z" />
    <glyph glyph-name="I" unicode="I" horiz-adv-x="232" 
d="M52 700h131v-700h-131v700z" />
    <glyph glyph-name="J" unicode="J" horiz-adv-x="261" 
d="M-10 -66c33.333 0 56.833 13.167 70.5 39.5s20.5 59.5 20.5 99.5v627h130v-642c0 -69.333 -18.167 -123 -54.5 -161s-91.833 -57 -166.5 -57v94z" />
    <glyph glyph-name="K" unicode="K" horiz-adv-x="551" 
d="M183 344v-344h-131v700h131v-337l214 337h145l-224 -341l235 -359h-151z" />
    <glyph glyph-name="L" unicode="L" horiz-adv-x="452" 
d="M52 700h131v-590h256v-110h-387v700z" />
    <glyph glyph-name="M" unicode="M" horiz-adv-x="814" 
d="M182 434v-434h-130v700h112l245 -396l242 396h112v-700h-129v439l-180 -290h-93z" />
    <glyph glyph-name="N" unicode="N" horiz-adv-x="572" 
d="M52 700h112l227 -407v407h129v-700h-112l-226 403v-403h-130v700z" />
    <glyph glyph-name="O" unicode="O" horiz-adv-x="571" 
d="M48 505c0 34.667 6.33301 65 19 91s29.667 47.5 51 64.5s46.5 29.667 75.5 38s59.833 12.5 92.5 12.5s63.334 -4.16699 92.001 -12.5s53.667 -21 75 -38s38.166 -38.5 50.499 -64.5s18.5 -56.333 18.5 -91v-309c0 -35.333 -6.16699 -65.833 -18.5 -91.5
s-29.166 -47.167 -50.499 -64.5s-46.333 -30.166 -75 -38.499s-59.334 -12.5 -92.001 -12.5s-63.5 4.16699 -92.5 12.5s-54.167 21.166 -75.5 38.499s-38.333 38.833 -51 64.5s-19 56.167 -19 91.5v309zM178 211c0 -21.333 2.83301 -39.166 8.5 -53.499
s13.5 -25.833 23.5 -34.5s21.5 -14.834 34.5 -18.501s26.833 -5.5 41.5 -5.5s28.5 1.83301 41.5 5.5s24.333 9.83398 34 18.501s17.334 20.167 23.001 34.5s8.5 32.166 8.5 53.499v278c0 21.333 -2.83301 39.166 -8.5 53.499s-13.334 25.833 -23.001 34.5
s-21 14.834 -34 18.501s-26.833 5.5 -41.5 5.5s-28.5 -1.83301 -41.5 -5.5s-24.5 -9.83398 -34.5 -18.501s-17.833 -20.167 -23.5 -34.5s-8.5 -32.166 -8.5 -53.499v-278z" />
    <glyph glyph-name="P" unicode="P" horiz-adv-x="548" 
d="M52 700h241c67.333 0 120.166 -18 158.499 -54s57.5 -88.667 57.5 -158v-64c0 -69.333 -19.167 -122 -57.5 -158s-91.166 -54 -158.499 -54h-110v-212h-131v700zM293 321c28 0 49.667 9.33203 65 27.999s23 49.334 23 92.001v30c0 42 -7.66699 72.167 -23 90.5
s-37 27.5 -65 27.5h-110v-268h110z" />
    <glyph glyph-name="Q" unicode="Q" horiz-adv-x="571" 
d="M48 505c0 34.667 6.33301 65 19 91s29.667 47.5 51 64.5s46.5 29.667 75.5 38s59.833 12.5 92.5 12.5s63.334 -4.16699 92.001 -12.5s53.667 -21 75 -38s38.166 -38.5 50.499 -64.5s18.5 -56.333 18.5 -91v-309c0 -54 -14.167 -97.333 -42.5 -130
s-64.833 -54.667 -109.5 -66l94 -129h-138l-85 121c-27.333 3.33301 -52.833 10 -76.5 20s-44.167 23.5 -61.5 40.5s-30.833 37.333 -40.5 61s-14.5 51.167 -14.5 82.5v309zM178 211c0 -21.333 2.83301 -39.166 8.5 -53.499s13.5 -25.833 23.5 -34.5
s21.5 -14.834 34.5 -18.501s26.833 -5.5 41.5 -5.5s28.5 1.83301 41.5 5.5s24.333 9.83398 34 18.501s17.334 20.167 23.001 34.5s8.5 32.166 8.5 53.499v278c0 21.333 -2.83301 39.166 -8.5 53.499s-13.334 25.833 -23.001 34.5s-21 14.834 -34 18.501
s-26.833 5.5 -41.5 5.5s-28.5 -1.83301 -41.5 -5.5s-24.5 -9.83398 -34.5 -18.501s-17.833 -20.167 -23.5 -34.5s-8.5 -32.166 -8.5 -53.499v-278z" />
    <glyph glyph-name="R" unicode="R" horiz-adv-x="548" 
d="M258 261l-75.001 0.00195312v-261h-131v700h241c33.333 0 63.333 -4.5 90 -13.5s49.334 -21.833 68.001 -38.5s33 -36.834 43 -60.501s15 -49.834 15 -78.501v-59c0 -42.667 -10.333 -78.667 -31 -108s-49.667 -51 -87 -65l133 -277h-147zM181.999 370.002h111
c28 0 49.5 9.16699 64.5 27.5s22.5 42.5 22.5 72.5v22c0 31.333 -7.5 55.333 -22.5 72s-36.5 25 -64.5 25h-111v-219z" />
    <glyph glyph-name="S" unicode="S" horiz-adv-x="536" 
d="M505 203c0 -72.667 -21.332 -126.497 -63.999 -161.497s-102.334 -52.5 -179.001 -52.5c-41.333 0 -79 3.33301 -113 10s-66.667 16.334 -98 29.001v114c30.667 -12.667 64 -23 100 -31s71 -12 105 -12c35.333 0 63.5 7.83301 84.5 23.5s31.5 39.167 31.5 70.5
c0 34 -7.5 58.833 -22.5 74.5s-37.5 25.5 -67.5 29.5c-28 3.33301 -55.5 8.66602 -82.5 15.999s-50.833 18.666 -71.5 33.999s-37.334 35.5 -50.001 60.5s-19 56.5 -19 94.5c0 65.333 17.667 116.5 53 153.5s90 55.5 164 55.5c38 0 73.667 -3.33301 107 -10
s64.333 -16 93 -28v-108c-30 12 -61.667 21 -95 27s-65.333 9 -96 9c-32 0 -55.833 -8.16699 -71.5 -24.5s-23.5 -37.5 -23.5 -63.5c0 -18 2.83301 -32.833 8.5 -44.5s13.5 -21.334 23.5 -29.001s21.5 -13.334 34.5 -17.001s27.167 -6.5 42.5 -8.5
c28.667 -3.33301 55.5 -9 80.5 -17s46.833 -20 65.5 -36s33.334 -36.667 44.001 -62s16 -57.333 16 -96z" />
    <glyph glyph-name="T" unicode="T" horiz-adv-x="473" 
d="M172 590h-162v110h454v-110h-162v-590h-130v590z" />
    <glyph glyph-name="U" unicode="U" horiz-adv-x="561" 
d="M179 201c0 -20.667 2.33496 -37.4971 7.00195 -50.4971s11.167 -23.333 19.5 -31s18.5 -12.834 30.5 -15.501s25.333 -4 40 -4c21.333 0 41.666 5.66699 60.999 17s33.666 24.666 42.999 39.999v543h130v-700h-77l-33 60c-8 -10 -18 -19.167 -30 -27.5
s-25.333 -15.833 -40 -22.5s-30.167 -11.834 -46.5 -15.501s-32.5 -5.5 -48.5 -5.5c-64.667 0 -112 16.167 -142 48.5s-45 83.5 -45 153.5v509h131v-499v0z" />
    <glyph glyph-name="V" unicode="V" horiz-adv-x="548" 
d="M135 700l115 -428c3.33301 -12.667 6.33301 -25.667 9 -39s5 -25.833 7 -37.5s3.66699 -21.834 5 -30.501s2.33301 -14.667 3 -18c0 3.33301 0.666992 9.33301 2 18s3 18.834 5 30.501s4.5 24.167 7.5 37.5s6.16699 26 9.5 38l116 429h133l-216 -700h-115l-216 700h135z
" />
    <glyph glyph-name="W" unicode="W" horiz-adv-x="862" 
d="M862 700l-192 -700.001h-131l-90 399c-4.66699 18.667 -8.5 36.167 -11.5 52.5s-5.16699 33.166 -6.5 50.499c-1.33301 -17.333 -3.5 -34.166 -6.5 -50.499s-6.5 -33.833 -10.5 -52.5l-91 -399h-130l-193 700h135l95 -428c2 -12.667 4.33301 -26.5 7 -41.5
s5 -29.167 7 -42.5l5.5 -35.5c1.66699 -10.333 2.5 -17.166 2.5 -20.499c0.666992 4 1.66699 11.167 3 21.5s3.16602 22.166 5.49902 35.499l7.5 42c2.66699 14.667 5.33398 28 8.00098 40l89 429h133l89 -428c2.66699 -13.333 5.33398 -27.666 8.00098 -42.999l7.5 -44
c2.33301 -14 4.16602 -26 5.49902 -36s2 -16 2 -18c0.666992 2 1.66699 8 3 18s3.16602 22 5.49902 36l7.5 44c2.66699 15.333 5.33398 29.333 8.00098 42l95 429h133z" />
    <glyph glyph-name="X" unicode="X" horiz-adv-x="543" 
d="M537 700l-187 -338l193 -362h-146l-128 265l-127 -265h-141l193 360l-186 340h146l120 -241l121 241h142z" />
    <glyph glyph-name="Y" unicode="Y" horiz-adv-x="608" 
d="M148 700l116.001 -227.001c13.333 -27.333 23.333 -49.666 30 -66.999l12 -31c1.33301 3.33301 5.16602 13.5 11.499 30.5s16.5 39.5 30.5 67.5l115 227h144l-238 -429v-271h-130v269l-239 431h148z" />
    <glyph glyph-name="Z" unicode="Z" 
d="M26 97l290 493h-280v110h432v-101l-288 -489h301v-110h-455v97z" />
    <glyph glyph-name="bracketleft" unicode="[" horiz-adv-x="263" 
d="M54 750h190v-102h-77v-656h77v-102h-190v860z" />
    <glyph glyph-name="backslash" unicode="\" horiz-adv-x="466" 
d="M131 750l328 -860h-121l-330 860h123z" />
    <glyph glyph-name="bracketright" unicode="]" horiz-adv-x="263" 
d="M19 -8h78v656h-78v102h191v-860h-191v102z" />
    <glyph glyph-name="underscore" unicode="_" horiz-adv-x="458" 
d="M8 -48h443v-75h-443v75z" />
    <glyph glyph-name="grave" unicode="`" horiz-adv-x="291" 
d="M143 790l78 -147l-58 -36l-108 129z" />
    <glyph glyph-name="a" unicode="a" horiz-adv-x="507" 
d="M330 407c-7.33301 16 -19.166 30 -35.499 42s-34.166 18 -53.499 18c-25.333 0 -42.666 -7.16699 -51.999 -21.5s-14 -38.833 -14 -73.5v-184c0 -34.667 4.66699 -59.167 14 -73.5s26.666 -21.5 51.999 -21.5c19.333 0 37.166 6 53.499 18s28.166 26 35.499 42v254z
M454 560v-559.998h-76l-32 56c-14.667 -18.667 -33.334 -34.334 -56.001 -47.001s-49 -19 -79 -19c-54 0 -94.167 16.333 -120.5 49s-39.5 79 -39.5 139v205c0 60 13.167 106.167 39.5 138.5s66.5 48.5 120.5 48.5c30 0 56.333 -6.33301 79 -19
s41.334 -28.334 56.001 -47.001l32 56h76z" />
    <glyph glyph-name="b" unicode="b" horiz-adv-x="507" 
d="M267 467c-19.333 0 -36.833 -6 -52.5 -18s-27.5 -26 -35.5 -42v-254c8 -16 19.833 -30 35.5 -42s33.167 -18 52.5 -18c25.333 0 42.666 7.16699 51.999 21.5s14 38.833 14 73.5v184c0 34.667 -4.66699 59.167 -14 73.5s-26.666 21.5 -51.999 21.5zM179 521
c14 14.667 31.166 26.499 51.499 35.499s42.5 13.5 66.5 13.5c54 0 94.167 -16.167 120.5 -48.5s39.5 -78.5 39.5 -138.5v-205c0 -60 -13.167 -106.333 -39.5 -139s-66.5 -49 -120.5 -49c-30 0 -56.167 6.33301 -78.5 19s-41.166 28.334 -56.499 47.001l-22 -56h-86v736
l125 15v-230z" />
    <glyph glyph-name="c" unicode="c" horiz-adv-x="414" 
d="M174 193c0 -38.667 8.5 -65.334 25.5 -80.001s38.833 -22 65.5 -22c37.333 0 75.666 7.66699 114.999 23v-94c-20.667 -9.33301 -41.167 -16.666 -61.5 -21.999s-42.5 -8 -66.5 -8c-64.667 0 -114.5 14.167 -149.5 42.5s-52.5 75.5 -52.5 141.5v212
c0 62.667 17.5 109 52.5 139s84.833 45 149.5 45c24 0 46.167 -2.5 66.5 -7.5s40.833 -12.167 61.5 -21.5v-95c-41.333 16 -79.666 24 -114.999 24c-30 0 -52.667 -7.5 -68 -22.5s-23 -42.167 -23 -81.5v-173z" />
    <glyph glyph-name="d" unicode="d" horiz-adv-x="507" 
d="M330 407c-7.33301 16 -19.166 30 -35.499 42s-34.166 18 -53.499 18c-25.333 0 -42.666 -7.16699 -51.999 -21.5s-14 -38.833 -14 -73.5v-184c0 -34.667 4.66699 -59.167 14 -73.5s26.666 -21.5 51.999 -21.5c19.333 0 37.166 6 53.499 18s28.166 26 35.499 42v254z
M454 753v-752.999h-85l-23 56c-14.667 -18.667 -33.334 -34.334 -56.001 -47.001s-49 -19 -79 -19c-54 0 -94 16.333 -120 49s-39 79 -39 139v205c0 60 13 106.167 39 138.5s66 48.5 120 48.5c25.333 0 47.833 -4.5 67.5 -13.5s36.834 -20.833 51.501 -35.5v213z" />
    <glyph glyph-name="e" unicode="e" horiz-adv-x="502" 
d="M174 193c0 -19.333 2.16699 -35.499 6.5 -48.499s10.5 -23.5 18.5 -31.5s17.5 -13.667 28.5 -17s23.167 -5 36.5 -5c26 0 54.5 3 85.5 9s58.833 13.667 83.5 23v-94c-24 -12.667 -51.5 -22.334 -82.5 -29.001s-63.5 -10 -97.5 -10c-64.667 0 -114.667 14.167 -150 42.5
s-53 75.5 -53 141.5v206c0 66 18 114.167 54 144.5s85.333 45.5 148 45.5c31.333 0 59.666 -3.83301 84.999 -11.5s46.833 -19.167 64.5 -34.5s31.334 -35 41.001 -59s14.5 -52.333 14.5 -85v-146h-283v-41zM332 321.001v55c0 38 -6.5 64.167 -19.5 78.5
s-32.833 21.5 -59.5 21.5c-26 0 -45.833 -7 -59.5 -21s-20.5 -40.333 -20.5 -79v-55h159z" />
    <glyph glyph-name="f" unicode="f" horiz-adv-x="326" 
d="M55 463l-47 -0.000976562v97h47v45c0 45.333 10.667 78.833 32 100.5s57 32.5 107 32.5c20 0 40.333 -1.66699 61 -5s38.667 -7.66602 54 -12.999v-91c-25.333 8 -52 12 -80 12c-17.333 0 -29.833 -4 -37.5 -12s-11.5 -21.333 -11.5 -40v-29h114v-97h-114v-463h-125v463z
" />
    <glyph glyph-name="g" unicode="g" 
d="M329 64c-14.667 -14 -31.834 -25.667 -51.501 -35s-42.167 -14 -67.5 -14c-54 0 -94 16.333 -120 49s-39 79 -39 139v180c0 59.333 13 105.333 39 138s66 49 120 49c30.667 0 57.167 -6.33301 79.5 -19s40.833 -28.334 55.5 -47.001l22 56h86v-554
c0 -32.667 -4.5 -59.667 -13.5 -81s-22.167 -38.333 -39.5 -51s-38.5 -21.5 -63.5 -26.5s-53.5 -7.5 -85.5 -7.5c-33.333 0 -63.666 2.83301 -90.999 8.5s-52.666 13.5 -75.999 23.5v97c23.333 -10 48.166 -18 74.499 -24s53.5 -9 81.5 -9c12 0 23.5 1 34.5 3
s20.5 6.16699 28.5 12.5s14.333 15.333 19 27s7 26.834 7 45.501v40zM241 118c18.667 0 36 6.16895 52 18.502s28 26.166 36 41.499v229c-8 16 -20 30 -36 42s-33.333 18 -52 18c-25.333 0 -42.666 -7.16699 -51.999 -21.5s-14 -38.833 -14 -73.5v-158
c0 -34.667 4.66699 -59.334 14 -74.001s26.666 -22 51.999 -22z" />
    <glyph glyph-name="h" unicode="h" 
d="M266 467c-19.333 0 -36.666 -6 -51.999 -18s-27 -26 -35 -42v-407h-125v734l125 19v-232c14 14.667 30.667 26.5 50 35.5s41.666 13.5 66.999 13.5c54 0 93.833 -16.167 119.5 -48.5s38.5 -78.5 38.5 -138.5v-383h-123v372c0 34.667 -4.5 59.167 -13.5 73.5
s-26.167 21.5 -51.5 21.5z" />
    <glyph glyph-name="i" unicode="i" horiz-adv-x="232" 
d="M178 560v-560h-124v561zM195 682c0 -24 -7.83301 -40.833 -23.5 -50.5s-34.167 -14.5 -55.5 -14.5c-22.667 0 -41.5 4.83301 -56.5 14.5s-22.5 26.5 -22.5 50.5s7.5 41.167 22.5 51.5s33.833 15.5 56.5 15.5c21.333 0 39.833 -5.16699 55.5 -15.5s23.5 -27.5 23.5 -51.5z
" />
    <glyph glyph-name="j" unicode="j" horiz-adv-x="240" 
d="M185 560l-0.000976562 -526c0 -61.333 -16.167 -109 -48.5 -143s-84.833 -51 -157.5 -51v86c18 2 32.333 6 43 12s18.834 14 24.501 24s9.5 22.333 11.5 37s3 31.667 3 51v510h124zM199.999 675c0 -24 -7.66699 -40.833 -23 -50.5s-34 -14.5 -56 -14.5
s-40.5 4.83301 -55.5 14.5s-22.5 26.5 -22.5 50.5s7.5 41.167 22.5 51.5s33.5 15.5 55.5 15.5s40.667 -5.16699 56 -15.5s23 -27.5 23 -51.5z" />
    <glyph glyph-name="k" unicode="k" horiz-adv-x="474" 
d="M458 560l-129 -267l146 -293h-134l-119 250h-43v-250h-125v734l125 19v-417h44l105 224h130z" />
    <glyph glyph-name="l" unicode="l" horiz-adv-x="233" 
d="M54 0v734l125 19v-753h-125z" />
    <glyph glyph-name="m" unicode="m" horiz-adv-x="752" 
d="M417 502c15.333 18.667 33.832 34.6641 55.499 47.9971s47.167 20 76.5 20c54 0 92.833 -16.167 116.5 -48.5s35.5 -78.5 35.5 -138.5v-383h-126v372c0 17.333 -0.666992 32 -2 44s-4 21.833 -8 29.5s-9.66699 13.167 -17 16.5s-17.333 5 -30 5
c-16.667 0 -31.667 -5.16699 -45 -15.5s-24.333 -22.5 -33 -36.5c0 -5.33301 0.166992 -10.666 0.5 -15.999s0.5 -10.666 0.5 -15.999v-383h-124v372c0 34.667 -3.5 59.167 -10.5 73.5s-22.5 21.5 -46.5 21.5c-17.333 0 -33.166 -5.33301 -47.499 -16
s-25.5 -23.667 -33.5 -39v-412h-125v560h74l31 -56c15.333 18.667 33.5 34.334 54.5 47.001s46.167 19 75.5 19c32 0 58.5 -5.83301 79.5 -17.5s37.167 -28.5 48.5 -50.5z" />
    <glyph glyph-name="n" unicode="n" 
d="M263 467c-17.333 0 -33.665 -5.33398 -48.998 -16.001s-27 -23.667 -35 -39v-412h-125v560h74l31 -56c15.333 18.667 34 34.334 56 47.001s48.333 19 79 19c53.333 0 93.166 -16.167 119.499 -48.5s39.5 -78.5 39.5 -138.5v-383h-124v372
c0 34.667 -4.83301 59.167 -14.5 73.5s-26.834 21.5 -51.501 21.5z" />
    <glyph glyph-name="o" unicode="o" horiz-adv-x="504" 
d="M173 188c0 -38.667 6.66699 -65.5 20 -80.5s33 -22.5 59 -22.5c25.333 0 44.833 7.5 58.5 22.5s20.5 41.833 20.5 80.5v184c0 39.333 -6.83301 66.333 -20.5 81s-33.167 22 -58.5 22c-26 0 -45.667 -7.33301 -59 -22s-20 -41.667 -20 -81v-184zM48 380
c0 65.333 18.168 113.333 54.501 144s86.166 46 149.499 46s113 -15.167 149 -45.5s54 -78.5 54 -144.5v-200c0 -65.333 -18 -113.333 -54 -144s-85.667 -46 -149 -46c-64 0 -114 15.333 -150 46s-54 78.667 -54 144v200z" />
    <glyph glyph-name="p" unicode="p" horiz-adv-x="507" 
d="M297 -4c-24.667 0 -47.001 4.49902 -67.001 13.499s-37.333 20.833 -52 35.5v-195h-125v710h87l22 -56c14.667 18.667 33.334 34.334 56.001 47.001s49 19 79 19c54 0 94.167 -16.333 120.5 -49s39.5 -78.667 39.5 -138v-200c0 -60 -13.167 -106.167 -39.5 -138.5
s-66.5 -48.5 -120.5 -48.5zM177.999 158.999c8 -16 19.833 -30 35.5 -42s33.167 -18 52.5 -18c25.333 0 42.666 7.16699 51.999 21.5s14 38.833 14 73.5v178c0 34.667 -4.66699 59.167 -14 73.5s-26.666 21.5 -51.999 21.5c-19.333 0 -36.833 -6 -52.5 -18
s-27.5 -26 -35.5 -42v-248z" />
    <glyph glyph-name="q" unicode="q" 
d="M329 45c-14.667 -14.667 -31.833 -26.499 -51.5 -35.499s-42.167 -13.5 -67.5 -13.5c-54 0 -94 16.167 -120 48.5s-39 78.5 -39 138.5v200c0 59.333 13 105.333 39 138s66 49 120 49c30.667 0 57.167 -6.33301 79.5 -19s40.833 -28.334 55.5 -47.001l22 56h86v-710h-124
v195zM241.001 99.001c18.667 0 36 6 52 18s28 26 36 42v248c-8 16 -20 30 -36 42s-33.333 18 -52 18c-25.333 0 -42.666 -7.16699 -51.999 -21.5s-14 -38.833 -14 -73.5v-178c0 -34.667 4.66699 -59.167 14 -73.5s26.666 -21.5 51.999 -21.5z" />
    <glyph glyph-name="r" unicode="r" horiz-adv-x="320" 
d="M307 462c-25.333 1.33301 -49.332 -2 -71.999 -10s-41.334 -19.667 -56.001 -35v-417h-125v560h74l31 -62c14.667 20 35.167 37 61.5 51s55.5 21 87.5 21l-1 -108v0z" />
    <glyph glyph-name="s" unicode="s" horiz-adv-x="458" 
d="M298 150c0 14.667 -2.83691 26.5039 -8.50391 35.5039s-13.667 16.5 -24 22.5s-22.666 11.167 -36.999 15.5l-46.5 13.5c-19.333 5.33301 -37.666 12.166 -54.999 20.499s-32.666 19.333 -45.999 33s-23.833 30.167 -31.5 49.5s-11.5 43 -11.5 71
c0 49.333 14.833 88.166 44.5 116.499s76.167 42.5 139.5 42.5c32 0 62 -3 90 -9s52.667 -14.667 74 -26v-93c-29.333 11.333 -55.833 19.5 -79.5 24.5s-48.834 7.5 -75.501 7.5c-45.333 0 -68 -20.667 -68 -62c0 -14 2.83301 -25.5 8.5 -34.5s13.5 -16.833 23.5 -23.5
s22 -12.167 36 -16.5l45 -13.5c19.333 -5.33301 37.833 -11.833 55.5 -19.5s33.167 -17.834 46.5 -30.501s24 -28.334 32 -47.001s12 -42 12 -70c0 -54.667 -17 -96.167 -51 -124.5s-84.333 -42.5 -151 -42.5c-35.333 0 -68.166 2.83301 -98.499 8.5
s-58.166 13.834 -83.499 24.501v99c26.667 -10.667 54.667 -19.334 84 -26.001s59.333 -10 90 -10c57.333 0 86 21.333 86 64z" />
    <glyph glyph-name="t" unicode="t" horiz-adv-x="328" 
d="M101 463h-99v97h99v104l126 19v-123h99v-97h-99v-463h-126v463z" />
    <glyph glyph-name="u" unicode="u" horiz-adv-x="501" 
d="M240 93c18 0 34.5 5.33301 49.5 16s26.5 23.667 34.5 39v412h125v-560h-74l-32 56c-15.333 -18.667 -36 -34.334 -62 -47.001s-54 -19 -84 -19c-53.333 0 -91 14.333 -113 43s-33 71.334 -33 128.001v399h125v-375c0 -34.667 4.33301 -58.667 13 -72s25.667 -20 51 -20z
" />
    <glyph glyph-name="v" unicode="v" horiz-adv-x="463" 
d="M1 560l128.999 -0.000976562l81 -306c4 -15.333 7.33301 -30.666 10 -45.999l7 -41.5c2 -12.333 3.5 -22.666 4.5 -30.999s1.5 -13.166 1.5 -14.499c0 1.33301 0.5 6.16602 1.5 14.499s2.33301 18.666 4 30.999s3.83398 26 6.50098 41s5.66699 30.167 9 45.5l80 307h127
l-175 -560h-112z" />
    <glyph glyph-name="w" unicode="w" horiz-adv-x="722" 
d="M722 560l-157.001 -560.003h-121l-63 276c-5.33301 22.667 -9.5 44.334 -12.5 65.001s-5.83301 43.334 -8.5 68.001c-0.666992 -25.333 -2.66699 -48.333 -6 -69s-7.66602 -42.334 -12.999 -65.001l-66 -275h-119l-155 560h129l67 -306l8 -46
c2.66699 -15.333 5 -29.333 7 -42l5 -31c1.33301 -8 2 -12.667 2 -14c0 1.33301 0.5 6.16602 1.5 14.499s2.33301 18.666 4 30.999s3.66699 26 6 41s5.16602 30.167 8.49902 45.5l68 307h111l69 -306c3.33301 -15.333 6.33301 -30.666 9 -45.999
s4.83398 -29.166 6.50098 -41.499s3 -22.666 4 -30.999s1.5 -13.166 1.5 -14.499c0 1.33301 0.666992 6 2 14s2.83301 18.333 4.5 31s3.66699 26.5 6 41.5s4.83301 30.167 7.5 45.5l66 307h128z" />
    <glyph glyph-name="x" unicode="x" horiz-adv-x="480" 
d="M473 560l-158 -276l164 -284h-142l-97 185l-96 -185h-142l163 284l-157 276h142l90 -176l91 176h142z" />
    <glyph glyph-name="y" unicode="y" 
d="M329 560l124.001 0.000976562v-554c0 -32.667 -4.5 -59.667 -13.5 -81s-22.167 -38.333 -39.5 -51s-38.5 -21.5 -63.5 -26.5s-53.5 -7.5 -85.5 -7.5c-33.333 0 -63.666 2.83301 -90.999 8.5s-52.666 13.5 -75.999 23.5v97c23.333 -10 48.166 -18 74.499 -24
s53.5 -9 81.5 -9c12 0 23.5 1 34.5 3s20.5 6.16699 28.5 12.5s14.333 15.333 19 27s7 26.834 7 45.501v40c-14.667 -14 -31.834 -25.667 -51.501 -35s-42.167 -14 -67.5 -14c-54 0 -94 16.333 -120 49s-39 79 -39 139v357h124v-346c0 -34.667 4.66699 -59.334 14 -74.001
s26.666 -22 51.999 -22c18.667 0 36 6.16699 52 18.5s28 26.166 36 41.499v382z" />
    <glyph glyph-name="z" unicode="z" horiz-adv-x="439" 
d="M29 91l227 368h-223v101h373v-88l-229 -371h240v-101h-388v91z" />
    <glyph glyph-name="braceleft" unicode="{" horiz-adv-x="320" 
d="M33 372l31 -0.00195312c12.667 0 23.834 5.83301 33.501 17.5s14.5 32.834 14.5 63.501v149c0 54 12.167 92.167 36.5 114.5s59.5 33.5 105.5 33.5h37v-100h-15c-15.333 0 -26.166 -5 -32.499 -15s-9.5 -25.333 -9.5 -46v-133c0 -30 -4.83301 -56.833 -14.5 -80.5
s-24.5 -42.167 -44.5 -55.5c18.667 -12 33.167 -30.167 43.5 -54.5s15.5 -51.5 15.5 -81.5v-132c0 -21.333 3.16699 -37 9.5 -47s17.166 -15 32.499 -15h15v-100h-37c-46 0 -81.167 11.333 -105.5 34s-36.5 61 -36.5 115v148c0 30.667 -4.83301 51.834 -14.5 63.501
s-20.834 17.5 -33.501 17.5h-31v104z" />
    <glyph glyph-name="bar" unicode="|" horiz-adv-x="221" 
d="M55 770h111v-940h-111v940z" />
    <glyph glyph-name="braceright" unicode="}" horiz-adv-x="320" 
d="M30 -110v100.002h15c15.333 0 26.166 5 32.499 15s9.5 25.667 9.5 47v132c0 30 5.16699 57.167 15.5 81.5s24.833 42.5 43.5 54.5c-19.333 13.333 -34 31.833 -44 55.5s-15 50.5 -15 80.5v133c0 20.667 -3.16699 36 -9.5 46s-17.166 15 -32.499 15h-15v100h37
c46 0 81.167 -11.167 105.5 -33.5s36.5 -60.5 36.5 -114.5v-149c0 -30.667 4.83301 -51.834 14.5 -63.501s20.834 -17.5 33.501 -17.5h31v-104h-31c-12.667 0 -23.834 -5.83301 -33.501 -17.5s-14.5 -32.834 -14.5 -63.501v-148c0 -54 -12.167 -92.333 -36.5 -115
s-59.5 -34 -105.5 -34h-37z" />
    <glyph glyph-name="asciitilde" unicode="~" horiz-adv-x="531" 
d="M176 409c17.333 0 34.1631 -3.33301 50.4961 -10s31.666 -13.834 45.999 -21.501l39.5 -21.5c12 -6.66699 23 -10 33 -10c17.333 0 29.833 4.66699 37.5 14s11.834 21.666 12.501 36.999h91c-1.33301 -44 -13.166 -78.333 -35.499 -103s-54.166 -37 -95.499 -37
c-18 0 -34.833 3.33301 -50.5 10s-30.167 13.834 -43.5 21.501l-38.5 21.5c-12.333 6.66699 -24.5 10 -36.5 10c-17.333 0 -30.166 -4.66699 -38.499 -14s-12.5 -21.666 -12.5 -36.999h-90c1.33301 44 13.333 78.333 36 103s54.334 37 95.001 37z" />
    <glyph glyph-name="exclamdown" unicode="&#xa1;" horiz-adv-x="245" 
d="M61 178l10 336h103l11 -336v-178h-124v178zM193 644c0 -22 -6.5 -38.333 -19.5 -49s-30.167 -16 -51.5 -16c-20.667 0 -37.167 5.33301 -49.5 16s-18.5 27 -18.5 49c0 22.667 6.16699 39.334 18.5 50.001s28.833 16 49.5 16c21.333 0 38.5 -5.33301 51.5 -16
s19.5 -27.334 19.5 -50.001z" />
    <glyph glyph-name="cent" unicode="&#xa2;" horiz-adv-x="431" 
d="M392 103c-14.667 -6.66699 -30.1699 -12.3311 -46.5029 -16.998s-33.5 -8.33398 -51.5 -11.001v-105h-82v105c-52 5.33301 -92 22.166 -120 50.499s-42 72.166 -42 131.499v183c0 55.333 14 98 42 128s68 47.667 120 53v109h82v-109c18 -2 35.167 -5.33301 51.5 -10
s31.833 -10 46.5 -16v-95c-39.333 15.333 -81.666 23 -126.999 23c-30 0 -52.667 -7.33301 -68 -22s-23 -41.667 -23 -81v-143c0 -19.333 2.33301 -35.666 7 -48.999s11 -24 19 -32s17.5 -13.667 28.5 -17s23.167 -5 36.5 -5c22.667 0 44.334 2 65.001 6
s41.334 9.66699 62.001 17v-94z" />
    <glyph glyph-name="sterling" unicode="&#xa3;" horiz-adv-x="464" 
d="M100 583c0 50 13.168 88.333 39.501 115s68.5 40 126.5 40c25.333 0 51.833 -2 79.5 -6s52.167 -10 73.5 -18v-93c-38.667 13.333 -78 20 -118 20c-49.333 0 -74 -24.667 -74 -74v-143h125v-103h-125v-88c0 -20.667 -2 -38.667 -6 -54s-8.33301 -28.333 -13 -39
c-6 -12 -12.333 -23 -19 -33h250v-107h-408v87c19.333 14 35.666 32.333 48.999 55s20 48 20 76v103h-69v103h69v159z" />
    <glyph glyph-name="currency" unicode="&#xa4;" horiz-adv-x="547" 
d="M98 226c-11.333 26.667 -17.002 57.334 -17.002 92.001v43c0 32 5.66699 62 17 90l-62 71l88 68l52 -58c27.333 16.667 60 25 98 25s70.667 -8.33301 98 -25l48 55l92 -65l-63 -71c10.667 -26 16 -56 16 -90v-43c0 -16.667 -1.5 -32.834 -4.5 -48.501
s-6.83301 -30.167 -11.5 -43.5l63 -70l-86 -69l-54 59c-13.333 -8 -28.666 -14.167 -45.999 -18.5s-34.666 -6.5 -51.999 -6.5c-39.333 0 -72 8.33301 -98 25l-51 -58l-89 68zM187.998 327c0.666992 -36 9.33301 -62.5 26 -79.5s37 -25.5 61 -25.5
c22.667 0 42.167 8.5 58.5 25.5s24.5 43.5 24.5 79.5v24c0 36 -8.16699 62.667 -24.5 80s-35.833 26 -58.5 26c-24 0 -44.5 -8.66699 -61.5 -26s-25.5 -44 -25.5 -80v-24z" />
    <glyph glyph-name="yen" unicode="&#xa5;" horiz-adv-x="529" 
d="M50 179h155v69h-155v87h132l-173 365h135l125 -287l125 287h130l-171 -365h133v-87h-154v-69h154v-87h-154v-92h-127v92h-155v87z" />
    <glyph glyph-name="brokenbar" unicode="&#xa6;" horiz-adv-x="221" 
d="M55 183h111v-353h-111v353zM55 770h111v-355h-111v355z" />
    <glyph glyph-name="section" unicode="&#xa7;" horiz-adv-x="476" 
d="M313 306c0 15.333 -4.49902 27.332 -13.499 35.999s-20 15.667 -33 21s-26.5 9.33301 -40.5 12s-25.667 5.66699 -35 9c-7.33301 -6.66699 -13.5 -15.667 -18.5 -27s-7.5 -23.666 -7.5 -36.999v-6c0 -14 3.33301 -25.333 10 -34s15.167 -15.667 25.5 -21
s22.166 -9.83301 35.499 -13.5l41 -11.5c10 8 18.5 18 25.5 30s10.5 23.667 10.5 35v7zM398.001 582.999c-23.333 8.66699 -49.165 15.835 -77.498 21.502s-55.166 8.5 -80.499 8.5c-22.667 0 -39.167 -5.33301 -49.5 -16s-15.5 -25 -15.5 -43v-8
c0 -11.333 2.33301 -21 7 -29s11 -14.667 19 -20s17.167 -9.83301 27.5 -13.5s21.166 -6.83398 32.499 -9.50098c20 -4.66699 40.5 -10.5 61.5 -17.5s40.167 -16.5 57.5 -28.5s31.5 -27 42.5 -45s16.5 -40.333 16.5 -67v-16c0 -10 -1.83301 -20.5 -5.5 -31.5
s-8.5 -21.667 -14.5 -32s-13 -20 -21 -29s-16.333 -16.5 -25 -22.5c16.667 -10.667 30 -25 40 -43s15 -38.667 15 -62v-15c0 -24 -4.5 -46 -13.5 -66s-22 -37.167 -39 -51.5s-37.667 -25.666 -62 -33.999s-52.166 -12.5 -83.499 -12.5c-32 0 -63.333 3 -94 9
s-57.334 14 -80.001 24v99c23.333 -9.33301 51 -16.833 83 -22.5s61.333 -8.5 88 -8.5c24.667 0 43.167 6 55.5 18s18.5 28 18.5 48v10c0 17.333 -7.83301 30.833 -23.5 40.5s-35.167 17.167 -58.5 22.5c-21.333 4.66699 -42.833 10.667 -64.5 18
s-41.167 17.166 -58.5 29.499s-31.5 27.833 -42.5 46.5s-16.5 42 -16.5 70v13c0 21.333 5.66699 43 17 65s25.666 39.667 42.999 53c-14 11.333 -25.333 25.833 -34 43.5s-13 37.5 -13 59.5v12c0 23.333 3.66699 45 11 65s18.5 37.167 33.5 51.5s33.833 25.666 56.5 33.999
s49.667 12.5 81 12.5s61.166 -3 89.499 -9s53.833 -14 76.5 -24v-98z" />
    <glyph glyph-name="dieresis" unicode="&#xa8;" horiz-adv-x="417" 
d="M162 678c0 -20.667 -5 -37.5 -15 -50.5s-26.333 -19.5 -49 -19.5c-22 0 -38 6.5 -48 19.5s-15 29.833 -15 50.5s5 37.667 15 51s26 20 48 20c22.667 0 39 -6.66699 49 -20s15 -30.333 15 -51zM383 678c0 -20.667 -5 -37.5 -15 -50.5s-26.333 -19.5 -49 -19.5
c-21.333 0 -37 6.5 -47 19.5s-15 29.833 -15 50.5s5 37.667 15 51s25.667 20 47 20c22.667 0 39 -6.66699 49 -20s15 -30.333 15 -51z" />
    <glyph glyph-name="copyright" unicode="&#xa9;" horiz-adv-x="642" 
d="M48 489c0 34.667 7.5 65.667 22.5 93s35 50.5 60 69.5s54.167 33.5 87.5 43.5s68 15 104 15s70.333 -5 103 -15s61.5 -24.5 86.5 -43.5s45 -42.167 60 -69.5s22.5 -58.333 22.5 -93v-281c0 -34.667 -7.5 -65.834 -22.5 -93.501s-35 -51 -60 -70
s-53.833 -33.5 -86.5 -43.5s-67 -15 -103 -15s-70.667 5 -104 15s-62.5 24.5 -87.5 43.5s-45 42.333 -60 70s-22.5 58.834 -22.5 93.501v281zM133 208c0 -23.333 5.5 -43.833 16.5 -61.5s25.5 -32.334 43.5 -44.001s38.167 -20.5 60.5 -26.5s45.166 -9 68.499 -9
c22.667 0 45.334 3 68.001 9s43 14.833 61 26.5s32.667 26.334 44 44.001s17 38.167 17 61.5v280c0 22.667 -5.66699 42.834 -17 60.501s-26 32.5 -44 44.5s-38.333 21.167 -61 27.5s-45.334 9.5 -68.001 9.5c-23.333 0 -46.166 -3.16699 -68.499 -9.5
s-42.5 -15.5 -60.5 -27.5s-32.5 -26.833 -43.5 -44.5s-16.5 -37.834 -16.5 -60.501v-280zM188 419c0 47.333 12.167 82.001 36.5 104.001s59.5 33 105.5 33c17.333 0 35.333 -2 54 -6s35 -9.66699 49 -17v-68c-14 5.33301 -28.833 9.5 -44.5 12.5s-31.167 4.5 -46.5 4.5
c-21.333 0 -37.333 -5.33301 -48 -16s-16 -31.334 -16 -62.001v-111c0 -30 5.33301 -50.333 16 -61s26.667 -16 48 -16c15.333 0 30.833 1.5 46.5 4.5s30.5 7.16699 44.5 12.5v-69c-14 -7.33301 -30.333 -13 -49 -17s-36.667 -6 -54 -6c-46 0 -81.167 11 -105.5 33
s-36.5 56.667 -36.5 104v141z" />
    <glyph glyph-name="ordfeminine" unicode="&#xaa;" horiz-adv-x="399" 
d="M272 510l-0.00195312 57.9961c0 14 -1.83301 25.333 -5.5 34s-8.83398 15.334 -15.501 20.001s-14.667 7.83398 -24 9.50098s-19.666 2.5 -30.999 2.5c-24 0 -46.5 -2 -67.5 -6s-40.833 -9.66699 -59.5 -17v72c19.333 8.66699 40.333 15.334 63 20.001s46.667 7 72 7
c24 0 45.667 -2.16699 65 -6.5s35.833 -11.333 49.5 -21s24.167 -22.667 31.5 -39s11 -36.5 11 -60.5v-319h-74l-13 33c-11.333 -11.333 -26.666 -20.666 -45.999 -27.999s-38.666 -11 -57.999 -11c-41.333 0 -73 11.167 -95 33.5s-33 55.833 -33 100.5
c0 22 3.5 40.667 10.5 56s17 27.5 30 36.5s28.5 15.5 46.5 19.5s37.667 6 59 6h84zM131.998 391.996c0 -20 4.66699 -35.333 14 -46s22.333 -16 39 -16c17.333 0 33.833 4.5 49.5 13.5s28.167 19.5 37.5 31.5v70h-81c-39.333 0 -59 -17.667 -59 -53z" />
    <glyph glyph-name="guillemotleft" unicode="&#xab;" horiz-adv-x="660" 
 />
    <glyph glyph-name="registered" unicode="&#xae;" horiz-adv-x="642" 
d="M48 491c0 34 7.5 64.667 22.5 92s35 50.333 60 69s54.167 33 87.5 43s68 15 104 15s70.333 -5 103 -15s61.5 -24.333 86.5 -43s45 -41.667 60 -69s22.5 -58 22.5 -92v-284c0 -34.667 -7.5 -65.667 -22.5 -93s-35 -50.5 -60 -69.5s-53.833 -33.5 -86.5 -43.5
s-67 -15 -103 -15s-70.667 5 -104 15s-62.5 24.5 -87.5 43.5s-45 42.167 -60 69.5s-22.5 58.333 -22.5 93v284zM133 207c0 -23.333 5.5 -43.833 16.5 -61.5s25.5 -32.334 43.5 -44.001s38.167 -20.5 60.5 -26.5s45.166 -9 68.499 -9c22.667 0 45.334 3 68.001 9
s43 14.833 61 26.5s32.667 26.334 44 44.001s17 38.167 17 61.5v283c0 22.667 -5.66699 42.667 -17 60s-26 32 -44 44s-38.333 21 -61 27s-45.334 9 -68.001 9c-23.333 0 -46.166 -3 -68.499 -9s-42.5 -15 -60.5 -27s-32.5 -26.667 -43.5 -44s-16.5 -37.333 -16.5 -60v-283z
M191 547l140.999 -0.000976562c39.333 0 70.333 -9.83301 93 -29.5s34 -49.5 34 -89.5v-23c0 -27.333 -5.66699 -50.166 -17 -68.499s-27.666 -31.5 -48.999 -39.5l72 -145h-95l-58 135h-32v-135h-89v395zM318.999 354.999c16 0 28.833 4 38.5 12s14.5 22.667 14.5 44v9
c0 21.333 -4.83301 35.5 -14.5 42.5s-22.5 10.5 -38.5 10.5h-39v-118h39z" />
    <glyph glyph-name="macron" unicode="&#xaf;" horiz-adv-x="362" 
d="M38 717h288v-89h-288v89z" />
    <glyph glyph-name="degree" unicode="&#xb0;" horiz-adv-x="331" 
d="M41 582c0 41.333 11.167 73.166 33.5 95.499s52.5 33.5 90.5 33.5c40 0 71.5 -11.167 94.5 -33.5s34.5 -54.166 34.5 -95.499v-16c0 -43.333 -11.5 -75.833 -34.5 -97.5s-54.5 -32.5 -94.5 -32.5c-38 0 -68.167 10.833 -90.5 32.5s-33.5 54.167 -33.5 97.5v16zM220 573
c0 28 -4.5 47.833 -13.5 59.5s-22.167 17.5 -39.5 17.5s-30.666 -5.83301 -39.999 -17.5s-14 -31.5 -14 -59.5s4.66699 -48 14 -60s22.666 -18 39.999 -18s30.5 6 39.5 18s13.5 32 13.5 60z" />
    <glyph glyph-name="plusminus" unicode="&#xb1;" horiz-adv-x="521" 
d="M208 323h-170v91h170v157h104v-157h171v-91h-171v-157h-104v157zM38 0v90h445v-90h-445z" />
    <glyph glyph-name="acute" unicode="&#xb4;" horiz-adv-x="291" 
d="M133 786l91 -48l-104 -125l-62 31z" />
    <glyph glyph-name="paragraph" unicode="&#xb6;" horiz-adv-x="524" 
d="M251 265l-17.999 0.00195312c-27.333 0 -52.333 4.5 -75 13.5s-42.334 22 -59.001 39s-29.667 38.167 -39 63.5s-14 54.666 -14 87.999v27c0 65.333 17.667 115.666 53 150.999s86.333 53 153 53h219v-810h-74v726h-73v-726h-73v375z" />
    <glyph glyph-name="periodcentered" unicode="&#xb7;" horiz-adv-x="211" 
d="M179 346c0 -23.333 -6.66699 -40.833 -20 -52.5s-31 -17.5 -53 -17.5s-39.833 5.83301 -53.5 17.5s-20.5 29.167 -20.5 52.5c0 24 6.83301 42 20.5 54s31.5 18 53.5 18s39.667 -6 53 -18s20 -30 20 -54z" />
    <glyph glyph-name="cedilla" unicode="&#xb8;" horiz-adv-x="241" 
d="M100 -167c-20 0 -39.332 2.99707 -57.999 8.99707v46c4.66699 -1.33301 10.167 -2.5 16.5 -3.5s12.166 -1.5 17.499 -1.5c23.333 0 35 8 35 24c0 8 -3 13.833 -9 17.5s-12.667 6.16699 -20 7.5c-8 2 -17.333 2.66699 -28 2l25 66h79l-11 -33
c15.333 -4 28.666 -11 39.999 -21s17 -24 17 -42c0 -13.333 -3.33301 -24.666 -10 -33.999s-15 -16.666 -25 -21.999s-21.167 -9.16602 -33.5 -11.499s-24.166 -3.5 -35.499 -3.5z" />
    <glyph glyph-name="ordmasculine" unicode="&#xba;" horiz-adv-x="400" 
d="M47 555c0 51.333 14.5 90.166 43.5 116.499s69.167 39.5 120.5 39.5c52 0 92.333 -13.167 121 -39.5s43 -65.166 43 -116.499v-143c0 -50 -14.333 -88.167 -43 -114.5s-69 -39.5 -121 -39.5c-51.333 0 -91.5 13.167 -120.5 39.5s-43.5 64.5 -43.5 114.5v143zM137 422
c0 -31.333 6 -53.333 18 -66s30.667 -19 56 -19c26 0 45 6.33301 57 19s18 34.667 18 66v124c0 32 -6 54.5 -18 67.5s-31 19.5 -57 19.5c-25.333 0 -44 -6.5 -56 -19.5s-18 -35.5 -18 -67.5v-124z" />
    <glyph glyph-name="guillemotright" unicode="&#xbb;" horiz-adv-x="660" 
 />
    <glyph glyph-name="onequarter" unicode="&#xbc;" horiz-adv-x="820" 
d="M481 141l117 323h103l-110 -296h95v140h97v-308h-97v86h-205v55zM110 610l-74 -35v84l97 45h74v-452h-97v358zM546 700h126l-423 -700h-128z" />
    <glyph glyph-name="onehalf" unicode="&#xbd;" horiz-adv-x="856" 
d="M517 60c46 46.667 82.3359 85.665 109.003 116.998s46.667 57.333 60 78s21.666 37.334 24.999 50.001s5 24 5 34c0 40 -21 60 -63 60c-18 0 -37.333 -2.33301 -58 -7s-39.667 -10.667 -57 -18v75c19.333 8 40.166 14.333 62.499 19s46.5 7 72.5 7
c46.667 0 82 -12 106 -36s36 -57 36 -99c0 -32 -11.333 -68.667 -34 -110s-62.334 -89.666 -119.001 -144.999h162v-85h-307v60zM105.003 609.998l-74 -35v84l96 45h74v-452h-96v358zM516.003 699.998h126l-423 -700h-128z" />
    <glyph glyph-name="threequarters" unicode="&#xbe;" horiz-adv-x="897" 
d="M538 141l119 323h101l-109 -296h95v140h96v-308h-96v86h-206v55zM343 367c0 -46 -15.3301 -80.832 -45.9971 -104.499s-72.334 -35.5 -125.001 -35.5c-23.333 0 -46.666 2 -69.999 6s-44 9.66699 -62 17v74c21.333 -8 43.166 -13.667 65.499 -17s43.166 -5 62.499 -5
c23.333 0 42.166 5.5 56.499 16.5s21.5 26.833 21.5 47.5v10c0 25.333 -6.66699 42.833 -20 52.5s-31.333 14.5 -54 14.5c-20.667 0 -38 -1 -52 -3l-40 54l121 134h-157v72h282v-59l-117 -128c17.333 0 34 -1.83301 50 -5.5s30.333 -10.5 43 -20.5s22.667 -23.333 30 -40
s11 -37.334 11 -62.001v-18zM623.003 700.001h126l-423 -700h-128z" />
    <glyph glyph-name="questiondown" unicode="&#xbf;" horiz-adv-x="474" 
d="M178 647c0 22 7.33301 38.5 22 49.5s32.667 16.5 54 16.5s39.166 -5.5 53.499 -16.5s21.5 -27.5 21.5 -49.5c0 -22.667 -7.16699 -39.5 -21.5 -50.5s-32.166 -16.5 -53.499 -16.5s-39.333 5.5 -54 16.5s-22 27.833 -22 50.5zM253 91
c27.333 0 54.4961 2.83398 81.4961 8.50098s51.167 12.167 72.5 19.5v-102c-23.333 -9.33301 -50.5 -16.833 -81.5 -22.5s-63.833 -8.5 -98.5 -8.5c-31.333 0 -58.5 4.33301 -81.5 13s-42.167 20.5 -57.5 35.5s-26.833 33 -34.5 54s-11.5 43.5 -11.5 67.5v18
c0 21.333 2.16699 40.666 6.5 57.999s10.333 33.333 18 48s16.834 28.5 27.501 41.5s22.334 26.167 35.001 39.5c10.667 12 20 23.167 28 33.5s14.333 20.5 19 30.5s8.16699 20.333 10.5 31s3.5 22.667 3.5 36v33h127v-37c0 -26 -1.83301 -48 -5.5 -66
s-9.16699 -34 -16.5 -48s-16.166 -26.833 -26.499 -38.5l-35.5 -38.5c-17.333 -18.667 -32.166 -37.667 -44.499 -57s-18.5 -43.333 -18.5 -72v-7c0 -20 6.5 -36.667 19.5 -50s34.167 -20 63.5 -20z" />
    <glyph glyph-name="Agrave" unicode="&#xc0;" horiz-adv-x="559" 
d="M424 0l-41 146h-208l-41 -146h-134l222 700h115l221 -700h-134zM204 249l150 -0.000976562l-50 180c-4 12.667 -7.5 25.667 -10.5 39s-5.5 25.833 -7.5 37.5l-5 30c-1.33301 8.33301 -2 13.833 -2 16.5c-0.666992 -3.33301 -1.66699 -9.16602 -3 -17.499l-5 -30
c-2 -11.667 -4.33301 -24.167 -7 -37.5s-5.66699 -26 -9 -38zM227 929.999l78 -147l-58 -36l-108 129z" />
    <glyph glyph-name="Aacute" unicode="&#xc1;" horiz-adv-x="559" 
d="M424 0l-41 146h-208l-41 -146h-134l222 700h115l221 -700h-134zM204 249l150 -0.000976562l-50 180c-4 12.667 -7.5 25.667 -10.5 39s-5.5 25.833 -7.5 37.5l-5 30c-1.33301 8.33301 -2 13.833 -2 16.5c-0.666992 -3.33301 -1.66699 -9.16602 -3 -17.499l-5 -30
c-2 -11.667 -4.33301 -24.167 -7 -37.5s-5.66699 -26 -9 -38zM318 925.999l91 -48l-104 -125l-62 31z" />
    <glyph glyph-name="Acircumflex" unicode="&#xc2;" horiz-adv-x="559" 
d="M424 0l-41 146h-208l-41 -146h-134l222 700h115l221 -700h-134zM225 888h98l91 -132h-102l-39 69l-37 -69h-104zM204 249l150 -0.000976562l-50 180c-4 12.667 -7.5 25.667 -10.5 39s-5.5 25.833 -7.5 37.5l-5 30c-1.33301 8.33301 -2 13.833 -2 16.5
c-0.666992 -3.33301 -1.66699 -9.16602 -3 -17.499l-5 -30c-2 -11.667 -4.33301 -24.167 -7 -37.5s-5.66699 -26 -9 -38z" />
    <glyph glyph-name="Atilde" unicode="&#xc3;" horiz-adv-x="559" 
d="M424 0l-41 146h-208l-41 -146h-134l222 700h115l221 -700h-134zM93 765c0 38 8.33203 68.999 24.999 92.999s42 36 76 36c16.667 0 32 -2.33301 46 -7s26.833 -9.83398 38.5 -15.501l32 -15.5c9.66699 -4.66699 18.5 -7 26.5 -7c12 0 20.333 4 25 12
s7.33398 18.667 8.00098 32h84c0 -38 -8.5 -69 -25.5 -93s-42.5 -36 -76.5 -36c-16 0 -30.667 2.33301 -44 7s-25.5 9.83398 -36.5 15.501s-21.5 10.834 -31.5 15.501s-20 7 -30 7c-12 0 -20.5 -4 -25.5 -12s-7.5 -18.667 -7.5 -32h-84zM203.999 248.999l150 -0.000976562
l-50 180c-4 12.667 -7.5 25.667 -10.5 39s-5.5 25.833 -7.5 37.5l-5 30c-1.33301 8.33301 -2 13.833 -2 16.5c-0.666992 -3.33301 -1.66699 -9.16602 -3 -17.499l-5 -30c-2 -11.667 -4.33301 -24.167 -7 -37.5s-5.66699 -26 -9 -38z" />
    <glyph glyph-name="Adieresis" unicode="&#xc4;" horiz-adv-x="559" 
d="M424 0l-41 146h-208l-41 -146h-134l222 700h115l221 -700h-134zM204 249l150 -0.000976562l-50 180c-4 12.667 -7.5 25.667 -10.5 39s-5.5 25.833 -7.5 37.5l-5 30c-1.33301 8.33301 -2 13.833 -2 16.5c-0.666992 -3.33301 -1.66699 -9.16602 -3 -17.499l-5 -30
c-2 -11.667 -4.33301 -24.167 -7 -37.5s-5.66699 -26 -9 -38zM153 747.999c-21.333 0 -37 6.16699 -47 18.5s-15 29.166 -15 50.499s5 38.5 15 51.5s25.667 19.5 47 19.5s37.333 -6.5 48 -19.5s16 -30.167 16 -51.5s-5.33301 -38.166 -16 -50.499s-26.667 -18.5 -48 -18.5z
M393 747.999c-21.333 0 -36.833 6.16699 -46.5 18.5s-14.5 29.166 -14.5 50.499s4.83301 38.5 14.5 51.5s25.167 19.5 46.5 19.5c22 0 38.167 -6.5 48.5 -19.5s15.5 -30.167 15.5 -51.5s-5.16699 -38.166 -15.5 -50.499s-26.5 -18.5 -48.5 -18.5z" />
    <glyph glyph-name="Aring" unicode="&#xc5;" horiz-adv-x="559" 
d="M424 0l-41 146h-208l-41 -146h-134l222 700h115l221 -700h-134zM197 833c0 23.333 7.5 42.166 22.5 56.499s33.167 21.5 54.5 21.5c22.667 0 41.5 -7.16699 56.5 -21.5s22.5 -33.166 22.5 -56.499v-10c0 -25.333 -7.5 -44.833 -22.5 -58.5s-33.833 -20.5 -56.5 -20.5
c-21.333 0 -39.5 6.83301 -54.5 20.5s-22.5 33.167 -22.5 58.5v10zM204 249l150 -0.000976562l-50 180c-4 12.667 -7.5 25.667 -10.5 39s-5.5 25.833 -7.5 37.5l-5 30c-1.33301 8.33301 -2 13.833 -2 16.5c-0.666992 -3.33301 -1.66699 -9.16602 -3 -17.499l-5 -30
c-2 -11.667 -4.33301 -24.167 -7 -37.5s-5.66699 -26 -9 -38zM274 789.999c20 0 30 12.333 30 37s-10 37 -30 37c-17.333 0 -26 -12.333 -26 -37s8.66699 -37 26 -37z" />
    <glyph glyph-name="AE" unicode="&#xc6;" horiz-adv-x="843" 
d="M415 269h-187l-94 -269h-134l252 700h553v-111h-259v-218h216v-109h-216v-152h266v-110h-397v269zM263 371h152v221h-74z" />
    <glyph glyph-name="Ccedilla" unicode="&#xc7;" horiz-adv-x="472" 
d="M440 575c-28.667 9.33301 -55.332 15.9951 -79.999 19.9951s-49.667 6 -75 6c-30.667 0 -56.167 -8.16699 -76.5 -24.5s-30.5 -45.5 -30.5 -87.5v-278c0 -42 10.167 -71.167 30.5 -87.5s45.833 -24.5 76.5 -24.5c25.333 0 50.333 2 75 6s51.334 10.667 80.001 20v-103
c-22.667 -9.33301 -46.5 -16.666 -71.5 -21.999s-50.167 -8.66602 -75.5 -9.99902l-8 -23c15.333 -4 28.333 -11 39 -21s16 -24 16 -42c0 -13.333 -3.16699 -24.666 -9.5 -33.999s-14.5 -16.666 -24.5 -21.999s-21 -9.16602 -33 -11.499s-23.667 -3.5 -35 -3.5
c-21.333 0 -41 3 -59 9v46c10 -3.33301 21.333 -5 34 -5c23.333 0 35 8 35 24c0 8 -3 13.833 -9 17.5s-12.667 6.16699 -20 7.5c-8.66699 2 -18.334 2.66699 -29.001 2l25 59c-53.333 8 -94.5 28.5 -123.5 61.5s-43.5 79.833 -43.5 140.5v310c0 70 19.333 121.833 58 155.5
s92.667 50.5 162 50.5c61.333 0 118.666 -11 171.999 -33v-103v0z" />
    <glyph glyph-name="Egrave" unicode="&#xc8;" horiz-adv-x="480" 
d="M52 700h390v-111h-259v-179h216v-109h-216v-191h266v-110h-397v700zM237 920l78 -147l-58 -36l-108 129z" />
    <glyph glyph-name="Eacute" unicode="&#xc9;" horiz-adv-x="480" 
d="M52 700h390v-111h-259l-1 -180h217v-106h-217v-193h267v-110h-397v700zM274 921l91 -48l-104 -125l-62 31z" />
    <glyph glyph-name="Ecircumflex" unicode="&#xca;" horiz-adv-x="480" 
d="M52 700h390v-111h-259v-179h216v-109h-216v-191h266v-110h-397v700zM202 888h98l91 -132h-102l-39 69l-37 -69h-104z" />
    <glyph glyph-name="Edieresis" unicode="&#xcb;" horiz-adv-x="480" 
d="M133 748c-21.333 0 -37 6.16699 -47 18.5s-15 29.166 -15 50.499s5 38.5 15 51.5s25.667 19.5 47 19.5s37.333 -6.5 48 -19.5s16 -30.167 16 -51.5s-5.33301 -38.166 -16 -50.499s-26.667 -18.5 -48 -18.5zM354 748c-21.333 0 -36.833 6.16699 -46.5 18.5
s-14.5 29.166 -14.5 50.499s4.83301 38.5 14.5 51.5s25.167 19.5 46.5 19.5s37.166 -6.5 47.499 -19.5s15.5 -30.167 15.5 -51.5s-5.16699 -38.166 -15.5 -50.499s-26.166 -18.5 -47.499 -18.5zM52 700h390v-111h-259v-179h216v-109h-216v-191h266v-110h-397v700z" />
    <glyph glyph-name="Igrave" unicode="&#xcc;" horiz-adv-x="232" 
d="M52 700h131v-700h-131v700zM93 924l78 -147l-58 -36l-108 129z" />
    <glyph glyph-name="Iacute" unicode="&#xcd;" horiz-adv-x="232" 
d="M52 700h131v-700h-131v700zM145 916l91 -48l-104 -125l-62 31z" />
    <glyph glyph-name="Icircumflex" unicode="&#xce;" horiz-adv-x="232" 
d="M52 700h131v-700h-131v700zM68 888h98l91 -132h-102l-39 69l-37 -69h-104z" />
    <glyph glyph-name="Idieresis" unicode="&#xcf;" horiz-adv-x="232" 
d="M42 748c-21.333 0 -36.833 6.16699 -46.5 18.5s-14.5 29.166 -14.5 50.499s4.83301 38.5 14.5 51.5s25.167 19.5 46.5 19.5s36.666 -6.5 45.999 -19.5s14 -30.167 14 -51.5s-4.66699 -38.166 -14 -50.499s-24.666 -18.5 -45.999 -18.5zM52 700h131v-700h-131v700z
M194 748c-21.333 0 -36.666 6.16699 -45.999 18.5s-14 29.166 -14 50.499s4.66699 38.5 14 51.5s24.666 19.5 45.999 19.5s36.5 -6.5 45.5 -19.5s13.5 -30.167 13.5 -51.5s-4.5 -38.166 -13.5 -50.499s-24.167 -18.5 -45.5 -18.5z" />
    <glyph glyph-name="Eth" unicode="&#xd0;" horiz-adv-x="559" 
d="M52 307h-43v90h43v303h241c67.333 0 120.166 -17.833 158.499 -53.5s57.5 -88.167 57.5 -157.5v-278c0 -69.333 -19.167 -121.833 -57.5 -157.5s-91.166 -53.5 -158.499 -53.5h-241v307zM293 110c28 0 49.667 9 65 27s23 48 23 90v246c0 42 -7.66699 71.833 -23 89.5
s-37 26.5 -65 26.5h-110v-192h115v-90h-115v-197h110z" />
    <glyph glyph-name="Ntilde" unicode="&#xd1;" horiz-adv-x="572" 
d="M52 700h112l227 -407v407h129v-700h-112l-226 403v-403h-130v700zM102 765c0 38 8.33203 68.999 24.999 92.999s42 36 76 36c16.667 0 32 -2.33301 46 -7s26.833 -9.83398 38.5 -15.501l32 -15.5c9.66699 -4.66699 18.5 -7 26.5 -7c12 0 20.333 4 25 12
s7.33398 18.667 8.00098 32h84c0 -38 -8.5 -69 -25.5 -93s-42.5 -36 -76.5 -36c-16 0 -30.667 2.33301 -44 7s-25.5 9.83398 -36.5 15.501s-21.5 10.834 -31.5 15.501s-20 7 -30 7c-12 0 -20.5 -4 -25.5 -12s-7.5 -18.667 -7.5 -32h-84z" />
    <glyph glyph-name="Ograve" unicode="&#xd2;" horiz-adv-x="571" 
d="M252 927l78 -147l-58 -36l-108 129zM48 505c0 34.667 6.33301 65 19 91s29.667 47.5 51 64.5s46.5 29.667 75.5 38s59.833 12.5 92.5 12.5s63.334 -4.16699 92.001 -12.5s53.667 -21 75 -38s38.166 -38.5 50.499 -64.5s18.5 -56.333 18.5 -91v-309
c0 -35.333 -6.16699 -65.833 -18.5 -91.5s-29.166 -47.167 -50.499 -64.5s-46.333 -30.166 -75 -38.499s-59.334 -12.5 -92.001 -12.5s-63.5 4.16699 -92.5 12.5s-54.167 21.166 -75.5 38.499s-38.333 38.833 -51 64.5s-19 56.167 -19 91.5v309zM178 211
c0 -21.333 2.83301 -39.166 8.5 -53.499s13.5 -25.833 23.5 -34.5s21.5 -14.834 34.5 -18.501s26.833 -5.5 41.5 -5.5s28.5 1.83301 41.5 5.5s24.333 9.83398 34 18.501s17.334 20.167 23.001 34.5s8.5 32.166 8.5 53.499v278c0 21.333 -2.83301 39.166 -8.5 53.499
s-13.334 25.833 -23.001 34.5s-21 14.834 -34 18.501s-26.833 5.5 -41.5 5.5s-28.5 -1.83301 -41.5 -5.5s-24.5 -9.83398 -34.5 -18.501s-17.833 -20.167 -23.5 -34.5s-8.5 -32.166 -8.5 -53.499v-278z" />
    <glyph glyph-name="Oacute" unicode="&#xd3;" horiz-adv-x="571" 
d="M330 922l91 -48l-104 -125l-62 31zM48 505c0 34.667 6.33301 65 19 91s29.667 47.5 51 64.5s46.5 29.667 75.5 38s59.833 12.5 92.5 12.5s63.334 -4.16699 92.001 -12.5s53.667 -21 75 -38s38.166 -38.5 50.499 -64.5s18.5 -56.333 18.5 -91v-309
c0 -35.333 -6.16699 -65.833 -18.5 -91.5s-29.166 -47.167 -50.499 -64.5s-46.333 -30.166 -75 -38.499s-59.334 -12.5 -92.001 -12.5s-63.5 4.16699 -92.5 12.5s-54.167 21.166 -75.5 38.499s-38.333 38.833 -51 64.5s-19 56.167 -19 91.5v309zM178 211
c0 -21.333 2.83301 -39.166 8.5 -53.499s13.5 -25.833 23.5 -34.5s21.5 -14.834 34.5 -18.501s26.833 -5.5 41.5 -5.5s28.5 1.83301 41.5 5.5s24.333 9.83398 34 18.501s17.334 20.167 23.001 34.5s8.5 32.166 8.5 53.499v278c0 21.333 -2.83301 39.166 -8.5 53.499
s-13.334 25.833 -23.001 34.5s-21 14.834 -34 18.501s-26.833 5.5 -41.5 5.5s-28.5 -1.83301 -41.5 -5.5s-24.5 -9.83398 -34.5 -18.501s-17.833 -20.167 -23.5 -34.5s-8.5 -32.166 -8.5 -53.499v-278z" />
    <glyph glyph-name="Ocircumflex" unicode="&#xd4;" horiz-adv-x="571" 
d="M239 888h98l91 -132h-102l-39 69l-37 -69h-104zM48 505c0 34.667 6.33301 65 19 91s29.667 47.5 51 64.5s46.5 29.667 75.5 38s59.833 12.5 92.5 12.5s63.334 -4.16699 92.001 -12.5s53.667 -21 75 -38s38.166 -38.5 50.499 -64.5s18.5 -56.333 18.5 -91v-309
c0 -35.333 -6.16699 -65.833 -18.5 -91.5s-29.166 -47.167 -50.499 -64.5s-46.333 -30.166 -75 -38.499s-59.334 -12.5 -92.001 -12.5s-63.5 4.16699 -92.5 12.5s-54.167 21.166 -75.5 38.499s-38.333 38.833 -51 64.5s-19 56.167 -19 91.5v309zM178 211
c0 -21.333 2.83301 -39.166 8.5 -53.499s13.5 -25.833 23.5 -34.5s21.5 -14.834 34.5 -18.501s26.833 -5.5 41.5 -5.5s28.5 1.83301 41.5 5.5s24.333 9.83398 34 18.501s17.334 20.167 23.001 34.5s8.5 32.166 8.5 53.499v278c0 21.333 -2.83301 39.166 -8.5 53.499
s-13.334 25.833 -23.001 34.5s-21 14.834 -34 18.501s-26.833 5.5 -41.5 5.5s-28.5 -1.83301 -41.5 -5.5s-24.5 -9.83398 -34.5 -18.501s-17.833 -20.167 -23.5 -34.5s-8.5 -32.166 -8.5 -53.499v-278z" />
    <glyph glyph-name="Otilde" unicode="&#xd5;" horiz-adv-x="571" 
d="M48 505c0 34.667 6.33301 65 19 91s29.667 47.5 51 64.5s46.5 29.667 75.5 38s59.833 12.5 92.5 12.5s63.334 -4.16699 92.001 -12.5s53.667 -21 75 -38s38.166 -38.5 50.499 -64.5s18.5 -56.333 18.5 -91v-309c0 -35.333 -6.16699 -65.833 -18.5 -91.5
s-29.166 -47.167 -50.499 -64.5s-46.333 -30.166 -75 -38.499s-59.334 -12.5 -92.001 -12.5s-63.5 4.16699 -92.5 12.5s-54.167 21.166 -75.5 38.499s-38.333 38.833 -51 64.5s-19 56.167 -19 91.5v309zM178 211c0 -21.333 2.83301 -39.166 8.5 -53.499
s13.5 -25.833 23.5 -34.5s21.5 -14.834 34.5 -18.501s26.833 -5.5 41.5 -5.5s28.5 1.83301 41.5 5.5s24.333 9.83398 34 18.501s17.334 20.167 23.001 34.5s8.5 32.166 8.5 53.499v278c0 21.333 -2.83301 39.166 -8.5 53.499s-13.334 25.833 -23.001 34.5
s-21 14.834 -34 18.501s-26.833 5.5 -41.5 5.5s-28.5 -1.83301 -41.5 -5.5s-24.5 -9.83398 -34.5 -18.501s-17.833 -20.167 -23.5 -34.5s-8.5 -32.166 -8.5 -53.499v-278zM106 765c0 38 8.33203 68.999 24.999 92.999s42 36 76 36c16.667 0 32 -2.33301 46 -7
s26.833 -9.83398 38.5 -15.501l32 -15.5c9.66699 -4.66699 18.5 -7 26.5 -7c12 0 20.333 4 25 12s7.33398 18.667 8.00098 32h84c0 -38 -8.5 -69 -25.5 -93s-42.5 -36 -76.5 -36c-16 0 -30.667 2.33301 -44 7s-25.5 9.83398 -36.5 15.501s-21.5 10.834 -31.5 15.501
s-20 7 -30 7c-12 0 -20.5 -4 -25.5 -12s-7.5 -18.667 -7.5 -32h-84z" />
    <glyph glyph-name="Odieresis" unicode="&#xd6;" horiz-adv-x="571" 
d="M239 818c0 -20.667 -5 -37.5 -15 -50.5s-26.333 -19.5 -49 -19.5c-22 0 -38 6.5 -48 19.5s-15 29.833 -15 50.5s5 37.667 15 51s26 20 48 20c22.667 0 39 -6.66699 49 -20s15 -30.333 15 -51zM460 818c0 -20.667 -5 -37.5 -15 -50.5s-26.333 -19.5 -49 -19.5
c-21.333 0 -37 6.5 -47 19.5s-15 29.833 -15 50.5s5 37.667 15 51s25.667 20 47 20c22.667 0 39 -6.66699 49 -20s15 -30.333 15 -51zM48 505c0 34.667 6.33301 65 19 91s29.667 47.5 51 64.5s46.5 29.667 75.5 38s59.833 12.5 92.5 12.5s63.334 -4.16699 92.001 -12.5
s53.667 -21 75 -38s38.166 -38.5 50.499 -64.5s18.5 -56.333 18.5 -91v-309c0 -35.333 -6.16699 -65.833 -18.5 -91.5s-29.166 -47.167 -50.499 -64.5s-46.333 -30.166 -75 -38.499s-59.334 -12.5 -92.001 -12.5s-63.5 4.16699 -92.5 12.5s-54.167 21.166 -75.5 38.499
s-38.333 38.833 -51 64.5s-19 56.167 -19 91.5v309zM178 211c0 -21.333 2.83301 -39.166 8.5 -53.499s13.5 -25.833 23.5 -34.5s21.5 -14.834 34.5 -18.501s26.833 -5.5 41.5 -5.5s28.5 1.83301 41.5 5.5s24.333 9.83398 34 18.501s17.334 20.167 23.001 34.5
s8.5 32.166 8.5 53.499v278c0 21.333 -2.83301 39.166 -8.5 53.499s-13.334 25.833 -23.001 34.5s-21 14.834 -34 18.501s-26.833 5.5 -41.5 5.5s-28.5 -1.83301 -41.5 -5.5s-24.5 -9.83398 -34.5 -18.501s-17.833 -20.167 -23.5 -34.5s-8.5 -32.166 -8.5 -53.499v-278z" />
    <glyph glyph-name="multiply" unicode="&#xd7;" horiz-adv-x="616" 
d="M378 339l196 -179l-69 -63l-197 178l-197 -178l-69 63l196 179l-196 178l69 64l197 -178l197 178l69 -64z" />
    <glyph glyph-name="Oslash" unicode="&#xd8;" horiz-adv-x="571" 
d="M2 162l46.002 40.999v302c0 34.667 6.33301 65 19 91s29.667 47.5 51 64.5s46.5 29.667 75.5 38s59.833 12.5 92.5 12.5c46 0 87.833 -8.33301 125.5 -25s66.167 -42 85.5 -76l74 67v-152l-47 -42v-287c0 -35.333 -6.33301 -65.833 -19 -91.5s-29.667 -47.167 -51 -64.5
s-46.5 -30.166 -75.5 -38.499s-59.833 -12.5 -92.5 -12.5c-44.667 0 -85.334 7.66699 -122.001 23s-65.334 39 -86.001 71l-76 -69v148zM178.002 320.999l213.001 192.999c-4.66699 32.667 -16.834 55.334 -36.501 68.001s-42.5 19 -68.5 19
c-14.667 0 -28.5 -1.83301 -41.5 -5.5s-24.5 -9.83398 -34.5 -18.501s-17.833 -20.167 -23.5 -34.5s-8.5 -32.166 -8.5 -53.499v-168zM286.003 99.998c14.667 0 28.499 1.83301 41.499 5.5s24.333 9.83398 34 18.501s17.334 20.167 23.001 34.5s8.5 32.166 8.5 53.499v153
l-212 -190c6.66699 -28 19.5 -47.5 38.5 -58.5s41.167 -16.5 66.5 -16.5z" />
    <glyph glyph-name="Ugrave" unicode="&#xd9;" horiz-adv-x="561" 
d="M179 201c0 -20.667 2.33496 -37.4971 7.00195 -50.4971s11.167 -23.333 19.5 -31s18.5 -12.834 30.5 -15.501s25.333 -4 40 -4c21.333 0 41.666 5.66699 60.999 17s33.666 24.666 42.999 39.999v543h130v-700h-77l-33 60c-8 -10 -18 -19.167 -30 -27.5
s-25.333 -15.833 -40 -22.5s-30.167 -11.834 -46.5 -15.501s-32.5 -5.5 -48.5 -5.5c-64.667 0 -112 16.167 -142 48.5s-45 83.5 -45 153.5v509h131v-499zM257.002 930.003l78 -147l-58 -36l-108 129z" />
    <glyph glyph-name="Uacute" unicode="&#xda;" horiz-adv-x="561" 
d="M311 926l91 -48l-104 -125l-62 31zM179 201c0 -20.667 2.33496 -37.4971 7.00195 -50.4971s11.167 -23.333 19.5 -31s18.5 -12.834 30.5 -15.501s25.333 -4 40 -4c21.333 0 41.666 5.66699 60.999 17s33.666 24.666 42.999 39.999v543h130v-700h-77l-33 60
c-8 -10 -18 -19.167 -30 -27.5s-25.333 -15.833 -40 -22.5s-30.167 -11.834 -46.5 -15.501s-32.5 -5.5 -48.5 -5.5c-64.667 0 -112 16.167 -142 48.5s-45 83.5 -45 153.5v509h131v-499z" />
    <glyph glyph-name="Ucircumflex" unicode="&#xdb;" horiz-adv-x="561" 
d="M231 888h98l91 -132h-102l-39 69l-37 -69h-104zM179 201c0 -20.667 2.33496 -37.4971 7.00195 -50.4971s11.167 -23.333 19.5 -31s18.5 -12.834 30.5 -15.501s25.333 -4 40 -4c21.333 0 41.666 5.66699 60.999 17s33.666 24.666 42.999 39.999v543h130v-700h-77l-33 60
c-8 -10 -18 -19.167 -30 -27.5s-25.333 -15.833 -40 -22.5s-30.167 -11.834 -46.5 -15.501s-32.5 -5.5 -48.5 -5.5c-64.667 0 -112 16.167 -142 48.5s-45 83.5 -45 153.5v509h131v-499z" />
    <glyph glyph-name="Udieresis" unicode="&#xdc;" horiz-adv-x="561" 
d="M232 818c0 -20.667 -5 -37.5 -15 -50.5s-26.333 -19.5 -49 -19.5c-22 0 -38 6.5 -48 19.5s-15 29.833 -15 50.5s5 37.667 15 51s26 20 48 20c22.667 0 39 -6.66699 49 -20s15 -30.333 15 -51zM453 818c0 -20.667 -5 -37.5 -15 -50.5s-26.333 -19.5 -49 -19.5
c-21.333 0 -37 6.5 -47 19.5s-15 29.833 -15 50.5s5 37.667 15 51s25.667 20 47 20c22.667 0 39 -6.66699 49 -20s15 -30.333 15 -51zM179 201c0 -20.667 2.33496 -37.4971 7.00195 -50.4971s11.167 -23.333 19.5 -31s18.5 -12.834 30.5 -15.501s25.333 -4 40 -4
c21.333 0 41.666 5.66699 60.999 17s33.666 24.666 42.999 39.999v543h130v-700h-77l-33 60c-8 -10 -18 -19.167 -30 -27.5s-25.333 -15.833 -40 -22.5s-30.167 -11.834 -46.5 -15.501s-32.5 -5.5 -48.5 -5.5c-64.667 0 -112 16.167 -142 48.5s-45 83.5 -45 153.5v509h131
v-499z" />
    <glyph glyph-name="Yacute" unicode="&#xdd;" horiz-adv-x="608" 
d="M148 700l116.001 -227c12.667 -26.667 22.5 -48.667 29.5 -66s11.167 -28 12.5 -32c1.33301 4 5.16602 14.5 11.499 31.5s16.5 39.167 30.5 66.5l115 227h144l-238 -429v-271h-130v269l-239 431h148zM341.001 926l91 -48l-104 -125l-62 31z" />
    <glyph glyph-name="Thorn" unicode="&#xde;" horiz-adv-x="540" 
d="M52 700l131 0.00195312v-116h101c66.667 0 119.5 -18.333 158.5 -55s58.5 -89.334 58.5 -158.001v-42c0 -68.667 -19.5 -121.334 -58.5 -158.001s-91.833 -55 -158.5 -55h-101v-116h-131v700zM284 224.002c28 0 49.333 9.16699 64 27.5s22 47.833 22 88.5v20
c0 40.667 -7.33301 70 -22 88s-36 27 -64 27h-101v-251h101z" />
    <glyph glyph-name="germandbls" unicode="&#xdf;" horiz-adv-x="530" 
d="M64 359l-55.0029 0.00683594v102h55v89c0 65.333 15.833 116.666 47.5 153.999s77.834 56 138.501 56c24.667 0 48.167 -3.16699 70.5 -9.5s41.833 -15.833 58.5 -28.5s29.834 -28.334 39.501 -47.001s14.5 -40.334 14.5 -65.001c0 -24 -4 -44.833 -12 -62.5
s-17 -34 -27 -49s-19 -29.333 -27 -43s-12 -28.5 -12 -44.5c0 -14 3.66699 -27 11 -39s16.333 -24 27 -36s22.334 -24.333 35.001 -37s24.334 -26.667 35.001 -42s19.667 -32.5 27 -51.5s11 -40.167 11 -63.5c0 -22 -3.33301 -42.5 -10 -61.5s-17 -35.5 -31 -49.5
s-32.333 -25 -55 -33s-50 -12 -82 -12c-13.333 0 -27.833 1.33301 -43.5 4s-29.167 6.33398 -40.5 11.001v100c11.333 -4 24.666 -6.83301 39.999 -8.5s26.333 -2.5 33 -2.5c16.667 0 32.167 5.16699 46.5 15.5s21.5 26.166 21.5 47.499c0 14 -3.33301 26.833 -10 38.5
s-15.167 23.167 -25.5 34.5s-21.333 22.666 -33 33.999s-22.667 24.166 -33 38.499s-18.833 30.333 -25.5 48s-10 38.5 -10 62.5c0 20.667 3.83301 38.667 11.5 54s16.167 30.166 25.5 44.499s17.833 28.666 25.5 42.999s11.5 30.833 11.5 49.5c0 16 -5 29.833 -15 41.5
s-26.333 17.5 -49 17.5c-24 0 -40.833 -9 -50.5 -27s-14.5 -43 -14.5 -75v-557h-124v359z" />
    <glyph glyph-name="agrave" unicode="&#xe0;" horiz-adv-x="507" 
d="M330 407c-7.33301 16 -19.166 30 -35.499 42s-34.166 18 -53.499 18c-25.333 0 -42.666 -7.16699 -51.999 -21.5s-14 -38.833 -14 -73.5v-184c0 -34.667 4.66699 -59.167 14 -73.5s26.666 -21.5 51.999 -21.5c19.333 0 37.166 6 53.499 18s28.166 26 35.499 42v254z
M454 560v-559.998h-76l-32 56c-14.667 -18.667 -33.334 -34.334 -56.001 -47.001s-49 -19 -79 -19c-54 0 -94.167 16.333 -120.5 49s-39.5 79 -39.5 139v205c0 60 13.167 106.167 39.5 138.5s66.5 48.5 120.5 48.5c30 0 56.333 -6.33301 79 -19
s41.334 -28.334 56.001 -47.001l32 56h76zM242 790.002l78 -147l-58 -36l-108 129z" />
    <glyph glyph-name="aacute" unicode="&#xe1;" horiz-adv-x="507" 
d="M330 407c-7.33301 16 -19.166 30 -35.499 42s-34.166 18 -53.499 18c-25.333 0 -42.666 -7.16699 -51.999 -21.5s-14 -38.833 -14 -73.5v-184c0 -34.667 4.66699 -59.167 14 -73.5s26.666 -21.5 51.999 -21.5c19.333 0 37.166 6 53.499 18s28.166 26 35.499 42v254z
M454 560v-559.998h-76l-32 56c-14.667 -18.667 -33.334 -34.334 -56.001 -47.001s-49 -19 -79 -19c-54 0 -94.167 16.333 -120.5 49s-39.5 79 -39.5 139v205c0 60 13.167 106.167 39.5 138.5s66.5 48.5 120.5 48.5c30 0 56.333 -6.33301 79 -19
s41.334 -28.334 56.001 -47.001l32 56h76zM301 786.002l91 -48l-104 -125l-62 31z" />
    <glyph glyph-name="acircumflex" unicode="&#xe2;" horiz-adv-x="507" 
d="M217 748h98l91 -132h-102l-39 69l-37 -69h-104zM330 407c-7.33301 16 -19.166 30 -35.499 42s-34.166 18 -53.499 18c-25.333 0 -42.666 -7.16699 -51.999 -21.5s-14 -38.833 -14 -73.5v-184c0 -34.667 4.66699 -59.167 14 -73.5s26.666 -21.5 51.999 -21.5
c19.333 0 37.166 6 53.499 18s28.166 26 35.499 42v254zM454 560v-559.998h-76l-32 56c-14.667 -18.667 -33.334 -34.334 -56.001 -47.001s-49 -19 -79 -19c-54 0 -94.167 16.333 -120.5 49s-39.5 79 -39.5 139v205c0 60 13.167 106.167 39.5 138.5s66.5 48.5 120.5 48.5
c30 0 56.333 -6.33301 79 -19s41.334 -28.334 56.001 -47.001l32 56h76z" />
    <glyph glyph-name="atilde" unicode="&#xe3;" horiz-adv-x="507" 
d="M330 407c-7.33301 16 -19.166 30 -35.499 42s-34.166 18 -53.499 18c-25.333 0 -42.666 -7.16699 -51.999 -21.5s-14 -38.833 -14 -73.5v-184c0 -34.667 4.66699 -59.167 14 -73.5s26.666 -21.5 51.999 -21.5c19.333 0 37.166 6 53.499 18s28.166 26 35.499 42v254z
M454 560v-559.998h-76l-32 56c-14.667 -18.667 -33.334 -34.334 -56.001 -47.001s-49 -19 -79 -19c-54 0 -94.167 16.333 -120.5 49s-39.5 79 -39.5 139v205c0 60 13.167 106.167 39.5 138.5s66.5 48.5 120.5 48.5c30 0 56.333 -6.33301 79 -19
s41.334 -28.334 56.001 -47.001l32 56h76zM81 625.002c0 38 8.33203 68.999 24.999 92.999s42 36 76 36c16.667 0 32 -2.33301 46 -7s26.833 -9.83398 38.5 -15.501l32 -15.5c9.66699 -4.66699 18.5 -7 26.5 -7c12 0 20.333 4 25 12s7.33398 18.667 8.00098 32h84
c0 -38 -8.5 -69 -25.5 -93s-42.5 -36 -76.5 -36c-16 0 -30.667 2.33301 -44 7s-25.5 9.83398 -36.5 15.501s-21.5 10.834 -31.5 15.501s-20 7 -30 7c-12 0 -20.5 -4 -25.5 -12s-7.5 -18.667 -7.5 -32h-84z" />
    <glyph glyph-name="adieresis" unicode="&#xe4;" horiz-adv-x="495" 
d="M374 608c-21.333 0 -36.833 6.16699 -46.5 18.5s-14.5 29.166 -14.5 50.499s4.83301 38.5 14.5 51.5s25.167 19.5 46.5 19.5c22.667 0 39 -6.5 49 -19.5s15 -30.167 15 -51.5s-5 -38.166 -15 -50.499s-26.333 -18.5 -49 -18.5zM162 608
c-21.333 0 -36.833 6.16699 -46.5 18.5s-14.5 29.166 -14.5 50.499s4.83301 38.5 14.5 51.5s25.167 19.5 46.5 19.5s37.333 -6.5 48 -19.5s16 -30.167 16 -51.5s-5.33301 -38.166 -16 -50.499s-26.667 -18.5 -48 -18.5zM330 407c-7.33301 16 -19.166 30 -35.499 42
s-34.166 18 -53.499 18c-25.333 0 -42.666 -7.16699 -51.999 -21.5s-14 -38.833 -14 -73.5v-184c0 -34.667 4.66699 -59.167 14 -73.5s26.666 -21.5 51.999 -21.5c19.333 0 37.166 6 53.499 18s28.166 26 35.499 42v254zM454 560v-559.998h-76l-32 56
c-14.667 -18.667 -33.334 -34.334 -56.001 -47.001s-49 -19 -79 -19c-54 0 -94.167 16.333 -120.5 49s-39.5 79 -39.5 139v205c0 60 13.167 106.167 39.5 138.5s66.5 48.5 120.5 48.5c30 0 56.333 -6.33301 79 -19s41.334 -28.334 56.001 -47.001l32 56h76z" />
    <glyph glyph-name="aring" unicode="&#xe5;" horiz-adv-x="504" 
d="M184 693c0 23.333 7.5 42.166 22.5 56.499s33.167 21.5 54.5 21.5c23.333 0 42.5 -7.16699 57.5 -21.5s22.5 -33.166 22.5 -56.499v-10c0 -25.333 -7.5 -44.833 -22.5 -58.5s-34.167 -20.5 -57.5 -20.5c-21.333 0 -39.5 6.83301 -54.5 20.5s-22.5 33.167 -22.5 58.5v10z
M261 650c19.333 0 29 12.333 29 37s-9.66699 37 -29 37c-18 0 -27 -12.333 -27 -37s9 -37 27 -37zM330 407c-7.33301 16 -19.166 30 -35.499 42s-34.166 18 -53.499 18c-25.333 0 -42.666 -7.16699 -51.999 -21.5s-14 -38.833 -14 -73.5v-184
c0 -34.667 4.66699 -59.167 14 -73.5s26.666 -21.5 51.999 -21.5c19.333 0 37.166 6 53.499 18s28.166 26 35.499 42v254zM454 560v-559.998h-76l-32 56c-14.667 -18.667 -33.334 -34.334 -56.001 -47.001s-49 -19 -79 -19c-54 0 -94.167 16.333 -120.5 49
s-39.5 79 -39.5 139v205c0 60 13.167 106.167 39.5 138.5s66.5 48.5 120.5 48.5c30 0 56.333 -6.33301 79 -19s41.334 -28.334 56.001 -47.001l32 56h76z" />
    <glyph glyph-name="ae" unicode="&#xe6;" horiz-adv-x="783" 
d="M455 234l0.000976562 -41c-0.666992 -19.333 1.33301 -35.5 6 -48.5s11 -23.5 19 -31.5s17.667 -13.667 29 -17s23.666 -5 36.999 -5c29.333 0 58.833 3 88.5 9s56.5 13.667 80.5 23v-95c-25.333 -12 -54.333 -21.333 -87 -28s-66.667 -10 -102 -10
c-77.333 0 -132.333 24.667 -165 74c-17.333 -23.333 -38.5 -41.5 -63.5 -54.5s-52.5 -19.5 -82.5 -19.5c-54 0 -94.833 16.5 -122.5 49.5s-41.5 80.167 -41.5 141.5v193c0 65.333 14 114.333 42 147s74.333 49 139 49c32 0 61 -2.83301 87 -8.5s51.667 -15.167 77 -28.5
c18 13.333 38.5 22.833 61.5 28.5s48.167 8.5 75.5 8.5c63.333 0 113.333 -15.333 150 -46s55 -78.667 55 -144v-146h-283zM330.001 454c-14.667 5.33301 -29 9 -43 11s-29 3 -45 3c-21.333 0 -37.833 -6.33301 -49.5 -19s-17.5 -36 -17.5 -70v-187c0 -36 5 -61.5 15 -76.5
s27.667 -22.5 53 -22.5c19.333 0 36.5 5.5 51.5 16.5s26.833 24.5 35.5 40.5v304zM614.001 369c0 38 -6.66699 64 -20 78s-33 21 -59 21s-46 -5.66699 -60 -17s-21 -29 -21 -53v-74h160v45z" />
    <glyph glyph-name="ccedilla" unicode="&#xe7;" horiz-adv-x="414" 
d="M380 446c-41.333 16 -79.667 24.001 -115 24.001c-30 0 -52.667 -7.5 -68 -22.5s-23 -42.167 -23 -81.5v-173c0 -38.667 8.5 -65.334 25.5 -80.001s38.833 -22 65.5 -22c37.333 0 75.666 7.66699 114.999 23v-94c-17.333 -8 -34.666 -14.5 -51.999 -19.5
s-35.666 -8.16699 -54.999 -9.5l-8 -24c15.333 -4 28.5 -11 39.5 -21s16.5 -24 16.5 -42c0 -14 -3.16699 -25.5 -9.5 -34.5s-14.5 -16.333 -24.5 -22s-21.167 -9.5 -33.5 -11.5s-24.166 -3 -35.499 -3c-21.333 0 -41 3 -59 9v46c4.66699 -1.33301 10.167 -2.5 16.5 -3.5
s12.166 -1.5 17.499 -1.5c10 0 18.167 2.16699 24.5 6.5s9.5 10.5 9.5 18.5c0 7.33301 -3 13 -9 17s-12.667 6.66699 -20 8c-8 2 -17.333 2.33301 -28 1l24 61c-46.667 7.33301 -82.334 25 -107.001 53s-37 70 -37 126v212c0 62.667 17.5 109 52.5 139s84.833 45 149.5 45
c24 0 46.167 -2.5 66.5 -7.5s40.833 -12.167 61.5 -21.5v-95v0z" />
    <glyph glyph-name="egrave" unicode="&#xe8;" horiz-adv-x="502" 
d="M174 193c0 -19.333 2.16699 -35.499 6.5 -48.499s10.5 -23.5 18.5 -31.5s17.5 -13.667 28.5 -17s23.167 -5 36.5 -5c26 0 54.5 3 85.5 9s58.833 13.667 83.5 23v-94c-24 -12.667 -51.5 -22.334 -82.5 -29.001s-63.5 -10 -97.5 -10c-64.667 0 -114.667 14.167 -150 42.5
s-53 75.5 -53 141.5v206c0 66 18 114.167 54 144.5s85.333 45.5 148 45.5c31.333 0 59.666 -3.83301 84.999 -11.5s46.833 -19.167 64.5 -34.5s31.334 -35 41.001 -59s14.5 -52.333 14.5 -85v-146h-283v-41zM332 321.001v55c0 38 -6.5 64.167 -19.5 78.5
s-32.833 21.5 -59.5 21.5c-26 0 -45.833 -7 -59.5 -21s-20.5 -40.333 -20.5 -79v-55h159zM224 790.001l78 -147l-58 -36l-108 129z" />
    <glyph glyph-name="eacute" unicode="&#xe9;" horiz-adv-x="502" 
d="M284 786l91 -48l-104 -125l-62 31zM174 193c0 -19.333 2.16699 -35.499 6.5 -48.499s10.5 -23.5 18.5 -31.5s17.5 -13.667 28.5 -17s23.167 -5 36.5 -5c26 0 54.5 3 85.5 9s58.833 13.667 83.5 23v-94c-24 -12.667 -51.5 -22.334 -82.5 -29.001s-63.5 -10 -97.5 -10
c-64.667 0 -114.667 14.167 -150 42.5s-53 75.5 -53 141.5v206c0 66 18 114.167 54 144.5s85.333 45.5 148 45.5c31.333 0 59.666 -3.83301 84.999 -11.5s46.833 -19.167 64.5 -34.5s31.334 -35 41.001 -59s14.5 -52.333 14.5 -85v-146h-283v-41zM332 321.001v55
c0 38 -6.5 64.167 -19.5 78.5s-32.833 21.5 -59.5 21.5c-26 0 -45.833 -7 -59.5 -21s-20.5 -40.333 -20.5 -79v-55h159z" />
    <glyph glyph-name="ecircumflex" unicode="&#xea;" horiz-adv-x="502" 
d="M202 748h98l91 -132h-102l-39 69l-37 -69h-104zM174 193c0 -19.333 2.16699 -35.499 6.5 -48.499s10.5 -23.5 18.5 -31.5s17.5 -13.667 28.5 -17s23.167 -5 36.5 -5c26 0 54.5 3 85.5 9s58.833 13.667 83.5 23v-94c-24 -12.667 -51.5 -22.334 -82.5 -29.001
s-63.5 -10 -97.5 -10c-64.667 0 -114.667 14.167 -150 42.5s-53 75.5 -53 141.5v206c0 66 18 114.167 54 144.5s85.333 45.5 148 45.5c31.333 0 59.666 -3.83301 84.999 -11.5s46.833 -19.167 64.5 -34.5s31.334 -35 41.001 -59s14.5 -52.333 14.5 -85v-146h-283v-41z
M332 321.001v55c0 38 -6.5 64.167 -19.5 78.5s-32.833 21.5 -59.5 21.5c-26 0 -45.833 -7 -59.5 -21s-20.5 -40.333 -20.5 -79v-55h159z" />
    <glyph glyph-name="edieresis" unicode="&#xeb;" horiz-adv-x="502" 
d="M215 678c0 -20.667 -5 -37.5 -15 -50.5s-26.333 -19.5 -49 -19.5c-22 0 -38 6.5 -48 19.5s-15 29.833 -15 50.5s5 37.667 15 51s26 20 48 20c22.667 0 39 -6.66699 49 -20s15 -30.333 15 -51zM436 678c0 -20.667 -5 -37.5 -15 -50.5s-26.333 -19.5 -49 -19.5
c-21.333 0 -37 6.5 -47 19.5s-15 29.833 -15 50.5s5 37.667 15 51s25.667 20 47 20c22.667 0 39 -6.66699 49 -20s15 -30.333 15 -51zM174 193c0 -19.333 2.16699 -35.499 6.5 -48.499s10.5 -23.5 18.5 -31.5s17.5 -13.667 28.5 -17s23.167 -5 36.5 -5c26 0 54.5 3 85.5 9
s58.833 13.667 83.5 23v-94c-24 -12.667 -51.5 -22.334 -82.5 -29.001s-63.5 -10 -97.5 -10c-64.667 0 -114.667 14.167 -150 42.5s-53 75.5 -53 141.5v206c0 66 18 114.167 54 144.5s85.333 45.5 148 45.5c31.333 0 59.666 -3.83301 84.999 -11.5
s46.833 -19.167 64.5 -34.5s31.334 -35 41.001 -59s14.5 -52.333 14.5 -85v-146h-283v-41zM332 321.001v55c0 38 -6.5 64.167 -19.5 78.5s-32.833 21.5 -59.5 21.5c-26 0 -45.833 -7 -59.5 -21s-20.5 -40.333 -20.5 -79v-55h159z" />
    <glyph glyph-name="igrave" unicode="&#xec;" horiz-adv-x="232" 
d="M178 560v-560h-124v560h124zM85 790l78 -147l-58 -36l-108 129z" />
    <glyph glyph-name="iacute" unicode="&#xed;" horiz-adv-x="232" 
d="M153 786l91 -48l-104 -125l-62 31zM178 560v-560h-124v560h124z" />
    <glyph glyph-name="icircumflex" unicode="&#xee;" horiz-adv-x="232" 
d="M68 748h98l91 -132h-102l-39 69l-37 -69h-104zM178 560v-560h-124v560h124z" />
    <glyph glyph-name="idieresis" unicode="&#xef;" horiz-adv-x="232" 
d="M24 609c-21.333 0 -36.833 6.33301 -46.5 19s-14.5 29.667 -14.5 51s4.83301 38.666 14.5 51.999s25.167 20 46.5 20c22 0 38.167 -6.66699 48.5 -20s15.5 -30.666 15.5 -51.999s-5.16699 -38.333 -15.5 -51s-26.5 -19 -48.5 -19zM207 609
c-21.333 0 -36.833 6.33301 -46.5 19s-14.5 29.667 -14.5 51s4.83301 38.666 14.5 51.999s25.167 20 46.5 20c22 0 38.167 -6.66699 48.5 -20s15.5 -30.666 15.5 -51.999s-5.16699 -38.333 -15.5 -51s-26.5 -19 -48.5 -19zM178 560v-560h-124v560h124z" />
    <glyph glyph-name="eth" unicode="&#xf0;" horiz-adv-x="507" 
d="M52 318c0 61.333 13.6689 108.67 41.002 142.003s68 50 122 50c23.333 0 45.166 -4.83301 65.499 -14.5s39.166 -22.167 56.499 -37.5v49c0 12 -0.833008 23.5 -2.5 34.5s-4.16699 21.167 -7.5 30.5l-42 -38l-55 50l41 40c-4.66699 3.33301 -11.667 6.16602 -21 8.49902
s-18.666 3.5 -27.999 3.5c-24 0 -46 -2.66699 -66 -8v96c12 3.33301 25.167 6 39.5 8s28.166 3 41.499 3c24 0 46.167 -3 66.5 -9s38.5 -14 54.5 -24l57 50l56 -49l-55 -51c11.333 -14.667 20.5 -33.334 27.5 -56.001s10.5 -46.667 10.5 -72v-338
c0 -66 -18 -115.167 -54 -147.5s-85.333 -48.5 -148 -48.5c-64.667 0 -114.167 15.667 -148.5 47s-51.5 79.666 -51.5 144.999v136zM177.002 188.004c0 -38 6.33301 -64.333 19 -79s31.667 -22 57 -22s44.333 8.16699 57 24.5s19 43.5 19 81.5l1 154
c-7.33301 15.333 -19 29 -35 41s-33 18 -51 18c-25.333 0 -42.833 -7.5 -52.5 -22.5s-14.5 -39.5 -14.5 -73.5v-122z" />
    <glyph glyph-name="ntilde" unicode="&#xf1;" 
d="M69 625c0 38 8.33203 68.999 24.999 92.999s42 36 76 36c16.667 0 32 -2.33301 46 -7s26.833 -9.83398 38.5 -15.501l32 -15.5c9.66699 -4.66699 18.5 -7 26.5 -7c12 0 20.333 4 25 12s7.33398 18.667 8.00098 32h84c0 -38 -8.5 -69 -25.5 -93s-42.5 -36 -76.5 -36
c-16 0 -30.667 2.33301 -44 7s-25.5 9.83398 -36.5 15.501s-21.5 10.834 -31.5 15.501s-20 7 -30 7c-12 0 -20.5 -4 -25.5 -12s-7.5 -18.667 -7.5 -32h-84zM262.999 466.999c-17.333 0 -33.665 -5.33398 -48.998 -16.001s-27 -23.667 -35 -39v-412h-125v560h74l31 -56
c15.333 18.667 34 34.334 56 47.001s48.333 19 79 19c53.333 0 93.166 -16.167 119.499 -48.5s39.5 -78.5 39.5 -138.5v-383h-124v372c0 34.667 -4.83301 59.167 -14.5 73.5s-26.834 21.5 -51.501 21.5z" />
    <glyph glyph-name="ograve" unicode="&#xf2;" horiz-adv-x="504" 
d="M212 790l78 -147l-58 -36l-108 129zM173 188c0 -38.667 6.66699 -65.5 20 -80.5s33 -22.5 59 -22.5c25.333 0 44.833 7.5 58.5 22.5s20.5 41.833 20.5 80.5v184c0 39.333 -6.83301 66.333 -20.5 81s-33.167 22 -58.5 22c-26 0 -45.667 -7.33301 -59 -22
s-20 -41.667 -20 -81v-184zM48 380c0 65.333 18.168 113.333 54.501 144s86.166 46 149.499 46s113 -15.167 149 -45.5s54 -78.5 54 -144.5v-200c0 -65.333 -18 -113.333 -54 -144s-85.667 -46 -149 -46c-64 0 -114 15.333 -150 46s-54 78.667 -54 144v200z" />
    <glyph glyph-name="oacute" unicode="&#xf3;" horiz-adv-x="504" 
d="M294 786l91 -48l-104 -125l-62 31zM173 188c0 -38.667 6.66699 -65.5 20 -80.5s33 -22.5 59 -22.5c25.333 0 44.833 7.5 58.5 22.5s20.5 41.833 20.5 80.5v184c0 39.333 -6.83301 66.333 -20.5 81s-33.167 22 -58.5 22c-26 0 -45.667 -7.33301 -59 -22
s-20 -41.667 -20 -81v-184zM48 380c0 65.333 18.168 113.333 54.501 144s86.166 46 149.499 46s113 -15.167 149 -45.5s54 -78.5 54 -144.5v-200c0 -65.333 -18 -113.333 -54 -144s-85.667 -46 -149 -46c-64 0 -114 15.333 -150 46s-54 78.667 -54 144v200z" />
    <glyph glyph-name="ocircumflex" unicode="&#xf4;" horiz-adv-x="504" 
d="M202 748h98l91 -132h-102l-39 69l-37 -69h-104zM173 188c0 -38.667 6.66699 -65.5 20 -80.5s33 -22.5 59 -22.5c25.333 0 44.833 7.5 58.5 22.5s20.5 41.833 20.5 80.5v184c0 39.333 -6.83301 66.333 -20.5 81s-33.167 22 -58.5 22c-26 0 -45.667 -7.33301 -59 -22
s-20 -41.667 -20 -81v-184zM48 380c0 65.333 18.168 113.333 54.501 144s86.166 46 149.499 46s113 -15.167 149 -45.5s54 -78.5 54 -144.5v-200c0 -65.333 -18 -113.333 -54 -144s-85.667 -46 -149 -46c-64 0 -114 15.333 -150 46s-54 78.667 -54 144v200z" />
    <glyph glyph-name="otilde" unicode="&#xf5;" horiz-adv-x="504" 
d="M173 188c0 -38.667 6.66699 -65.5 20 -80.5s33 -22.5 59 -22.5c25.333 0 44.833 7.5 58.5 22.5s20.5 41.833 20.5 80.5v184c0 39.333 -6.83301 66.333 -20.5 81s-33.167 22 -58.5 22c-26 0 -45.667 -7.33301 -59 -22s-20 -41.667 -20 -81v-184zM48 380
c0 65.333 18.168 113.333 54.501 144s86.166 46 149.499 46s113 -15.167 149 -45.5s54 -78.5 54 -144.5v-200c0 -65.333 -18 -113.333 -54 -144s-85.667 -46 -149 -46c-64 0 -114 15.333 -150 46s-54 78.667 -54 144v200zM67.001 625c0 38 8.33203 68.999 24.999 92.999
s42 36 76 36c16.667 0 32 -2.33301 46 -7s26.833 -9.83398 38.5 -15.501l32 -15.5c9.66699 -4.66699 18.5 -7 26.5 -7c12 0 20.333 4 25 12s7.33398 18.667 8.00098 32h84c0 -38 -8.5 -69 -25.5 -93s-42.5 -36 -76.5 -36c-16 0 -30.667 2.33301 -44 7
s-25.5 9.83398 -36.5 15.501s-21.5 10.834 -31.5 15.501s-20 7 -30 7c-12 0 -20.5 -4 -25.5 -12s-7.5 -18.667 -7.5 -32h-84z" />
    <glyph glyph-name="odieresis" unicode="&#xf6;" horiz-adv-x="504" 
d="M204 678c0 -20.667 -5 -37.5 -15 -50.5s-26.333 -19.5 -49 -19.5c-22 0 -38 6.5 -48 19.5s-15 29.833 -15 50.5s5 37.667 15 51s26 20 48 20c22.667 0 39 -6.66699 49 -20s15 -30.333 15 -51zM425 678c0 -20.667 -5 -37.5 -15 -50.5s-26.333 -19.5 -49 -19.5
c-21.333 0 -37 6.5 -47 19.5s-15 29.833 -15 50.5s5 37.667 15 51s25.667 20 47 20c22.667 0 39 -6.66699 49 -20s15 -30.333 15 -51zM173 188c0 -38.667 6.66699 -65.5 20 -80.5s33 -22.5 59 -22.5c25.333 0 44.833 7.5 58.5 22.5s20.5 41.833 20.5 80.5v184
c0 39.333 -6.83301 66.333 -20.5 81s-33.167 22 -58.5 22c-26 0 -45.667 -7.33301 -59 -22s-20 -41.667 -20 -81v-184zM48 380c0 65.333 18.168 113.333 54.501 144s86.166 46 149.499 46s113 -15.167 149 -45.5s54 -78.5 54 -144.5v-200c0 -65.333 -18 -113.333 -54 -144
s-85.667 -46 -149 -46c-64 0 -114 15.333 -150 46s-54 78.667 -54 144v200z" />
    <glyph glyph-name="divide" unicode="&#xf7;" horiz-adv-x="530" 
d="M265 -13c-22 0 -39.5 5.83301 -52.5 17.5s-19.5 29.167 -19.5 52.5c0 24.667 6.5 42.834 19.5 54.501s30.5 17.5 52.5 17.5s39.833 -5.83301 53.5 -17.5s20.5 -29.834 20.5 -54.501c0 -23.333 -6.83301 -40.833 -20.5 -52.5s-31.5 -17.5 -53.5 -17.5zM42 324h448v-90
h-448v90zM339 498c0 -23.333 -6.83301 -40.833 -20.5 -52.5s-31.5 -17.5 -53.5 -17.5s-39.5 5.83301 -52.5 17.5s-19.5 29.167 -19.5 52.5c0 24.667 6.5 42.834 19.5 54.501s30.5 17.5 52.5 17.5s39.833 -5.83301 53.5 -17.5s20.5 -29.834 20.5 -54.501z" />
    <glyph glyph-name="oslash" unicode="&#xf8;" horiz-adv-x="503" 
d="M498 415l-42.998 -36v-199c0 -65.333 -18 -113.333 -54 -144s-85.667 -46 -149 -46c-42 0 -77.833 6.5 -107.5 19.5s-52.834 33.5 -69.501 61.5l-70 -57v132l43 35v199c0 65.333 18.167 113.333 54.5 144s86.166 46 149.499 46c41.333 0 77 -6.5 107 -19.5
s53 -33.5 69 -61.5l70 58v-132zM173.002 280l155.998 131c-5.33301 24 -14.666 40.667 -27.999 50s-29.666 14 -48.999 14c-26 0 -45.667 -7.33301 -59 -22s-20 -41.667 -20 -81v-92zM331 282l-156 -132.001c4 -23.333 12.167 -39.833 24.5 -49.5s29.833 -14.5 52.5 -14.5
c25.333 0 44.833 7.33301 58.5 22s20.5 41.334 20.5 80.001v94z" />
    <glyph glyph-name="ugrave" unicode="&#xf9;" horiz-adv-x="501" 
d="M240 93c18 0 34.5 5.33301 49.5 16s26.5 23.667 34.5 39v412h125v-560h-74l-32 56c-15.333 -18.667 -36 -34.334 -62 -47.001s-54 -19 -84 -19c-53.333 0 -91 14.333 -113 43s-33 71.334 -33 128.001v399h125v-375c0 -34.667 4.33301 -58.667 13 -72s25.667 -20 51 -20z
M223 790l78 -147l-58 -36l-108 129z" />
    <glyph glyph-name="uacute" unicode="&#xfa;" horiz-adv-x="501" 
d="M286 786l91 -48l-104 -125l-62 31zM240 93c18 0 34.5 5.33301 49.5 16s26.5 23.667 34.5 39v412h125v-560h-74l-32 56c-15.333 -18.667 -36 -34.334 -62 -47.001s-54 -19 -84 -19c-53.333 0 -91 14.333 -113 43s-33 71.334 -33 128.001v399h125v-375
c0 -34.667 4.33301 -58.667 13 -72s25.667 -20 51 -20z" />
    <glyph glyph-name="ucircumflex" unicode="&#xfb;" horiz-adv-x="501" 
d="M199 748h98l91 -132h-102l-39 69l-37 -69h-104zM240 93c18 0 34.5 5.33301 49.5 16s26.5 23.667 34.5 39v412h125v-560h-74l-32 56c-15.333 -18.667 -36 -34.334 -62 -47.001s-54 -19 -84 -19c-53.333 0 -91 14.333 -113 43s-33 71.334 -33 128.001v399h125v-375
c0 -34.667 4.33301 -58.667 13 -72s25.667 -20 51 -20z" />
    <glyph glyph-name="udieresis" unicode="&#xfc;" horiz-adv-x="501" 
d="M200 678c0 -20.667 -5 -37.5 -15 -50.5s-26.333 -19.5 -49 -19.5c-22 0 -38 6.5 -48 19.5s-15 29.833 -15 50.5s5 37.667 15 51s26 20 48 20c22.667 0 39 -6.66699 49 -20s15 -30.333 15 -51zM421 678c0 -20.667 -5 -37.5 -15 -50.5s-26.333 -19.5 -49 -19.5
c-21.333 0 -37 6.5 -47 19.5s-15 29.833 -15 50.5s5 37.667 15 51s25.667 20 47 20c22.667 0 39 -6.66699 49 -20s15 -30.333 15 -51zM240 93c18 0 34.5 5.33301 49.5 16s26.5 23.667 34.5 39v412h125v-560h-74l-32 56c-15.333 -18.667 -36 -34.334 -62 -47.001
s-54 -19 -84 -19c-53.333 0 -91 14.333 -113 43s-33 71.334 -33 128.001v399h125v-375c0 -34.667 4.33301 -58.667 13 -72s25.667 -20 51 -20z" />
    <glyph glyph-name="yacute" unicode="&#xfd;" 
d="M329 560l124.001 0.000976562v-554c0 -32.667 -4.5 -59.667 -13.5 -81s-22.167 -38.333 -39.5 -51s-38.5 -21.5 -63.5 -26.5s-53.5 -7.5 -85.5 -7.5c-33.333 0 -63.666 2.83301 -90.999 8.5s-52.666 13.5 -75.999 23.5v97c23.333 -10 48.166 -18 74.499 -24
s53.5 -9 81.5 -9c12 0 23.5 1 34.5 3s20.5 6.16699 28.5 12.5s14.333 15.333 19 27s7 26.834 7 45.501v40c-14.667 -14 -31.834 -25.667 -51.501 -35s-42.167 -14 -67.5 -14c-54 0 -94 16.333 -120 49s-39 79 -39 139v357h124v-346c0 -34.667 4.66699 -59.334 14 -74.001
s26.666 -22 51.999 -22c18.667 0 36 6.16699 52 18.5s28 26.166 36 41.499v382zM275.001 786.001l91 -48l-104 -125l-62 31z" />
    <glyph glyph-name="thorn" unicode="&#xfe;" horiz-adv-x="507" 
d="M179 521c14 14.667 31.167 26.5 51.5 35.5s42.5 13.5 66.5 13.5c54 0 94.167 -16.167 120.5 -48.5s39.5 -78.5 39.5 -138.5v-205c0 -60 -13.167 -106.333 -39.5 -139s-66.5 -49 -120.5 -49c-24 0 -46.167 4.5 -66.5 13.5s-37.5 20.833 -51.5 35.5v-189h-125v884l125 19
v-232zM267 467c-19.333 0 -36.833 -6 -52.5 -18s-27.5 -26 -35.5 -42v-254c8 -16 19.833 -30 35.5 -42s33.167 -18 52.5 -18c25.333 0 42.666 7.16699 51.999 21.5s14 38.833 14 73.5v184c0 34.667 -4.66699 59.167 -14 73.5s-26.666 21.5 -51.999 21.5z" />
    <glyph glyph-name="ydieresis" unicode="&#xff;" 
d="M204 678c0 -20.667 -5 -37.5 -15 -50.5s-26.333 -19.5 -49 -19.5c-22 0 -38 6.5 -48 19.5s-15 29.833 -15 50.5s5 37.667 15 51s26 20 48 20c22.667 0 39 -6.66699 49 -20s15 -30.333 15 -51zM425 678c0 -20.667 -5 -37.5 -15 -50.5s-26.333 -19.5 -49 -19.5
c-21.333 0 -37 6.5 -47 19.5s-15 29.833 -15 50.5s5 37.667 15 51s25.667 20 47 20c22.667 0 39 -6.66699 49 -20s15 -30.333 15 -51zM329 560l124.001 0.000976562v-554c0 -32.667 -4.5 -59.667 -13.5 -81s-22.167 -38.333 -39.5 -51s-38.5 -21.5 -63.5 -26.5
s-53.5 -7.5 -85.5 -7.5c-33.333 0 -63.666 2.83301 -90.999 8.5s-52.666 13.5 -75.999 23.5v97c23.333 -10 48.166 -18 74.499 -24s53.5 -9 81.5 -9c12 0 23.5 1 34.5 3s20.5 6.16699 28.5 12.5s14.333 15.333 19 27s7 26.834 7 45.501v40
c-14.667 -14 -31.834 -25.667 -51.501 -35s-42.167 -14 -67.5 -14c-54 0 -94 16.333 -120 49s-39 79 -39 139v357h124v-346c0 -34.667 4.66699 -59.334 14 -74.001s26.666 -22 51.999 -22c18.667 0 36 6.16699 52 18.5s28 26.166 36 41.499v382z" />
    <glyph glyph-name="Amacron" unicode="&#x100;" horiz-adv-x="559" 
d="M424 0l-41 146h-208l-41 -146h-134l222 700h115l221 -700h-134zM130 858h287v-90h-287v90zM204 249l150 -0.000976562l-50 180c-4 12.667 -7.5 25.667 -10.5 39s-5.5 25.833 -7.5 37.5l-5 30c-1.33301 8.33301 -2 13.833 -2 16.5
c-0.666992 -3.33301 -1.66699 -9.16602 -3 -17.499l-5 -30c-2 -11.667 -4.33301 -24.167 -7 -37.5s-5.66699 -26 -9 -38z" />
    <glyph glyph-name="amacron" unicode="&#x101;" horiz-adv-x="507" 
d="M330 407c-7.33301 16 -19.166 30 -35.499 42s-34.166 18 -53.499 18c-25.333 0 -42.666 -7.16699 -51.999 -21.5s-14 -38.833 -14 -73.5v-184c0 -34.667 4.66699 -59.167 14 -73.5s26.666 -21.5 51.999 -21.5c19.333 0 37.166 6 53.499 18s28.166 26 35.499 42v254z
M454 560v-559.998h-76l-32 56c-14.667 -18.667 -33.334 -34.334 -56.001 -47.001s-49 -19 -79 -19c-54 0 -94.167 16.333 -120.5 49s-39.5 79 -39.5 139v205c0 60 13.167 106.167 39.5 138.5s66.5 48.5 120.5 48.5c30 0 56.333 -6.33301 79 -19
s41.334 -28.334 56.001 -47.001l32 56h76zM115 717.002h288v-89h-288v89z" />
    <glyph glyph-name="Abreve" unicode="&#x102;" horiz-adv-x="559" 
d="M424 0l-41 146h-208l-41 -146h-134l222 700h115l221 -700h-134zM237 881c0 -20.667 3.66797 -35.501 11.001 -44.501s18 -13.5 32 -13.5c14.667 0 25.667 4.5 33 13.5s11 23.833 11 44.5h79c0 -24 -3.33301 -44.167 -10 -60.5s-15.667 -29.666 -27 -39.999
s-24.333 -17.833 -39 -22.5s-30.334 -7 -47.001 -7c-35.333 0 -64.5 10.333 -87.5 31s-34.5 53.667 -34.5 99h79zM204.001 248.999l150 -0.000976562l-50 180c-4 12.667 -7.5 25.667 -10.5 39s-5.5 25.833 -7.5 37.5l-5 30c-1.33301 8.33301 -2 13.833 -2 16.5
c-0.666992 -3.33301 -1.66699 -9.16602 -3 -17.499l-5 -30c-2 -11.667 -4.33301 -24.167 -7 -37.5s-5.66699 -26 -9 -38z" />
    <glyph glyph-name="abreve" unicode="&#x103;" horiz-adv-x="507" 
d="M330 407c-7.33301 16 -19.166 30 -35.499 42s-34.166 18 -53.499 18c-25.333 0 -42.666 -7.16699 -51.999 -21.5s-14 -38.833 -14 -73.5v-184c0 -34.667 4.66699 -59.167 14 -73.5s26.666 -21.5 51.999 -21.5c19.333 0 37.166 6 53.499 18s28.166 26 35.499 42v254z
M454 560v-559.998h-76l-32 56c-14.667 -18.667 -33.334 -34.334 -56.001 -47.001s-49 -19 -79 -19c-54 0 -94.167 16.333 -120.5 49s-39.5 79 -39.5 139v205c0 60 13.167 106.167 39.5 138.5s66.5 48.5 120.5 48.5c30 0 56.333 -6.33301 79 -19
s41.334 -28.334 56.001 -47.001l32 56h76zM258 680.002c14 0 24.999 4.83203 32.999 14.499s12 25.167 12 46.5h76c0 -24 -3.33301 -44.167 -10 -60.5s-15.5 -29.666 -26.5 -39.999s-23.833 -17.833 -38.5 -22.5s-30 -7 -46 -7c-35.333 0 -64.5 10.333 -87.5 31
s-34.5 53.667 -34.5 99h77c0 -21.333 3.83301 -36.833 11.5 -46.5s18.834 -14.5 33.501 -14.5z" />
    <glyph glyph-name="Aogonek" unicode="&#x104;" horiz-adv-x="559" 
d="M507 -72c0 -21.333 10.001 -31.999 30.001 -31.999c6.66699 0 13.5 0.666992 20.5 2l21.5 4v-53c-10 -4.66699 -21.5 -7.83398 -34.5 -9.50098s-26.167 -2.5 -39.5 -2.5c-26 0 -46.5 6 -61.5 18s-22.5 31.333 -22.5 58c0 17.333 5.83301 34 17.5 50
s25.167 28.333 40.5 37h-55l-41 146h-208l-41 -146h-134l222 700h115l221 -700c-14.667 -9.33301 -26.834 -20.333 -36.501 -33s-14.5 -25.667 -14.5 -39zM354.001 249.001l-50 179.999c-4 12.667 -7.5 25.667 -10.5 39s-5.5 25.833 -7.5 37.5l-5 30
c-1.33301 8.33301 -2 13.833 -2 16.5c-0.666992 -3.33301 -1.66699 -9.16602 -3 -17.499l-5 -30c-2 -11.667 -4.33301 -24.167 -7 -37.5s-5.66699 -26 -9 -38l-53 -180h152z" />
    <glyph glyph-name="aogonek" unicode="&#x105;" horiz-adv-x="507" 
d="M404 -72c0 -21.333 9.66797 -31.998 29.001 -31.998c7.33301 0 14.333 0.666992 21 2l21 4v-53c-10.667 -4.66699 -22.334 -7.83398 -35.001 -9.50098s-25.334 -2.5 -38.001 -2.5c-26 0 -46.667 6 -62 18s-23 31.333 -23 58c0 17.333 6.33301 34.333 19 51
s26.334 29.334 41.001 38.001l-31 54c-14.667 -18.667 -33.334 -34.334 -56.001 -47.001s-49 -19 -79 -19c-54 0 -94.167 16.333 -120.5 49s-39.5 79 -39.5 139v205c0 60 13.167 106.167 39.5 138.5s66.5 48.5 120.5 48.5c30 0 56.333 -6.33301 79 -19
s41.334 -28.334 56.001 -47.001l32 56h76v-560c-14 -9.33301 -25.833 -20.333 -35.5 -33s-14.5 -25.667 -14.5 -39zM330.001 407.002c-7.33301 16 -19.166 30 -35.499 42s-34.166 18 -53.499 18c-25.333 0 -42.666 -7.16699 -51.999 -21.5s-14 -38.833 -14 -73.5v-184
c0 -34.667 4.66699 -59.167 14 -73.5s26.666 -21.5 51.999 -21.5c19.333 0 37.166 6 53.499 18s28.166 26 35.499 42v254z" />
    <glyph glyph-name="Cacute" unicode="&#x106;" horiz-adv-x="472" 
d="M291 926l91 -48l-104 -125l-62 31zM440 125v-103c-53.333 -22 -110.666 -33 -171.999 -33c-69.333 0 -123.333 16.833 -162 50.5s-58 85.5 -58 155.5v310c0 70 19.333 121.833 58 155.5s92.667 50.5 162 50.5c61.333 0 118.666 -11 171.999 -33v-103
c-28.667 9.33301 -55.334 16 -80.001 20s-49.667 6 -75 6c-30.667 0 -56.167 -8.16699 -76.5 -24.5s-30.5 -45.5 -30.5 -87.5v-278c0 -42 10.167 -71.167 30.5 -87.5s45.833 -24.5 76.5 -24.5c25.333 0 50.333 2 75 6s51.334 10.667 80.001 20z" />
    <glyph glyph-name="cacute" unicode="&#x107;" horiz-adv-x="414" 
d="M289 786l91 -48l-104 -125l-62 31zM174 366v-173c0 -38.667 8.5 -65.334 25.5 -80.001s38.833 -22 65.5 -22c37.333 0 75.666 7.66699 114.999 23v-94c-20.667 -9.33301 -41.167 -16.666 -61.5 -21.999s-42.5 -8 -66.5 -8c-64.667 0 -114.5 14.167 -149.5 42.5
s-52.5 75.5 -52.5 141.5v212c0 62.667 17.5 109 52.5 139s84.833 45 149.5 45c24 0 46.167 -2.5 66.5 -7.5s40.833 -12.167 61.5 -21.5v-95c-41.333 16 -79.666 24 -114.999 24c-30 0 -52.667 -7.5 -68 -22.5s-23 -42.167 -23 -81.5z" />
    <glyph glyph-name="Cdotaccent" unicode="&#x10a;" horiz-adv-x="472" 
d="M440 125v-103c-53.333 -22 -110.666 -33 -171.999 -33c-69.333 0 -123.333 16.833 -162 50.5s-58 85.5 -58 155.5v310c0 70 19.333 121.833 58 155.5s92.667 50.5 162 50.5c61.333 0 118.666 -11 171.999 -33v-103c-28.667 9.33301 -55.334 16 -80.001 20
s-49.667 6 -75 6c-30.667 0 -56.167 -8.16699 -76.5 -24.5s-30.5 -45.5 -30.5 -87.5v-278c0 -42 10.167 -71.167 30.5 -87.5s45.833 -24.5 76.5 -24.5c25.333 0 50.333 2 75 6s51.334 10.667 80.001 20zM349 824c0 -23.333 -6.66699 -40.666 -20 -51.999s-31 -17 -53 -17
s-39.833 5.66699 -53.5 17s-20.5 28.666 -20.5 51.999c0 24.667 6.83301 43 20.5 55s31.5 18 53.5 18s39.667 -6 53 -18s20 -30.333 20 -55z" />
    <glyph glyph-name="cdotaccent" unicode="&#x10b;" horiz-adv-x="414" 
d="M174 366v-173c0 -38.667 8.5 -65.334 25.5 -80.001s38.833 -22 65.5 -22c37.333 0 75.666 7.66699 114.999 23v-94c-20.667 -9.33301 -41.167 -16.666 -61.5 -21.999s-42.5 -8 -66.5 -8c-64.667 0 -114.5 14.167 -149.5 42.5s-52.5 75.5 -52.5 141.5v212
c0 62.667 17.5 109 52.5 139s84.833 45 149.5 45c24 0 46.167 -2.5 66.5 -7.5s40.833 -12.167 61.5 -21.5v-95c-41.333 16 -79.666 24 -114.999 24c-30 0 -52.667 -7.5 -68 -22.5s-23 -42.167 -23 -81.5zM325 684c0 -23.333 -6.66699 -40.666 -20 -51.999s-31 -17 -53 -17
s-39.833 5.66699 -53.5 17s-20.5 28.666 -20.5 51.999c0 24.667 6.83301 43 20.5 55s31.5 18 53.5 18s39.667 -6 53 -18s20 -30.333 20 -55z" />
    <glyph glyph-name="Ccaron" unicode="&#x10c;" horiz-adv-x="472" 
d="M232 888l38 -69l40 69h102l-92 -132h-98l-94 132h104zM440 125v-103c-53.333 -22 -110.666 -33 -171.999 -33c-69.333 0 -123.333 16.833 -162 50.5s-58 85.5 -58 155.5v310c0 70 19.333 121.833 58 155.5s92.667 50.5 162 50.5c61.333 0 118.666 -11 171.999 -33v-103
c-28.667 9.33301 -55.334 16 -80.001 20s-49.667 6 -75 6c-30.667 0 -56.167 -8.16699 -76.5 -24.5s-30.5 -45.5 -30.5 -87.5v-278c0 -42 10.167 -71.167 30.5 -87.5s45.833 -24.5 76.5 -24.5c25.333 0 50.333 2 75 6s51.334 10.667 80.001 20z" />
    <glyph glyph-name="ccaron" unicode="&#x10d;" horiz-adv-x="414" 
d="M212 748l38 -69l40 69h102l-92 -132h-98l-94 132h104zM174 366v-173c0 -38.667 8.5 -65.334 25.5 -80.001s38.833 -22 65.5 -22c37.333 0 75.666 7.66699 114.999 23v-94c-20.667 -9.33301 -41.167 -16.666 -61.5 -21.999s-42.5 -8 -66.5 -8
c-64.667 0 -114.5 14.167 -149.5 42.5s-52.5 75.5 -52.5 141.5v212c0 62.667 17.5 109 52.5 139s84.833 45 149.5 45c24 0 46.167 -2.5 66.5 -7.5s40.833 -12.167 61.5 -21.5v-95c-41.333 16 -79.666 24 -114.999 24c-30 0 -52.667 -7.5 -68 -22.5s-23 -42.167 -23 -81.5z
" />
    <glyph glyph-name="Dcaron" unicode="&#x10e;" horiz-adv-x="557" 
d="M229 888l38 -69l40 69h102l-92 -132h-98l-94 132h104zM52 700h241c67.333 0 120.166 -17.833 158.499 -53.5s57.5 -88.167 57.5 -157.5v-278c0 -69.333 -19.167 -121.833 -57.5 -157.5s-91.166 -53.5 -158.499 -53.5h-241v700zM293 110c28 0 49.667 9 65 27s23 48 23 90
v246c0 42 -7.66699 71.833 -23 89.5s-37 26.5 -65 26.5h-110v-479h110z" />
    <glyph glyph-name="dcaron" unicode="&#x10f;" horiz-adv-x="507" 
d="M330 407c-7.33301 16 -19.166 30 -35.499 42s-34.166 18 -53.499 18c-25.333 0 -42.666 -7.16699 -51.999 -21.5s-14 -38.833 -14 -73.5v-184c0 -34.667 4.66699 -59.167 14 -73.5s26.666 -21.5 51.999 -21.5c19.333 0 37.166 6 53.499 18s28.166 26 35.499 42v254z
M454 753v-752.999h-85l-23 56c-14.667 -18.667 -33.334 -34.334 -56.001 -47.001s-49 -19 -79 -19c-54 0 -94 16.333 -120 49s-39 79 -39 139v205c0 60 13 106.167 39 138.5s66 48.5 120 48.5c25.333 0 47.833 -4.5 67.5 -13.5s36.834 -20.833 51.501 -35.5v213z
M495 534.001c9.33301 10 17.333 22.668 24 38.001s10.667 29 12 41c-11.333 3.33301 -20.666 10.166 -27.999 20.499s-11 22.166 -11 35.499c0 20 6 35.5 18 46.5s27.667 16.5 47 16.5s35.166 -5.5 47.499 -16.5s18.5 -26.5 18.5 -46.5
c0 -11.333 -1.66699 -23.166 -5 -35.499s-7.83301 -24.5 -13.5 -36.5s-12 -23.5 -19 -34.5s-13.833 -20.5 -20.5 -28.5h-70z" />
    <glyph glyph-name="Dcroat" unicode="&#x110;" horiz-adv-x="559" 
d="M52 307h-43v90h43v303h241c67.333 0 120.166 -17.833 158.499 -53.5s57.5 -88.167 57.5 -157.5v-278c0 -69.333 -19.167 -121.833 -57.5 -157.5s-91.166 -53.5 -158.499 -53.5h-241v307zM293 110c28 0 49.667 9 65 27s23 48 23 90v246c0 42 -7.66699 71.833 -23 89.5
s-37 26.5 -65 26.5h-110v-192h115v-90h-115v-197h110z" />
    <glyph glyph-name="dcroat" unicode="&#x111;" horiz-adv-x="507" 
d="M507 609l-53 0.000976562v-609h-85l-23 56c-14.667 -18.667 -33.334 -34.334 -56.001 -47.001s-49 -19 -79 -19c-54 0 -94 16.333 -120 49s-39 79 -39 139v205c0 60 13 106.167 39 138.5s66 48.5 120 48.5c25.333 0 47.833 -4.5 67.5 -13.5s36.834 -20.833 51.501 -35.5
v88h-78v79h78v46l124 19v-65h53v-79zM330 407.001c-7.33301 16 -19.166 30 -35.499 42s-34.166 18 -53.499 18c-25.333 0 -42.666 -7.16699 -51.999 -21.5s-14 -38.833 -14 -73.5v-184c0 -34.667 4.66699 -59.167 14 -73.5s26.666 -21.5 51.999 -21.5
c19.333 0 37.166 6 53.499 18s28.166 26 35.499 42v254z" />
    <glyph glyph-name="Emacron" unicode="&#x112;" horiz-adv-x="480" 
d="M102 857h288v-89h-288v89zM52 700h390v-111h-259v-179h216v-109h-216v-191h266v-110h-397v700z" />
    <glyph glyph-name="emacron" unicode="&#x113;" horiz-adv-x="502" 
d="M115 717h288v-89h-288v89zM174 193c0 -19.333 2.16699 -35.499 6.5 -48.499s10.5 -23.5 18.5 -31.5s17.5 -13.667 28.5 -17s23.167 -5 36.5 -5c26 0 54.5 3 85.5 9s58.833 13.667 83.5 23v-94c-24 -12.667 -51.5 -22.334 -82.5 -29.001s-63.5 -10 -97.5 -10
c-64.667 0 -114.667 14.167 -150 42.5s-53 75.5 -53 141.5v206c0 66 18 114.167 54 144.5s85.333 45.5 148 45.5c31.333 0 59.666 -3.83301 84.999 -11.5s46.833 -19.167 64.5 -34.5s31.334 -35 41.001 -59s14.5 -52.333 14.5 -85v-146h-283v-41zM332 321.001v55
c0 38 -6.5 64.167 -19.5 78.5s-32.833 21.5 -59.5 21.5c-26 0 -45.833 -7 -59.5 -21s-20.5 -40.333 -20.5 -79v-55h159z" />
    <glyph glyph-name="Edotaccent" unicode="&#x116;" horiz-adv-x="480" 
d="M52 700h390v-111h-259v-179h216v-109h-216v-191h266v-110h-397v700zM322 824c0 -23.333 -6.66699 -40.666 -20 -51.999s-31 -17 -53 -17s-39.833 5.66699 -53.5 17s-20.5 28.666 -20.5 51.999c0 24.667 6.83301 43 20.5 55s31.5 18 53.5 18s39.667 -6 53 -18
s20 -30.333 20 -55z" />
    <glyph glyph-name="edotaccent" unicode="&#x117;" horiz-adv-x="502" 
d="M174 193c0 -19.333 2.16699 -35.499 6.5 -48.499s10.5 -23.5 18.5 -31.5s17.5 -13.667 28.5 -17s23.167 -5 36.5 -5c26 0 54.5 3 85.5 9s58.833 13.667 83.5 23v-94c-24 -12.667 -51.5 -22.334 -82.5 -29.001s-63.5 -10 -97.5 -10c-64.667 0 -114.667 14.167 -150 42.5
s-53 75.5 -53 141.5v206c0 66 18 114.167 54 144.5s85.333 45.5 148 45.5c31.333 0 59.666 -3.83301 84.999 -11.5s46.833 -19.167 64.5 -34.5s31.334 -35 41.001 -59s14.5 -52.333 14.5 -85v-146h-283v-41zM332 321.001v55c0 38 -6.5 64.167 -19.5 78.5
s-32.833 21.5 -59.5 21.5c-26 0 -45.833 -7 -59.5 -21s-20.5 -40.333 -20.5 -79v-55h159zM326 684.001c0 -23.333 -6.66699 -40.666 -20 -51.999s-31 -17 -53 -17s-39.833 5.66699 -53.5 17s-20.5 28.666 -20.5 51.999c0 24.667 6.83301 43 20.5 55s31.5 18 53.5 18
s39.667 -6 53 -18s20 -30.333 20 -55z" />
    <glyph glyph-name="Eogonek" unicode="&#x118;" horiz-adv-x="480" 
d="M475 -151c-10.667 -5.33301 -22.1689 -8.66602 -34.502 -9.99902s-25.166 -2 -38.499 -2c-26 0 -47.667 6 -65 18s-26 31.333 -26 58c0 16 6.16699 32.5 18.5 49.5s25.833 29.5 40.5 37.5h-318v700h390v-111h-259v-178h216v-110h-216v-191h266v-110
c-14.667 -9.33301 -26.5 -20.333 -35.5 -33s-13.5 -25.334 -13.5 -38.001c0 -22 9.66699 -33 29 -33c5.33301 0 10.833 0.5 16.5 1.5s11.834 2.16699 18.501 3.5z" />
    <glyph glyph-name="eogonek" unicode="&#x119;" horiz-adv-x="502" 
d="M174 193c0 -38.667 8.33301 -65.3311 25 -79.998s38.334 -22 65.001 -22c26 0 54.5 3 85.5 9s58.833 13.667 83.5 23v-94c-7.33301 -6.66699 -15 -14.667 -23 -24s-15.167 -18.833 -21.5 -28.5s-11.5 -18.667 -15.5 -27s-6 -15.166 -6 -20.499
c0 -12 2.66699 -20.5 8 -25.5s13 -7.5 23 -7.5c9.33301 0 21.666 1.66699 36.999 5l9 -52c-12.667 -4.66699 -25.667 -7.83398 -39 -9.50098s-27 -2.5 -41 -2.5c-24.667 0 -44.834 5.33301 -60.501 16s-23.5 28.667 -23.5 54c0 15.333 4.5 30.666 13.5 45.999
s21.167 29.666 36.5 42.999c-24 -4 -49.667 -6 -77 -6c-64.667 0 -114.667 14.167 -150 42.5s-53 75.5 -53 141.5v206c0 66 18 114.167 54 144.5s85.667 45.5 149 45.5c62.667 0 112.334 -15.333 149.001 -46s55 -78.667 55 -144v-146h-283v-41zM332 321.003v55
c0 38 -6.5 64.167 -19.5 78.5s-32.833 21.5 -59.5 21.5c-26 0 -45.833 -7 -59.5 -21s-20.5 -40.333 -20.5 -79v-55h159z" />
    <glyph glyph-name="Ecaron" unicode="&#x11a;" horiz-adv-x="480" 
d="M210 888l38 -69l40 69h102l-92 -132h-98l-94 132h104zM52 700h390v-111h-259v-179h216v-109h-216v-191h266v-110h-397v700z" />
    <glyph glyph-name="ecaron" unicode="&#x11b;" horiz-adv-x="502" 
d="M218 748l38 -69l40 69h102l-92 -132h-98l-94 132h104zM174 193c0 -19.333 2.16699 -35.499 6.5 -48.499s10.5 -23.5 18.5 -31.5s17.5 -13.667 28.5 -17s23.167 -5 36.5 -5c26 0 54.5 3 85.5 9s58.833 13.667 83.5 23v-94c-24 -12.667 -51.5 -22.334 -82.5 -29.001
s-63.5 -10 -97.5 -10c-64.667 0 -114.667 14.167 -150 42.5s-53 75.5 -53 141.5v206c0 66 18 114.167 54 144.5s85.333 45.5 148 45.5c31.333 0 59.666 -3.83301 84.999 -11.5s46.833 -19.167 64.5 -34.5s31.334 -35 41.001 -59s14.5 -52.333 14.5 -85v-146h-283v-41z
M332 321.001v55c0 38 -6.5 64.167 -19.5 78.5s-32.833 21.5 -59.5 21.5c-26 0 -45.833 -7 -59.5 -21s-20.5 -40.333 -20.5 -79v-55h159z" />
    <glyph glyph-name="Gbreve" unicode="&#x11e;" horiz-adv-x="510" 
d="M440 575c-28.667 9.33301 -55.3311 16.002 -79.998 20.002s-49.667 6 -75 6c-30.667 0 -56.167 -8.16699 -76.5 -24.5s-30.5 -45.5 -30.5 -87.5v-278c0 -41.333 8.5 -70.333 25.5 -87s39.833 -25 68.5 -25c10.667 -0.666992 20.667 -0.333984 30 0.999023
s18.666 3.66602 27.999 6.99902v180h-96v97h226v-360c-28.667 -11.333 -58.667 -20 -90 -26s-66 -9 -104 -9c-70 0 -123.833 17 -161.5 51s-56.5 86 -56.5 156v309c0 70 19.333 121.833 58 155.5s92.667 50.5 162 50.5c61.333 0 118.666 -11 171.999 -33v-103z
M271.003 820.002c14 0 24.999 4.83203 32.999 14.499s12 25.167 12 46.5h76c0 -24 -3.33301 -44.167 -10 -60.5s-15.5 -29.666 -26.5 -39.999s-23.833 -17.833 -38.5 -22.5s-30 -7 -46 -7c-35.333 0 -64.5 10.333 -87.5 31s-34.5 53.667 -34.5 99h77
c0 -21.333 3.83301 -36.833 11.5 -46.5s18.834 -14.5 33.501 -14.5z" />
    <glyph glyph-name="gbreve" unicode="&#x11f;" 
d="M329 64c-14.667 -14 -31.834 -25.667 -51.501 -35s-42.167 -14 -67.5 -14c-54 0 -94 16.333 -120 49s-39 79 -39 139v180c0 59.333 13 105.333 39 138s66 49 120 49c30.667 0 57.167 -6.33301 79.5 -19s40.833 -28.334 55.5 -47.001l22 56h86v-554
c0 -32.667 -4.5 -59.667 -13.5 -81s-22.167 -38.333 -39.5 -51s-38.5 -21.5 -63.5 -26.5s-53.5 -7.5 -85.5 -7.5c-33.333 0 -63.666 2.83301 -90.999 8.5s-52.666 13.5 -75.999 23.5v97c23.333 -10 48.166 -18 74.499 -24s53.5 -9 81.5 -9c12 0 23.5 1 34.5 3
s20.5 6.16699 28.5 12.5s14.333 15.333 19 27s7 26.834 7 45.501v40zM241 118c18.667 0 36 6.16895 52 18.502s28 26.166 36 41.499v229c-8 16 -20 30 -36 42s-33.333 18 -52 18c-25.333 0 -42.666 -7.16699 -51.999 -21.5s-14 -38.833 -14 -73.5v-158
c0 -34.667 4.66699 -59.334 14 -74.001s26.666 -22 51.999 -22zM260 680.002c14 0 24.999 4.83203 32.999 14.499s12 25.167 12 46.5h76c0 -24 -3.33301 -44.167 -10 -60.5s-15.5 -29.666 -26.5 -39.999s-23.833 -17.833 -38.5 -22.5s-30 -7 -46 -7
c-35.333 0 -64.5 10.333 -87.5 31s-34.5 53.667 -34.5 99h77c0 -21.333 3.83301 -36.833 11.5 -46.5s18.834 -14.5 33.501 -14.5z" />
    <glyph glyph-name="Gdotaccent" unicode="&#x120;" horiz-adv-x="510" 
d="M440 678l0.00292969 -102.998c-28.667 9.33301 -55.334 16 -80.001 20s-49.667 6 -75 6c-30.667 0 -56.167 -8.16699 -76.5 -24.5s-30.5 -45.5 -30.5 -87.5v-278c0 -41.333 8.5 -70.333 25.5 -87s39.833 -25 68.5 -25c10.667 -0.666992 20.667 -0.333984 30 0.999023
s18.666 3.66602 27.999 6.99902v180h-96v97h226v-360c-28.667 -11.333 -58.667 -20 -90 -26s-66 -9 -104 -9c-70 0 -123.833 17 -161.5 51s-56.5 86 -56.5 156v309c0 70 19.333 121.833 58 155.5s92.667 50.5 162 50.5c61.333 0 118.666 -11 171.999 -33zM346.003 824.002
c0 -23.333 -6.66699 -40.666 -20 -51.999s-31 -17 -53 -17s-39.833 5.66699 -53.5 17s-20.5 28.666 -20.5 51.999c0 24.667 6.83301 43 20.5 55s31.5 18 53.5 18s39.667 -6 53 -18s20 -30.333 20 -55z" />
    <glyph glyph-name="gdotaccent" unicode="&#x121;" 
d="M331 684c0 -23.333 -6.66699 -40.666 -20 -51.999s-31 -17 -53 -17s-39.833 5.66699 -53.5 17s-20.5 28.666 -20.5 51.999c0 24.667 6.83301 43 20.5 55s31.5 18 53.5 18s39.667 -6 53 -18s20 -30.333 20 -55zM329 64c-14.667 -14 -31.834 -25.667 -51.501 -35
s-42.167 -14 -67.5 -14c-54 0 -94 16.333 -120 49s-39 79 -39 139v180c0 59.333 13 105.333 39 138s66 49 120 49c30.667 0 57.167 -6.33301 79.5 -19s40.833 -28.334 55.5 -47.001l22 56h86v-554c0 -32.667 -4.5 -59.667 -13.5 -81s-22.167 -38.333 -39.5 -51
s-38.5 -21.5 -63.5 -26.5s-53.5 -7.5 -85.5 -7.5c-33.333 0 -63.666 2.83301 -90.999 8.5s-52.666 13.5 -75.999 23.5v97c23.333 -10 48.166 -18 74.499 -24s53.5 -9 81.5 -9c12 0 23.5 1 34.5 3s20.5 6.16699 28.5 12.5s14.333 15.333 19 27s7 26.834 7 45.501v40zM241 118
c18.667 0 36 6.16895 52 18.502s28 26.166 36 41.499v229c-8 16 -20 30 -36 42s-33.333 18 -52 18c-25.333 0 -42.666 -7.16699 -51.999 -21.5s-14 -38.833 -14 -73.5v-158c0 -34.667 4.66699 -59.334 14 -74.001s26.666 -22 51.999 -22z" />
    <glyph glyph-name="uni0122" unicode="&#x122;" horiz-adv-x="510" 
d="M440 575c-28.667 9.33301 -55.3311 16.002 -79.998 20.002s-49.667 6 -75 6c-30.667 0 -56.167 -8.16699 -76.5 -24.5s-30.5 -45.5 -30.5 -87.5v-278c0 -41.333 8.5 -70.333 25.5 -87s39.833 -25 68.5 -25c10.667 -0.666992 20.667 -0.333984 30 0.999023
s18.666 3.66602 27.999 6.99902v180h-96v97h226v-360c-28.667 -11.333 -58.667 -20 -90 -26s-66 -9 -104 -9c-70 0 -123.833 17 -161.5 51s-56.5 86 -56.5 156v309c0 70 19.333 121.833 58 155.5s92.667 50.5 162 50.5c61.333 0 118.666 -11 171.999 -33v-103z
M206.003 -243.998c9.33301 10 17.333 22.668 24 38.001s10.667 29 12 41c-11.333 3.33301 -20.666 10.166 -27.999 20.499s-11 22.166 -11 35.499c0 20 6 35.5 18 46.5s27.667 16.5 47 16.5s35.166 -5.5 47.499 -16.5s18.5 -26.5 18.5 -46.5
c0 -11.333 -1.66699 -23.166 -5 -35.499s-7.83301 -24.5 -13.5 -36.5s-12 -23.5 -19 -34.5s-13.833 -20.5 -20.5 -28.5h-70z" />
    <glyph glyph-name="uni0123" unicode="&#x123;" horiz-adv-x="548" 
d="M299 723c8 -4.66699 14.666 -11.168 19.999 -19.501s8 -18.166 8 -29.499c0 -21.333 -6.16699 -37.333 -18.5 -48s-28.166 -16 -47.499 -16c-20.667 0 -37.167 5.33301 -49.5 16s-18.5 26.667 -18.5 48c0 12 2.33301 25 7 39s11.667 27.5 21 40.5s21.5 25 36.5 36
s32.833 19.5 53.5 25.5l30 -43c-9.33301 -5.33301 -18 -12.333 -26 -21s-13.333 -18 -16 -28zM328.999 63.999c-14.667 -14 -31.834 -25.667 -51.501 -35s-42.167 -14 -67.5 -14c-54 0 -94 16.333 -120 49s-39 79 -39 139v180c0 59.333 13 105.333 39 138s66 49 120 49
c30.667 0 57.167 -6.33301 79.5 -19s40.833 -28.334 55.5 -47.001l22 56h86v-554c0 -32.667 -4.5 -59.667 -13.5 -81s-22.167 -38.333 -39.5 -51s-38.5 -21.5 -63.5 -26.5s-53.5 -7.5 -85.5 -7.5c-33.333 0 -63.666 2.83301 -90.999 8.5s-52.666 13.5 -75.999 23.5v97
c23.333 -10 48.166 -18 74.499 -24s53.5 -9 81.5 -9c12 0 23.5 1 34.5 3s20.5 6.16699 28.5 12.5s14.333 15.333 19 27s7 26.834 7 45.501v40zM240.999 117.999c18.667 0 36 6.16895 52 18.502s28 26.166 36 41.499v229c-8 16 -20 30 -36 42s-33.333 18 -52 18
c-25.333 0 -42.666 -7.16699 -51.999 -21.5s-14 -38.833 -14 -73.5v-158c0 -34.667 4.66699 -59.334 14 -74.001s26.666 -22 51.999 -22z" />
    <glyph glyph-name="Hbar" unicode="&#x126;" horiz-adv-x="562" 
d="M562 518h-52v-518h-129v305h-198v-305h-131v518h-52v90h52v92h131v-92h198v92h129v-92h52v-90zM381 518h-198v-101h198v101z" />
    <glyph glyph-name="hbar" unicode="&#x127;" 
d="M179 521c14 14.667 30.667 26.5 50 35.5s41.666 13.5 66.999 13.5c54 0 93.833 -16.167 119.5 -48.5s38.5 -78.5 38.5 -138.5v-383h-123v372c0 34.667 -4.5 59.167 -13.5 73.5s-26.167 21.5 -51.5 21.5c-19.333 0 -36.666 -6 -51.999 -18s-27 -26 -35 -42v-407h-125v609
h-54v74h54v51l125 19v-70h77v-74h-77v-88v0z" />
    <glyph glyph-name="Itilde" unicode="&#x128;" horiz-adv-x="232" 
d="M52 700h131v-700h-131v700zM-69 765c0 38 8.33203 68.999 24.999 92.999s42 36 76 36c16.667 0 32 -2.33301 46 -7s26.833 -9.83398 38.5 -15.501l32 -15.5c9.66699 -4.66699 18.5 -7 26.5 -7c12 0 20.333 4 25 12s7.33398 18.667 8.00098 32h84
c0 -38 -8.5 -69 -25.5 -93s-42.5 -36 -76.5 -36c-16 0 -30.667 2.33301 -44 7s-25.5 9.83398 -36.5 15.501s-21.5 10.834 -31.5 15.501s-20 7 -30 7c-12 0 -20.5 -4 -25.5 -12s-7.5 -18.667 -7.5 -32h-84z" />
    <glyph glyph-name="itilde" unicode="&#x129;" horiz-adv-x="232" 
d="M-48 625c0 18.667 2 36.167 6 52.5s10 30.5 18 42.5s18.167 21.333 30.5 28s27.166 10 44.499 10c14.667 0 27.334 -2.5 38.001 -7.5s20 -10.333 28 -16s15.167 -11 21.5 -16s12.833 -7.5 19.5 -7.5c11.333 0 18.833 3.5 22.5 10.5s5.83398 17.5 6.50098 31.5h84
c0 -38 -8 -69.833 -24 -95.5s-41 -38.5 -75 -38.5c-15.333 0 -28 2.5 -38 7.5s-18.667 10.333 -26 16l-21 16c-6.66699 5 -14.334 7.5 -23.001 7.5c-11.333 0 -18.833 -3.5 -22.5 -10.5s-5.5 -17.167 -5.5 -30.5h-84zM178 560v-560h-124v560h124z" />
    <glyph glyph-name="Imacron" unicode="&#x12a;" horiz-adv-x="232" 
d="M52 700h131v-700h-131v700zM-27 857h288v-89h-288v89z" />
    <glyph glyph-name="imacron" unicode="&#x12b;" horiz-adv-x="232" 
d="M178 560v-560h-124v560h124zM-28 717h288v-89h-288v89z" />
    <glyph glyph-name="Iogonek" unicode="&#x12e;" horiz-adv-x="232" 
d="M208 -151c-10.667 -5.33301 -22.1699 -8.66797 -34.5029 -10.001s-25.166 -2 -38.499 -2c-25.333 0 -46.833 6 -64.5 18s-26.5 31.333 -26.5 58c0 8.66699 1.83301 17.334 5.5 26.001s8.33398 16.834 14.001 24.501s12 14.667 19 21s13.833 11.5 20.5 15.5h-51v700h131
v-700c-14.667 -9.33301 -26.667 -20.333 -36 -33s-14 -25.334 -14 -38.001c0 -22 10 -33 30 -33c5.33301 0 10.833 0.5 16.5 1.5s11.834 2.16699 18.501 3.5z" />
    <glyph glyph-name="iogonek" unicode="&#x12f;" horiz-adv-x="232" 
d="M205 -151c-10.667 -4.66699 -22.334 -7.83301 -35.001 -9.5s-25.667 -2.5 -39 -2.5c-26 0 -47.333 6 -64 18s-25 31.333 -25 58c0 17.333 5.83301 34 17.5 50s24.834 28.333 39.501 37h-45v560h124v-560c-14 -9.33301 -25.833 -20.333 -35.5 -33s-14.5 -25.667 -14.5 -39
c0 -21.333 9.66699 -32 29 -32c6 0 11.833 0.5 17.5 1.5l19.5 3.5zM191 684.001c0 -23.333 -6.66699 -40.666 -20 -51.999s-31 -17 -53 -17s-39.833 5.66699 -53.5 17s-20.5 28.666 -20.5 51.999c0 24.667 6.83301 43 20.5 55s31.5 18 53.5 18s39.667 -6 53 -18
s20 -30.333 20 -55z" />
    <glyph glyph-name="Idotaccent" unicode="&#x130;" horiz-adv-x="232" 
d="M190 824c0 -23.333 -6.66699 -40.666 -20 -51.999s-31 -17 -53 -17s-39.667 5.66699 -53 17s-20 28.666 -20 51.999c0 24.667 6.66699 43 20 55s31 18 53 18s39.667 -6 53 -18s20 -30.333 20 -55zM52 700h131v-700h-131v700z" />
    <glyph glyph-name="dotlessi" unicode="&#x131;" horiz-adv-x="232" 
d="M178 560v-560h-124v560h124z" />
    <glyph glyph-name="IJ" unicode="&#x132;" horiz-adv-x="493" 
d="M222 -66c33.333 0 56.833 13.167 70.5 39.5s20.5 59.5 20.5 99.5v627h130v-642c0 -69.333 -18.167 -123 -54.5 -161s-91.833 -57 -166.5 -57v94zM52 700h131v-700h-131v700z" />
    <glyph glyph-name="ij" unicode="&#x133;" horiz-adv-x="471" 
d="M178 560v-560h-124v561zM195 682c0 -24 -7.83301 -40.833 -23.5 -50.5s-34.167 -14.5 -55.5 -14.5c-22.667 0 -41.5 4.83301 -56.5 14.5s-22.5 26.5 -22.5 50.5s7.5 41.167 22.5 51.5s33.833 15.5 56.5 15.5c21.333 0 39.833 -5.16699 55.5 -15.5s23.5 -27.5 23.5 -51.5z
M416 560l-0.000976562 -526c0 -61.333 -16.167 -109 -48.5 -143s-84.833 -51 -157.5 -51v86c18 2 32.333 6 43 12s18.834 14 24.501 24s9.5 22.333 11.5 37s3 31.667 3 51v510h124zM430.999 675c0 -24 -7.66699 -40.833 -23 -50.5s-34 -14.5 -56 -14.5
s-40.5 4.83301 -55.5 14.5s-22.5 26.5 -22.5 50.5s7.5 41.167 22.5 51.5s33.5 15.5 55.5 15.5s40.667 -5.16699 56 -15.5s23 -27.5 23 -51.5z" />
    <glyph glyph-name="uni0136" unicode="&#x136;" horiz-adv-x="551" 
d="M183 344v-344h-131v700h131v-337l214 337h145l-224 -341l235 -359h-151zM223 -244c9.33301 10 17.333 22.668 24 38.001s10.667 29 12 41c-11.333 3.33301 -20.666 10.166 -27.999 20.499s-11 22.166 -11 35.499c0 20 6 35.5 18 46.5s27.667 16.5 47 16.5
s35.166 -5.5 47.499 -16.5s18.5 -26.5 18.5 -46.5c0 -11.333 -1.66699 -23.166 -5 -35.499s-7.83301 -24.5 -13.5 -36.5s-12 -23.5 -19 -34.5s-13.833 -20.5 -20.5 -28.5h-70z" />
    <glyph glyph-name="uni0137" unicode="&#x137;" horiz-adv-x="474" 
d="M458 560l-129 -267l146 -293h-134l-119 250h-43v-250h-125v734l125 19v-417h44l105 224h130zM186 -244c9.33301 10 17.333 22.668 24 38.001s10.667 29 12 41c-11.333 3.33301 -20.666 10.166 -27.999 20.499s-11 22.166 -11 35.499c0 20 6 35.5 18 46.5
s27.667 16.5 47 16.5s35.166 -5.5 47.499 -16.5s18.5 -26.5 18.5 -46.5c0 -11.333 -1.66699 -23.166 -5 -35.499s-7.83301 -24.5 -13.5 -36.5s-12 -23.5 -19 -34.5s-13.833 -20.5 -20.5 -28.5h-70z" />
    <glyph glyph-name="kgreenlandic" unicode="&#x138;" horiz-adv-x="474" 
d="M459 560l-119 -268l135 -292h-134l-109 250h-53v-250h-125v560h125v-224h52l95 224h133z" />
    <glyph glyph-name="Lacute" unicode="&#x139;" horiz-adv-x="452" 
d="M161 926l91 -48l-104 -125l-62 31zM52 700h131v-590h256v-110h-387v700z" />
    <glyph glyph-name="lacute" unicode="&#x13a;" horiz-adv-x="233" 
d="M152 929l91 -48l-104 -125l-62 31zM54 0v734l125 19v-753h-125z" />
    <glyph glyph-name="uni013B" unicode="&#x13b;" horiz-adv-x="452" 
d="M52 700h131v-590h256v-110h-387v700zM178 -244c9.33301 10 17.333 22.668 24 38.001s10.667 29 12 41c-11.333 3.33301 -20.666 10.166 -27.999 20.499s-11 22.166 -11 35.499c0 20 6 35.5 18 46.5s27.667 16.5 47 16.5s35.166 -5.5 47.499 -16.5s18.5 -26.5 18.5 -46.5
c0 -11.333 -1.66699 -23.166 -5 -35.499s-7.83301 -24.5 -13.5 -36.5s-12 -23.5 -19 -34.5s-13.833 -20.5 -20.5 -28.5h-70z" />
    <glyph glyph-name="uni013C" unicode="&#x13c;" horiz-adv-x="233" 
d="M54 0v734l125 19v-753h-125zM48 -244c9.33301 10 17.333 22.668 24 38.001s10.667 29 12 41c-11.333 3.33301 -20.666 10.166 -27.999 20.499s-11 22.166 -11 35.499c0 20 6 35.5 18 46.5s27.667 16.5 47 16.5s35.166 -5.5 47.499 -16.5s18.5 -26.5 18.5 -46.5
c0 -11.333 -1.66699 -23.166 -5 -35.499s-7.83301 -24.5 -13.5 -36.5s-12 -23.5 -19 -34.5s-13.833 -20.5 -20.5 -28.5h-70z" />
    <glyph glyph-name="Lcaron" unicode="&#x13d;" horiz-adv-x="452" 
d="M52 700h131v-590h256v-110h-387v700zM338 512c9.33301 10 17.333 22.668 24 38.001s10.667 29 12 41c-11.333 3.33301 -20.666 10.166 -27.999 20.499s-11 22.166 -11 35.499c0 20 6 35.5 18 46.5s27.667 16.5 47 16.5s35.166 -5.5 47.499 -16.5s18.5 -26.5 18.5 -46.5
c0 -11.333 -1.66699 -23.166 -5 -35.499s-7.83301 -24.5 -13.5 -36.5s-12 -23.5 -19 -34.5s-13.833 -20.5 -20.5 -28.5h-70z" />
    <glyph glyph-name="lcaron" unicode="&#x13e;" horiz-adv-x="233" 
d="M54 0v734l125 19v-753h-125zM224 542c9.33301 10 17.333 22.668 24 38.001s10.667 29 12 41c-11.333 3.33301 -20.666 10.166 -27.999 20.499s-11 22.166 -11 35.499c0 20 6 35.5 18 46.5s27.667 16.5 47 16.5s35.166 -5.5 47.499 -16.5s18.5 -26.5 18.5 -46.5
c0 -11.333 -1.66699 -23.166 -5 -35.499s-7.83301 -24.5 -13.5 -36.5s-12 -23.5 -19 -34.5s-13.833 -20.5 -20.5 -28.5h-70z" />
    <glyph glyph-name="Ldot" unicode="&#x13f;" horiz-adv-x="452" 
d="M52 700h131v-590h256v-110h-387v700zM425 398c0 -23.333 -6.66699 -40.833 -20 -52.5s-31 -17.5 -53 -17.5s-39.833 5.83301 -53.5 17.5s-20.5 29.167 -20.5 52.5c0 24 6.83301 42 20.5 54s31.5 18 53.5 18s39.667 -6 53 -18s20 -30 20 -54z" />
    <glyph glyph-name="ldot" unicode="&#x140;" horiz-adv-x="351" 
d="M362 346c0 -23.333 -6.66699 -40.833 -20 -52.5s-31.333 -17.5 -54 -17.5c-21.333 0 -38.666 5.83301 -51.999 17.5s-20 29.167 -20 52.5c0 24.667 6.66699 42.834 20 54.501s30.666 17.5 51.999 17.5c22.667 0 40.667 -5.83301 54 -17.5s20 -29.834 20 -54.501zM54 0
v734l125 19v-753h-125z" />
    <glyph glyph-name="Lslash" unicode="&#x141;" horiz-adv-x="452" 
d="M52 269l-44 -19v115l44 19v316h131v-266l92 42l-1 -115l-91 -41v-210h256v-110h-387v269z" />
    <glyph glyph-name="lslash" unicode="&#x142;" horiz-adv-x="233" 
d="M221 339l-42 -18v-321h-125v270l-43 -18v116l43 18v348l125 19v-317l42 18v-115z" />
    <glyph glyph-name="Nacute" unicode="&#x143;" horiz-adv-x="572" 
d="M52 700h112l227 -407v407h129v-700h-112l-226 403v-403h-130v700zM321 926l91 -48l-104 -125l-62 31z" />
    <glyph glyph-name="nacute" unicode="&#x144;" 
d="M270 786l91 -48l-104 -125l-62 31zM263 467c-17.333 0 -33.665 -5.33398 -48.998 -16.001s-27 -23.667 -35 -39v-412h-125v560h74l31 -56c15.333 18.667 34 34.334 56 47.001s48.333 19 79 19c53.333 0 93.166 -16.167 119.499 -48.5s39.5 -78.5 39.5 -138.5v-383h-124
v372c0 34.667 -4.83301 59.167 -14.5 73.5s-26.834 21.5 -51.501 21.5z" />
    <glyph glyph-name="uni0145" unicode="&#x145;" horiz-adv-x="572" 
d="M52 700h112l227 -407v407h129v-700h-112l-226 403v-403h-130v700zM216 -244c9.33301 10 17.333 22.668 24 38.001s10.667 29 12 41c-11.333 3.33301 -20.666 10.166 -27.999 20.499s-11 22.166 -11 35.499c0 20 6 35.5 18 46.5s27.667 16.5 47 16.5
s35.166 -5.5 47.499 -16.5s18.5 -26.5 18.5 -46.5c0 -11.333 -1.66699 -23.166 -5 -35.499s-7.83301 -24.5 -13.5 -36.5s-12 -23.5 -19 -34.5s-13.833 -20.5 -20.5 -28.5h-70z" />
    <glyph glyph-name="uni0146" unicode="&#x146;" 
d="M186 -244c9.33301 10 17.333 22.668 24 38.001s10.667 29 12 41c-11.333 3.33301 -20.666 10.166 -27.999 20.499s-11 22.166 -11 35.499c0 20 6 35.5 18 46.5s27.667 16.5 47 16.5s35.166 -5.5 47.499 -16.5s18.5 -26.5 18.5 -46.5
c0 -11.333 -1.66699 -23.166 -5 -35.499s-7.83301 -24.5 -13.5 -36.5s-12 -23.5 -19 -34.5s-13.833 -20.5 -20.5 -28.5h-70zM263 467.001c-17.333 0 -33.665 -5.33398 -48.998 -16.001s-27 -23.667 -35 -39v-412h-125v560h74l31 -56c15.333 18.667 34 34.334 56 47.001
s48.333 19 79 19c53.333 0 93.166 -16.167 119.499 -48.5s39.5 -78.5 39.5 -138.5v-383h-124v372c0 34.667 -4.83301 59.167 -14.5 73.5s-26.834 21.5 -51.501 21.5z" />
    <glyph glyph-name="Ncaron" unicode="&#x147;" horiz-adv-x="572" 
d="M52 700h112l227 -407v407h129v-700h-112l-226 403v-403h-130v700zM249 888l38 -69l40 69h102l-92 -132h-98l-94 132h104z" />
    <glyph glyph-name="ncaron" unicode="&#x148;" 
d="M209 748l38 -69l40 69h102l-92 -132h-98l-94 132h104zM263 467c-17.333 0 -33.665 -5.33398 -48.998 -16.001s-27 -23.667 -35 -39v-412h-125v560h74l31 -56c15.333 18.667 34 34.334 56 47.001s48.333 19 79 19c53.333 0 93.166 -16.167 119.499 -48.5
s39.5 -78.5 39.5 -138.5v-383h-124v372c0 34.667 -4.83301 59.167 -14.5 73.5s-26.834 21.5 -51.501 21.5z" />
    <glyph glyph-name="Eng" unicode="&#x14a;" horiz-adv-x="572" 
d="M52 700h111.998l227 -407v407h129v-641c0 -76 -19 -131.5 -57 -166.5s-93 -52.5 -165 -52.5v94c16.667 0 30.834 2.5 42.501 7.5s21.167 11.833 28.5 20.5s12.833 18.667 16.5 30s5.83398 23.333 6.50098 36l-210 375v-403h-130v700z" />
    <glyph glyph-name="eng" unicode="&#x14b;" 
d="M159 504c15.333 18.667 34.001 34.333 56.001 47s48.333 19 79 19c53.333 0 93.166 -16.167 119.499 -48.5s39.5 -78.5 39.5 -138.5v-351c0 -30 -3.66699 -57 -11 -81s-19.166 -44.167 -35.499 -60.5s-37.5 -28.833 -63.5 -37.5s-57.667 -13 -95 -13v93
c31.333 2 52.666 12 63.999 30s17 44.667 17 80v329c0 34.667 -4.83301 59.167 -14.5 73.5s-26.834 21.5 -51.501 21.5c-17.333 0 -33.666 -5.33301 -48.999 -16s-27 -23.667 -35 -39v-412h-125v560h74l31 -56v0z" />
    <glyph glyph-name="Omacron" unicode="&#x14c;" horiz-adv-x="571" 
d="M140 857h288v-89h-288v89zM48 505c0 34.667 6.33301 65 19 91s29.667 47.5 51 64.5s46.5 29.667 75.5 38s59.833 12.5 92.5 12.5s63.334 -4.16699 92.001 -12.5s53.667 -21 75 -38s38.166 -38.5 50.499 -64.5s18.5 -56.333 18.5 -91v-309
c0 -35.333 -6.16699 -65.833 -18.5 -91.5s-29.166 -47.167 -50.499 -64.5s-46.333 -30.166 -75 -38.499s-59.334 -12.5 -92.001 -12.5s-63.5 4.16699 -92.5 12.5s-54.167 21.166 -75.5 38.499s-38.333 38.833 -51 64.5s-19 56.167 -19 91.5v309zM178 211
c0 -21.333 2.83301 -39.166 8.5 -53.499s13.5 -25.833 23.5 -34.5s21.5 -14.834 34.5 -18.501s26.833 -5.5 41.5 -5.5s28.5 1.83301 41.5 5.5s24.333 9.83398 34 18.501s17.334 20.167 23.001 34.5s8.5 32.166 8.5 53.499v278c0 21.333 -2.83301 39.166 -8.5 53.499
s-13.334 25.833 -23.001 34.5s-21 14.834 -34 18.501s-26.833 5.5 -41.5 5.5s-28.5 -1.83301 -41.5 -5.5s-24.5 -9.83398 -34.5 -18.501s-17.833 -20.167 -23.5 -34.5s-8.5 -32.166 -8.5 -53.499v-278z" />
    <glyph glyph-name="omacron" unicode="&#x14d;" horiz-adv-x="504" 
d="M106 717h288v-89h-288v89zM173 188c0 -38.667 6.66699 -65.5 20 -80.5s33 -22.5 59 -22.5c25.333 0 44.833 7.5 58.5 22.5s20.5 41.833 20.5 80.5v184c0 39.333 -6.83301 66.333 -20.5 81s-33.167 22 -58.5 22c-26 0 -45.667 -7.33301 -59 -22s-20 -41.667 -20 -81v-184z
M48 380c0 65.333 18.168 113.333 54.501 144s86.166 46 149.499 46s113 -15.167 149 -45.5s54 -78.5 54 -144.5v-200c0 -65.333 -18 -113.333 -54 -144s-85.667 -46 -149 -46c-64 0 -114 15.333 -150 46s-54 78.667 -54 144v200z" />
    <glyph glyph-name="Ohungarumlaut" unicode="&#x150;" horiz-adv-x="571" 
d="M333 855l-88 -105l-50 27l64 119zM468 855l-102 -106l-44 28l73 119zM48 505c0 34.667 6.33301 65 19 91s29.667 47.5 51 64.5s46.5 29.667 75.5 38s59.833 12.5 92.5 12.5s63.334 -4.16699 92.001 -12.5s53.667 -21 75 -38s38.166 -38.5 50.499 -64.5
s18.5 -56.333 18.5 -91v-309c0 -35.333 -6.16699 -65.833 -18.5 -91.5s-29.166 -47.167 -50.499 -64.5s-46.333 -30.166 -75 -38.499s-59.334 -12.5 -92.001 -12.5s-63.5 4.16699 -92.5 12.5s-54.167 21.166 -75.5 38.499s-38.333 38.833 -51 64.5s-19 56.167 -19 91.5v309z
M178 211c0 -21.333 2.83301 -39.166 8.5 -53.499s13.5 -25.833 23.5 -34.5s21.5 -14.834 34.5 -18.501s26.833 -5.5 41.5 -5.5s28.5 1.83301 41.5 5.5s24.333 9.83398 34 18.501s17.334 20.167 23.001 34.5s8.5 32.166 8.5 53.499v278c0 21.333 -2.83301 39.166 -8.5 53.499
s-13.334 25.833 -23.001 34.5s-21 14.834 -34 18.501s-26.833 5.5 -41.5 5.5s-28.5 -1.83301 -41.5 -5.5s-24.5 -9.83398 -34.5 -18.501s-17.833 -20.167 -23.5 -34.5s-8.5 -32.166 -8.5 -53.499v-278z" />
    <glyph glyph-name="ohungarumlaut" unicode="&#x151;" horiz-adv-x="504" 
d="M293 715l-88 -105l-50 27l64 119zM428 715l-102 -106l-44 28l73 119zM173 188c0 -38.667 6.66699 -65.5 20 -80.5s33 -22.5 59 -22.5c25.333 0 44.833 7.5 58.5 22.5s20.5 41.833 20.5 80.5v184c0 39.333 -6.83301 66.333 -20.5 81s-33.167 22 -58.5 22
c-26 0 -45.667 -7.33301 -59 -22s-20 -41.667 -20 -81v-184zM48 380c0 65.333 18.168 113.333 54.501 144s86.166 46 149.499 46s113 -15.167 149 -45.5s54 -78.5 54 -144.5v-200c0 -65.333 -18 -113.333 -54 -144s-85.667 -46 -149 -46c-64 0 -114 15.333 -150 46
s-54 78.667 -54 144v200z" />
    <glyph glyph-name="OE" unicode="&#x152;" horiz-adv-x="790" 
d="M50 496c0 70.667 19.333 124.168 58 160.501s91.334 54.5 158.001 54.5c19.333 0 39.833 -3.5 61.5 -10.5s38.5 -18.167 50.5 -33.5l-1 33h377v-110h-247v-180h201v-109h-201v-191h253v-110h-383l1 31c-11.333 -14.667 -27.5 -25.334 -48.5 -32.001
s-42.167 -10 -63.5 -10c-66.667 0 -119.334 18.167 -158.001 54.5s-58 89.833 -58 160.5v292zM180 216.001c0 -42 8.66699 -72.333 26 -91s41 -28 71 -28c28 0 51.833 10.167 71.5 30.5s29.5 50.833 29.5 91.5v264c0 40.667 -9.83301 71 -29.5 91s-43.5 30 -71.5 30
c-30 0 -53.667 -9.33301 -71 -28s-26 -49 -26 -91v-269z" />
    <glyph glyph-name="oe" unicode="&#x153;" horiz-adv-x="828" 
d="M48 380c0 65.333 18.167 113.334 54.5 144.001s86.5 46 150.5 46c30 0 56.833 -3.83301 80.5 -11.5s43.5 -19.167 59.5 -34.5c32.667 30.667 80 46 142 46c62.667 0 112.334 -15.333 149.001 -46s55 -78.667 55 -144v-146h-282v-41
c-1.33301 -38.667 6.66699 -65.334 24 -80.001s39.333 -22 66 -22c25.333 0 53.5 2.83301 84.5 8.5s59.167 13.5 84.5 23.5v-94c-23.333 -12 -50.5 -21.5 -81.5 -28.5s-63.833 -10.5 -98.5 -10.5c-64.667 0 -113 14.667 -145 44c-16 -15.333 -35.833 -26.5 -59.5 -33.5
s-49.834 -10.5 -78.501 -10.5c-64.667 0 -115 15.333 -151 46s-54 78.667 -54 144v200zM173 196.001c0 -38 6.66602 -64.667 19.999 -80s33.333 -23 60 -23c24 0 43 7.16699 57 21.5s21 38.833 21 73.5v184c0 39.333 -6.66699 66.333 -20 81s-32.666 22 -57.999 22
c-26.667 0 -46.667 -7.33301 -60 -22s-20 -41.667 -20 -81v-176zM614.999 321.001v55c0 38 -6.66699 64.167 -20 78.5s-33 21.5 -59 21.5c-26.667 0 -46.5 -7 -59.5 -21s-20.167 -40.333 -21.5 -79v-55h160z" />
    <glyph glyph-name="Racute" unicode="&#x154;" horiz-adv-x="548" 
d="M299 926l91 -48l-104 -125l-62 31zM258 261l-75.001 0.00195312v-261h-131v700h241c33.333 0 63.333 -4.5 90 -13.5s49.334 -21.833 68.001 -38.5s33 -36.834 43 -60.501s15 -49.834 15 -78.501v-59c0 -42.667 -10.333 -78.667 -31 -108s-49.667 -51 -87 -65l133 -277
h-147zM181.999 370.002h111c28 0 49.5 9.16699 64.5 27.5s22.5 42.5 22.5 72.5v22c0 31.333 -7.5 55.333 -22.5 72s-36.5 25 -64.5 25h-111v-219z" />
    <glyph glyph-name="racute" unicode="&#x155;" horiz-adv-x="320" 
d="M191 786l91 -48l-104 -125l-62 31zM307 462c-25.333 1.33301 -49.332 -2 -71.999 -10s-41.334 -19.667 -56.001 -35v-417h-125v560h74l31 -62c14.667 20 35.167 37 61.5 51s55.5 21 87.5 21z" />
    <glyph glyph-name="uni0156" unicode="&#x156;" horiz-adv-x="548" 
d="M258 261l-75.001 0.00195312v-261h-131v700h241c33.333 0 63.333 -4.5 90 -13.5s49.334 -21.833 68.001 -38.5s33 -36.834 43 -60.501s15 -49.834 15 -78.501v-59c0 -42.667 -10.333 -78.667 -31 -108s-49.667 -51 -87 -65l133 -277h-147zM181.999 370.002h111
c28 0 49.5 9.16699 64.5 27.5s22.5 42.5 22.5 72.5v22c0 31.333 -7.5 55.333 -22.5 72s-36.5 25 -64.5 25h-111v-219zM205.999 -243.998c9.33301 10 17.333 22.668 24 38.001s10.667 29 12 41c-11.333 3.33301 -20.666 10.166 -27.999 20.499s-11 22.166 -11 35.499
c0 20 6 35.5 18 46.5s27.667 16.5 47 16.5s35.166 -5.5 47.499 -16.5s18.5 -26.5 18.5 -46.5c0 -11.333 -1.66699 -23.166 -5 -35.499s-7.83301 -24.5 -13.5 -36.5s-12 -23.5 -19 -34.5s-13.833 -20.5 -20.5 -28.5h-70z" />
    <glyph glyph-name="uni0157" unicode="&#x157;" horiz-adv-x="320" 
d="M307 462c-25.333 1.33301 -49.332 -2 -71.999 -10s-41.334 -19.667 -56.001 -35v-417h-125v560h74l31 -62c14.667 20 35.167 37 61.5 51s55.5 21 87.5 21zM47.001 -244c9.33301 10 17.333 22.668 24 38.001s10.667 29 12 41
c-11.333 3.33301 -20.666 10.166 -27.999 20.499s-11 22.166 -11 35.499c0 20 6 35.5 18 46.5s27.667 16.5 47 16.5s35.166 -5.5 47.499 -16.5s18.5 -26.5 18.5 -46.5c0 -11.333 -1.66699 -23.166 -5 -35.499s-7.83301 -24.5 -13.5 -36.5s-12 -23.5 -19 -34.5
s-13.833 -20.5 -20.5 -28.5h-70z" />
    <glyph glyph-name="Rcaron" unicode="&#x158;" horiz-adv-x="548" 
d="M239 888l38 -69l40 69h102l-92 -132h-98l-94 132h104zM258 261l-75.001 0.00195312v-261h-131v700h241c33.333 0 63.333 -4.5 90 -13.5s49.334 -21.833 68.001 -38.5s33 -36.834 43 -60.501s15 -49.834 15 -78.501v-59c0 -42.667 -10.333 -78.667 -31 -108
s-49.667 -51 -87 -65l133 -277h-147zM181.999 370.002h111c28 0 49.5 9.16699 64.5 27.5s22.5 42.5 22.5 72.5v22c0 31.333 -7.5 55.333 -22.5 72s-36.5 25 -64.5 25h-111v-219z" />
    <glyph glyph-name="rcaron" unicode="&#x159;" horiz-adv-x="320" 
d="M129 748l38 -69l40 69h102l-92 -132h-98l-94 132h104zM307 462c-25.333 1.33301 -49.332 -2 -71.999 -10s-41.334 -19.667 -56.001 -35v-417h-125v560h74l31 -62c14.667 20 35.167 37 61.5 51s55.5 21 87.5 21z" />
    <glyph glyph-name="Sacute" unicode="&#x15a;" horiz-adv-x="536" 
d="M319 926l91 -48l-104 -125l-62 31zM505 203c0 -72.667 -21.332 -126.497 -63.999 -161.497s-102.334 -52.5 -179.001 -52.5c-41.333 0 -79 3.33301 -113 10s-66.667 16.334 -98 29.001v114c30.667 -12.667 64 -23 100 -31s71 -12 105 -12
c35.333 0 63.5 7.83301 84.5 23.5s31.5 39.167 31.5 70.5c0 34 -7.5 58.833 -22.5 74.5s-37.5 25.5 -67.5 29.5c-28 3.33301 -55.5 8.66602 -82.5 15.999s-50.833 18.666 -71.5 33.999s-37.334 35.5 -50.001 60.5s-19 56.5 -19 94.5c0 65.333 17.667 116.5 53 153.5
s90 55.5 164 55.5c38 0 73.667 -3.33301 107 -10s64.333 -16 93 -28v-108c-30 12 -61.667 21 -95 27s-65.333 9 -96 9c-32 0 -55.833 -8.16699 -71.5 -24.5s-23.5 -37.5 -23.5 -63.5c0 -18 2.83301 -32.833 8.5 -44.5s13.5 -21.334 23.5 -29.001s21.5 -13.334 34.5 -17.001
s27.167 -6.5 42.5 -8.5c28.667 -3.33301 55.5 -9 80.5 -17s46.833 -20 65.5 -36s33.334 -36.667 44.001 -62s16 -57.333 16 -96z" />
    <glyph glyph-name="sacute" unicode="&#x15b;" horiz-adv-x="458" 
d="M275 786l91 -48l-104 -125l-62 31zM298 150c0 14.667 -2.83691 26.5039 -8.50391 35.5039s-13.667 16.5 -24 22.5s-22.666 11.167 -36.999 15.5l-46.5 13.5c-19.333 5.33301 -37.666 12.166 -54.999 20.499s-32.666 19.333 -45.999 33s-23.833 30.167 -31.5 49.5
s-11.5 43 -11.5 71c0 49.333 14.833 88.166 44.5 116.499s76.167 42.5 139.5 42.5c32 0 62 -3 90 -9s52.667 -14.667 74 -26v-93c-29.333 11.333 -55.833 19.5 -79.5 24.5s-48.834 7.5 -75.501 7.5c-45.333 0 -68 -20.667 -68 -62c0 -14 2.83301 -25.5 8.5 -34.5
s13.5 -16.833 23.5 -23.5s22 -12.167 36 -16.5l45 -13.5c19.333 -5.33301 37.833 -11.833 55.5 -19.5s33.167 -17.834 46.5 -30.501s24 -28.334 32 -47.001s12 -42 12 -70c0 -54.667 -17 -96.167 -51 -124.5s-84.333 -42.5 -151 -42.5
c-35.333 0 -68.166 2.83301 -98.499 8.5s-58.166 13.834 -83.499 24.501v99c26.667 -10.667 54.667 -19.334 84 -26.001s59.333 -10 90 -10c57.333 0 86 21.333 86 64z" />
    <glyph glyph-name="Scedilla" unicode="&#x15e;" horiz-adv-x="536" 
d="M299 414c28.667 -3.33301 55.5 -8.99902 80.5 -16.999s46.833 -20 65.5 -36s33.334 -36.667 44.001 -62s16 -57.333 16 -96c0 -65.333 -17.333 -115.5 -52 -150.5s-84 -55.5 -148 -61.5l-9 -27c15.333 -4 28.333 -11 39 -21s16 -24 16 -42
c0 -13.333 -3.16699 -24.666 -9.5 -33.999s-14.5 -16.666 -24.5 -21.999s-21 -9.16602 -33 -11.499s-23.667 -3.5 -35 -3.5c-21.333 0 -41.333 3 -60 9v46c11.333 -3.33301 23 -5 35 -5c22.667 0 34 8 34 24c0 8 -3 13.833 -9 17.5s-12.667 6.16699 -20 7.5
c-8 2 -17.333 2.66699 -28 2l23 59c-32.667 2 -63.167 6.16699 -91.5 12.5s-55.5 14.833 -81.5 25.5v114c30.667 -12.667 64 -23 100 -31s71 -12 105 -12c35.333 0 63.5 7.83301 84.5 23.5s31.5 39.167 31.5 70.5c0 34 -7.5 58.833 -22.5 74.5s-37.5 25.5 -67.5 29.5
c-28 3.33301 -55.5 8.66602 -82.5 15.999s-50.833 18.666 -71.5 33.999s-37.334 35.5 -50.001 60.5s-19 56.5 -19 94.5c0 65.333 17.667 116.5 53 153.5s90 55.5 164 55.5c38 0 73.667 -3.33301 107 -10s64.333 -16 93 -28v-108c-30 12 -61.667 21 -95 27s-65.333 9 -96 9
c-32 0 -55.833 -8.16699 -71.5 -24.5s-23.5 -37.5 -23.5 -63.5c0 -18 2.83301 -32.833 8.5 -44.5s13.5 -21.334 23.5 -29.001s21.5 -13.334 34.5 -17.001s27.167 -6.5 42.5 -8.5z" />
    <glyph glyph-name="scedilla" unicode="&#x15f;" horiz-adv-x="458" 
d="M276 324c19.333 -5.33301 37.8291 -11.8311 55.4961 -19.498s33.167 -17.834 46.5 -30.501s24 -28.334 32 -47.001s12 -42 12 -70c0 -48.667 -13.5 -86.834 -40.5 -114.501s-66.5 -44.5 -118.5 -50.5l-9 -25c15.333 -4 28.5 -11 39.5 -21s16.5 -24 16.5 -42
c0 -13.333 -3.16699 -24.666 -9.5 -33.999s-14.5 -16.666 -24.5 -21.999s-21.167 -9.16602 -33.5 -11.499s-24.166 -3.5 -35.499 -3.5c-20.667 0 -40.334 3 -59.001 9v46c4.66699 -1.33301 10.334 -2.5 17.001 -3.5s12.667 -1.5 18 -1.5c23.333 0 35 8 35 24
c0 8 -3 13.833 -9 17.5s-12.667 6.16699 -20 7.5c-8 2 -17.333 2.66699 -28 2l22 57c-27.333 1.33301 -53.166 4.83301 -77.499 10.5s-46.833 12.834 -67.5 21.501v99c26.667 -10.667 54.667 -19.334 84 -26.001s59.333 -10 90 -10c57.333 0 86 21.333 86 64
c0 14.667 -2.83301 26.5 -8.5 35.5s-13.667 16.5 -24 22.5s-22.666 11.167 -36.999 15.5l-46.5 13.5c-19.333 5.33301 -37.666 12.166 -54.999 20.499s-32.666 19.333 -45.999 33s-23.833 30.167 -31.5 49.5s-11.5 43 -11.5 71c0 49.333 14.833 88.166 44.5 116.499
s76.167 42.5 139.5 42.5c32 0 62 -3 90 -9s52.667 -14.667 74 -26v-93c-29.333 11.333 -55.833 19.5 -79.5 24.5s-48.834 7.5 -75.501 7.5c-45.333 0 -68 -20.667 -68 -62c0 -14 2.83301 -25.5 8.5 -34.5s13.5 -16.833 23.5 -23.5s22 -12.167 36 -16.5z" />
    <glyph glyph-name="Scaron" unicode="&#x160;" horiz-adv-x="536" 
d="M237 888l38 -69l40 69h102l-92 -132h-98l-94 132h104zM505 203c0 -72.667 -21.332 -126.497 -63.999 -161.497s-102.334 -52.5 -179.001 -52.5c-41.333 0 -79 3.33301 -113 10s-66.667 16.334 -98 29.001v114c30.667 -12.667 64 -23 100 -31s71 -12 105 -12
c35.333 0 63.5 7.83301 84.5 23.5s31.5 39.167 31.5 70.5c0 34 -7.5 58.833 -22.5 74.5s-37.5 25.5 -67.5 29.5c-28 3.33301 -55.5 8.66602 -82.5 15.999s-50.833 18.666 -71.5 33.999s-37.334 35.5 -50.001 60.5s-19 56.5 -19 94.5c0 65.333 17.667 116.5 53 153.5
s90 55.5 164 55.5c38 0 73.667 -3.33301 107 -10s64.333 -16 93 -28v-108c-30 12 -61.667 21 -95 27s-65.333 9 -96 9c-32 0 -55.833 -8.16699 -71.5 -24.5s-23.5 -37.5 -23.5 -63.5c0 -18 2.83301 -32.833 8.5 -44.5s13.5 -21.334 23.5 -29.001s21.5 -13.334 34.5 -17.001
s27.167 -6.5 42.5 -8.5c28.667 -3.33301 55.5 -9 80.5 -17s46.833 -20 65.5 -36s33.334 -36.667 44.001 -62s16 -57.333 16 -96z" />
    <glyph glyph-name="scaron" unicode="&#x161;" horiz-adv-x="458" 
d="M195 748l38 -69l40 69h102l-92 -132h-98l-94 132h104zM298 150c0 14.667 -2.83691 26.5039 -8.50391 35.5039s-13.667 16.5 -24 22.5s-22.666 11.167 -36.999 15.5l-46.5 13.5c-19.333 5.33301 -37.666 12.166 -54.999 20.499s-32.666 19.333 -45.999 33
s-23.833 30.167 -31.5 49.5s-11.5 43 -11.5 71c0 49.333 14.833 88.166 44.5 116.499s76.167 42.5 139.5 42.5c32 0 62 -3 90 -9s52.667 -14.667 74 -26v-93c-29.333 11.333 -55.833 19.5 -79.5 24.5s-48.834 7.5 -75.501 7.5c-45.333 0 -68 -20.667 -68 -62
c0 -14 2.83301 -25.5 8.5 -34.5s13.5 -16.833 23.5 -23.5s22 -12.167 36 -16.5l45 -13.5c19.333 -5.33301 37.833 -11.833 55.5 -19.5s33.167 -17.834 46.5 -30.501s24 -28.334 32 -47.001s12 -42 12 -70c0 -54.667 -17 -96.167 -51 -124.5s-84.333 -42.5 -151 -42.5
c-35.333 0 -68.166 2.83301 -98.499 8.5s-58.166 13.834 -83.499 24.501v99c26.667 -10.667 54.667 -19.334 84 -26.001s59.333 -10 90 -10c57.333 0 86 21.333 86 64z" />
    <glyph glyph-name="uni0162" unicode="&#x162;" horiz-adv-x="473" 
d="M302 0l-9 -33c15.333 -4 28.333 -11 39 -21s16 -24 16 -42c0 -14 -3.33301 -25.5 -10 -34.5s-15 -16.333 -25 -22s-21.167 -9.5 -33.5 -11.5s-24.166 -3 -35.499 -3c-10 0 -20.333 0.833008 -31 2.5s-20.667 4.16699 -30 7.5l6 45c10 -3.33301 20.333 -5 31 -5
c23.333 0 35 8.33301 35 25c0 7.33301 -3 13 -9 17s-12.667 6.66699 -20 8c-8.66699 2 -18.334 2.33301 -29.001 1l25 66h-50v590h-162v110h454v-110h-162v-590z" />
    <glyph glyph-name="uni0163" unicode="&#x163;" horiz-adv-x="328" 
d="M227 0l-11 -33.002c15.333 -4 28.333 -11 39 -21s16 -24 16 -42c0 -13.333 -3.16699 -24.666 -9.5 -33.999s-14.5 -16.666 -24.5 -21.999s-21 -9.16602 -33 -11.499s-24 -3.5 -36 -3.5c-10.667 0 -20.667 0.666992 -30 2s-18.666 3.66602 -27.999 6.99902v45
c4.66699 -1.33301 10.167 -2.33301 16.5 -3s12.166 -1 17.499 -1c22.667 0 34 8 34 24c0 8 -3 13.833 -9 17.5s-12.667 6.16699 -20 7.5c-8 2 -17.333 2.66699 -28 2l26 66h-46v463h-99v97h99v104l126 19v-123h99v-97h-99v-463z" />
    <glyph glyph-name="Tcaron" unicode="&#x164;" horiz-adv-x="473" 
d="M199 888l39 -69l39 69h101l-92 -132h-98l-93 132h104zM172 590h-162v110h454v-110h-162v-590h-130v590z" />
    <glyph glyph-name="tcaron" unicode="&#x165;" horiz-adv-x="328" 
d="M101 463h-99v97h99v104l126 19v-123h99v-97h-99v-463h-126v463zM348 564c9.33301 10 17.333 22.668 24 38.001s10.667 29 12 41c-11.333 3.33301 -20.666 10.166 -27.999 20.499s-11 22.166 -11 35.499c0 20 6 35.5 18 46.5s27.667 16.5 47 16.5
s35.166 -5.5 47.499 -16.5s18.5 -26.5 18.5 -46.5c0 -11.333 -1.66699 -23.166 -5 -35.499s-7.83301 -24.5 -13.5 -36.5s-12 -23.5 -19 -34.5s-13.833 -20.5 -20.5 -28.5h-70z" />
    <glyph glyph-name="Tbar" unicode="&#x166;" horiz-adv-x="473" 
d="M92 857h288v-89h-288v89zM172 590h-162v110h454v-110h-162v-590h-130v590z" />
    <glyph glyph-name="tbar" unicode="&#x167;" horiz-adv-x="328" 
d="M227 463v-88h85v-89h-85v-286h-126v286h-87v89h87v88h-99v97h99v106l126 17v-123h99v-97h-99z" />
    <glyph glyph-name="Utilde" unicode="&#x168;" horiz-adv-x="561" 
d="M179 201c0 -20.667 2.33496 -37.4971 7.00195 -50.4971s11.167 -23.333 19.5 -31s18.5 -12.834 30.5 -15.501s25.333 -4 40 -4c21.333 0 41.666 5.66699 60.999 17s33.666 24.666 42.999 39.999v543h130v-700h-77l-33 60c-8 -10 -18 -19.167 -30 -27.5
s-25.333 -15.833 -40 -22.5s-30.167 -11.834 -46.5 -15.501s-32.5 -5.5 -48.5 -5.5c-64.667 0 -112 16.167 -142 48.5s-45 83.5 -45 153.5v509h131v-499zM99.002 755.003c0 38 8.33203 68.999 24.999 92.999s42 36 76 36c16.667 0 32 -2.33301 46 -7
s26.833 -9.83398 38.5 -15.501l32 -15.5c9.66699 -4.66699 18.5 -7 26.5 -7c12 0 20.333 4 25 12s7.33398 18.667 8.00098 32h84c0 -38 -8.5 -69 -25.5 -93s-42.5 -36 -76.5 -36c-16 0 -30.667 2.33301 -44 7s-25.5 9.83398 -36.5 15.501s-21.5 10.834 -31.5 15.501
s-20 7 -30 7c-12 0 -20.5 -4 -25.5 -12s-7.5 -18.667 -7.5 -32h-84z" />
    <glyph glyph-name="utilde" unicode="&#x169;" horiz-adv-x="501" 
d="M240 93c18 0 34.5 5.33301 49.5 16s26.5 23.667 34.5 39v412h125v-560h-74l-32 56c-15.333 -18.667 -36 -34.334 -62 -47.001s-54 -19 -84 -19c-53.333 0 -91 14.333 -113 43s-33 71.334 -33 128.001v399h125v-375c0 -34.667 4.33301 -58.667 13 -72s25.667 -20 51 -20z
M69 625c0 38 8.33203 68.999 24.999 92.999s42 36 76 36c16.667 0 32 -2.33301 46 -7s26.833 -9.83398 38.5 -15.501l32 -15.5c9.66699 -4.66699 18.5 -7 26.5 -7c12 0 20.333 4 25 12s7.33398 18.667 8.00098 32h84c0 -38 -8.5 -69 -25.5 -93s-42.5 -36 -76.5 -36
c-16 0 -30.667 2.33301 -44 7s-25.5 9.83398 -36.5 15.501s-21.5 10.834 -31.5 15.501s-20 7 -30 7c-12 0 -20.5 -4 -25.5 -12s-7.5 -18.667 -7.5 -32h-84z" />
    <glyph glyph-name="Umacron" unicode="&#x16a;" horiz-adv-x="561" 
d="M134 841h288v-89h-288v89zM179 201c0 -20.667 2.33496 -37.4971 7.00195 -50.4971s11.167 -23.333 19.5 -31s18.5 -12.834 30.5 -15.501s25.333 -4 40 -4c21.333 0 41.666 5.66699 60.999 17s33.666 24.666 42.999 39.999v543h130v-700h-77l-33 60
c-8 -10 -18 -19.167 -30 -27.5s-25.333 -15.833 -40 -22.5s-30.167 -11.834 -46.5 -15.501s-32.5 -5.5 -48.5 -5.5c-64.667 0 -112 16.167 -142 48.5s-45 83.5 -45 153.5v509h131v-499z" />
    <glyph glyph-name="umacron" unicode="&#x16b;" horiz-adv-x="501" 
d="M105 717h288v-89h-288v89zM240 93c18 0 34.5 5.33301 49.5 16s26.5 23.667 34.5 39v412h125v-560h-74l-32 56c-15.333 -18.667 -36 -34.334 -62 -47.001s-54 -19 -84 -19c-53.333 0 -91 14.333 -113 43s-33 71.334 -33 128.001v399h125v-375
c0 -34.667 4.33301 -58.667 13 -72s25.667 -20 51 -20z" />
    <glyph glyph-name="Uring" unicode="&#x16e;" horiz-adv-x="559" 
d="M200 835c0 24 7.66699 42.667 23 56s33.666 20 54.999 20c22.667 0 41.834 -6.66699 57.501 -20s23.5 -32 23.5 -56v-14c0 -25.333 -7.83301 -44.5 -23.5 -57.5s-34.834 -19.5 -57.501 -19.5c-21.333 0 -39.666 6.5 -54.999 19.5s-23 32.167 -23 57.5v14zM278 790
c20 0 30 12.333 30 37c0 25.333 -10 38 -30 38c-18 0 -27 -12.667 -27 -38c0 -24.667 9 -37 27 -37zM179 201c0 -20.667 2.33496 -37.4971 7.00195 -50.4971s11.167 -23.333 19.5 -31s18.5 -12.834 30.5 -15.501s25.333 -4 40 -4c21.333 0 41.666 5.66699 60.999 17
s33.666 24.666 42.999 39.999v543h130v-700h-77l-33 60c-8 -10 -18 -19.167 -30 -27.5s-25.333 -15.833 -40 -22.5s-30.167 -11.834 -46.5 -15.501s-32.5 -5.5 -48.5 -5.5c-64.667 0 -112 16.167 -142 48.5s-45 83.5 -45 153.5v509h131v-499z" />
    <glyph glyph-name="uring" unicode="&#x16f;" horiz-adv-x="501" 
d="M170 693c0 23.333 7.66699 42.166 23 56.499s34 21.5 56 21.5c22.667 0 41.5 -7.16699 56.5 -21.5s22.5 -33.166 22.5 -56.499v-10c0 -25.333 -7.5 -44.833 -22.5 -58.5s-33.833 -20.5 -56.5 -20.5c-22 0 -40.667 6.83301 -56 20.5s-23 33.167 -23 58.5v10zM249 650
c18.667 0 28 12.333 28 37s-9.33301 37 -28 37s-28 -12.333 -28 -37s9.33301 -37 28 -37zM240 93c18 0 34.5 5.33301 49.5 16s26.5 23.667 34.5 39v412h125v-560h-74l-32 56c-15.333 -18.667 -36 -34.334 -62 -47.001s-54 -19 -84 -19c-53.333 0 -91 14.333 -113 43
s-33 71.334 -33 128.001v399h125v-375c0 -34.667 4.33301 -58.667 13 -72s25.667 -20 51 -20z" />
    <glyph glyph-name="Uhungarumlaut" unicode="&#x170;" horiz-adv-x="561" 
d="M179 201c0 -20.667 2.33496 -37.4971 7.00195 -50.4971s11.167 -23.333 19.5 -31s18.5 -12.834 30.5 -15.501s25.333 -4 40 -4c21.333 0 41.666 5.66699 60.999 17s33.666 24.666 42.999 39.999v543h130v-700h-77l-33 60c-8 -10 -18 -19.167 -30 -27.5
s-25.333 -15.833 -40 -22.5s-30.167 -11.834 -46.5 -15.501s-32.5 -5.5 -48.5 -5.5c-64.667 0 -112 16.167 -142 48.5s-45 83.5 -45 153.5v509h131v-499zM324.002 855.003l-88 -105l-50 27l64 119zM459.002 855.003l-102 -106l-44 28l73 119z" />
    <glyph glyph-name="uhungarumlaut" unicode="&#x171;" horiz-adv-x="501" 
d="M240 93c18 0 34.5 5.33301 49.5 16s26.5 23.667 34.5 39v412h125v-560h-74l-32 56c-15.333 -18.667 -36 -34.334 -62 -47.001s-54 -19 -84 -19c-53.333 0 -91 14.333 -113 43s-33 71.334 -33 128.001v399h125v-375c0 -34.667 4.33301 -58.667 13 -72s25.667 -20 51 -20z
M290 715l-88 -105l-50 27l64 119zM425 715l-102 -106l-44 28l73 119z" />
    <glyph glyph-name="Uogonek" unicode="&#x172;" horiz-adv-x="561" 
d="M459 -72c0 -21.333 10.335 -31.9961 31.002 -31.9961c6.66699 0 13.334 0.666992 20.001 2l21 4v-53c-10.667 -4.66699 -22.334 -7.83398 -35.001 -9.50098s-25.667 -2.5 -39 -2.5c-26 0 -46.5 6 -61.5 18s-22.5 31.333 -22.5 58c0 17.333 6.16699 34.5 18.5 51.5
s25.833 29.833 40.5 38.5l-32 57c-8 -10 -18 -19.167 -30 -27.5s-25.333 -15.833 -40 -22.5s-30.167 -11.834 -46.5 -15.501s-32.5 -5.5 -48.5 -5.5c-64.667 0 -112 16.167 -142 48.5s-45 83.5 -45 153.5v509h131v-499c0 -20.667 2.33301 -37.5 7 -50.5
s11.167 -23.333 19.5 -31s18.5 -12.834 30.5 -15.501s25.333 -4 40 -4c21.333 0 41.666 5.66699 60.999 17s33.666 24.666 42.999 39.999v543h130v-700c-14 -9.33301 -26 -20.333 -36 -33s-15 -25.667 -15 -39z" />
    <glyph glyph-name="uogonek" unicode="&#x173;" horiz-adv-x="501" 
d="M470 -151c-10 -4.66699 -20.498 -7.83203 -31.498 -9.49902s-23.167 -2.5 -36.5 -2.5c-26 0 -47.5 6 -64.5 18s-25.5 31.333 -25.5 58c0 17.333 6.16699 34.333 18.5 51s27.166 29.334 44.499 38.001l-32 54c-15.333 -18.667 -33.833 -34.334 -55.5 -47.001
s-47.5 -19 -77.5 -19c-54 0 -94 16.333 -120 49s-39 78.667 -39 138v383h125v-372c0 -34.667 4.33301 -59.167 13 -73.5s25.667 -21.5 51 -21.5c18 0 34.5 5.33301 49.5 16s26.5 23.667 34.5 39v412h125v-560c-14.667 -9.33301 -26.834 -20.333 -36.501 -33
s-14.5 -25.667 -14.5 -39c0 -21.333 10 -32 30 -32c6 0 13 0.666992 21 2s15 2.66602 21 3.99902v-53z" />
    <glyph glyph-name="Wcircumflex" unicode="&#x174;" horiz-adv-x="862" 
d="M862 700l-192 -700.001h-131l-90 399c-4.66699 18.667 -8.5 36.167 -11.5 52.5s-5.16699 33.166 -6.5 50.499c-1.33301 -17.333 -3.5 -34.166 -6.5 -50.499s-6.5 -33.833 -10.5 -52.5l-91 -399h-130l-193 700h135l95 -428c2 -12.667 4.33301 -26.5 7 -41.5
s5 -29.167 7 -42.5l5.5 -35.5c1.66699 -10.333 2.5 -17.166 2.5 -20.499c0.666992 4 1.66699 11.167 3 21.5s3.16602 22.166 5.49902 35.499l7.5 42c2.66699 14.667 5.33398 28 8.00098 40l89 429h133l89 -428c2.66699 -13.333 5.33398 -27.666 8.00098 -42.999l7.5 -44
c2.33301 -14 4.16602 -26 5.49902 -36s2 -16 2 -18c0.666992 2 1.66699 8 3 18s3.16602 22 5.49902 36l7.5 44c2.66699 15.333 5.33398 29.333 8.00098 42l95 429h133zM386 887.999h98l91 -132h-102l-38 69l-38 -69h-103z" />
    <glyph glyph-name="wcircumflex" unicode="&#x175;" horiz-adv-x="722" 
d="M316 748h98l91 -132h-102l-39 69l-37 -69h-104zM722 560l-157.001 -560.003h-121l-63 276c-5.33301 22.667 -9.5 44.334 -12.5 65.001s-5.83301 43.334 -8.5 68.001c-0.666992 -25.333 -2.66699 -48.333 -6 -69s-7.66602 -42.334 -12.999 -65.001l-66 -275h-119l-155 560
h129l67 -306l8 -46c2.66699 -15.333 5 -29.333 7 -42l5 -31c1.33301 -8 2 -12.667 2 -14c0 1.33301 0.5 6.16602 1.5 14.499s2.33301 18.666 4 30.999s3.66699 26 6 41s5.16602 30.167 8.49902 45.5l68 307h111l69 -306c3.33301 -15.333 6.33301 -30.666 9 -45.999
s4.83398 -29.166 6.50098 -41.499s3 -22.666 4 -30.999s1.5 -13.166 1.5 -14.499c0 1.33301 0.666992 6 2 14s2.83301 18.333 4.5 31s3.66699 26.5 6 41.5s4.83301 30.167 7.5 45.5l66 307h128z" />
    <glyph glyph-name="Ycircumflex" unicode="&#x176;" horiz-adv-x="551" 
d="M148 700l116.001 -227c12.667 -26.667 22.5 -48.667 29.5 -66s11.167 -28 12.5 -32c1.33301 4 5.16602 14.5 11.499 31.5s16.5 39.167 30.5 66.5l115 227h144l-238 -429v-271h-130v269l-239 431h148zM257.001 888h98l92 -132h-103l-38 69l-38 -69h-103z" />
    <glyph glyph-name="ycircumflex" unicode="&#x177;" 
d="M199 748h98l91 -132h-102l-39 69l-37 -69h-104zM329 560l124.001 0.000976562v-554c0 -32.667 -4.5 -59.667 -13.5 -81s-22.167 -38.333 -39.5 -51s-38.5 -21.5 -63.5 -26.5s-53.5 -7.5 -85.5 -7.5c-33.333 0 -63.666 2.83301 -90.999 8.5s-52.666 13.5 -75.999 23.5v97
c23.333 -10 48.166 -18 74.499 -24s53.5 -9 81.5 -9c12 0 23.5 1 34.5 3s20.5 6.16699 28.5 12.5s14.333 15.333 19 27s7 26.834 7 45.501v40c-14.667 -14 -31.834 -25.667 -51.501 -35s-42.167 -14 -67.5 -14c-54 0 -94 16.333 -120 49s-39 79 -39 139v357h124v-346
c0 -34.667 4.66699 -59.334 14 -74.001s26.666 -22 51.999 -22c18.667 0 36 6.16699 52 18.5s28 26.166 36 41.499v382z" />
    <glyph glyph-name="Ydieresis" unicode="&#x178;" horiz-adv-x="608" 
d="M148 700l116.001 -227.001c13.333 -27.333 23.333 -49.666 30 -66.999l12 -31c1.33301 3.33301 5.16602 13.5 11.499 30.5s16.5 39.5 30.5 67.5l115 227h144l-238 -429v-271h-130v269l-239 431h148zM258.001 817.999c0 -20.667 -5 -37.5 -15 -50.5
s-26.333 -19.5 -49 -19.5c-22 0 -38 6.5 -48 19.5s-15 29.833 -15 50.5s5 37.667 15 51s26 20 48 20c22.667 0 39 -6.66699 49 -20s15 -30.333 15 -51zM479.001 817.999c0 -20.667 -5 -37.5 -15 -50.5s-26.333 -19.5 -49 -19.5c-21.333 0 -37 6.5 -47 19.5
s-15 29.833 -15 50.5s5 37.667 15 51s25.667 20 47 20c22.667 0 39 -6.66699 49 -20s15 -30.333 15 -51z" />
    <glyph glyph-name="Zacute" unicode="&#x179;" 
d="M280 926l91 -48l-104 -125l-62 31zM26 97l290 493h-280v110h432v-101l-288 -489h301v-110h-455v97z" />
    <glyph glyph-name="zacute" unicode="&#x17a;" horiz-adv-x="439" 
d="M242 786l91 -48l-104 -125l-62 31zM29 91l227 368h-223v101h373v-88l-229 -371h240v-101h-388v91z" />
    <glyph glyph-name="Zdotaccent" unicode="&#x17b;" 
d="M26 97l290 493h-280v110h432v-101l-288 -489h301v-110h-455v97zM320 824c0 -23.333 -6.66699 -40.666 -20 -51.999s-31 -17 -53 -17s-39.833 5.66699 -53.5 17s-20.5 28.666 -20.5 51.999c0 24.667 6.83301 43 20.5 55s31.5 18 53.5 18s39.667 -6 53 -18
s20 -30.333 20 -55z" />
    <glyph glyph-name="zdotaccent" unicode="&#x17c;" horiz-adv-x="439" 
d="M29 91l227 368h-223v101h373v-88l-229 -371h240v-101h-388v91zM291 684c0 -23.333 -6.66699 -40.666 -20 -51.999s-31 -17 -53 -17s-39.833 5.66699 -53.5 17s-20.5 28.666 -20.5 51.999c0 24.667 6.83301 43 20.5 55s31.5 18 53.5 18s39.667 -6 53 -18
s20 -30.333 20 -55z" />
    <glyph glyph-name="Zcaron" unicode="&#x17d;" 
d="M220 888l38 -69l40 69h102l-92 -132h-98l-94 132h104zM26 97l290 493h-280v110h432v-101l-288 -489h301v-110h-455v97z" />
    <glyph glyph-name="zcaron" unicode="&#x17e;" horiz-adv-x="439" 
d="M177 748l38 -69l40 69h102l-92 -132h-98l-94 132h104zM29 91l227 368h-223v101h373v-88l-229 -371h240v-101h-388v91z" />
    <glyph glyph-name="uni01EA" unicode="&#x1ea;" horiz-adv-x="571" 
d="M48 505c0 34.667 6.33301 65.001 19 91.001s29.667 47.5 51 64.5s46.5 29.667 75.5 38s59.833 12.5 92.5 12.5s63.5 -4.16699 92.5 -12.5s54.167 -21 75.5 -38s38.333 -38.5 51 -64.5s19 -56.333 19 -91v-309c0 -31.333 -5 -58.833 -15 -82.5s-23.667 -44 -41 -61
s-37.833 -30.5 -61.5 -40.5s-49.167 -16.667 -76.5 -20c-11.333 -9.33301 -20.333 -19.333 -27 -30s-10 -21.667 -10 -33c0 -22 9.66699 -33 29 -33c5.33301 0 10.833 0.5 16.5 1.5l19.5 3.5l9 -52c-9.33301 -5.33301 -20.333 -8.66602 -33 -9.99902s-25.667 -2 -39 -2
c-26 0 -47.5 6 -64.5 18s-25.5 31.333 -25.5 58c0 14 4.16699 28.167 12.5 42.5s18.5 26.166 30.5 35.499c-28.667 2.66699 -55.167 9 -79.5 19s-45.5 23.5 -63.5 40.5s-32 37.667 -42 62s-15 52.166 -15 83.499v309zM393 489.001c0 21.333 -2.83301 39.166 -8.5 53.499
s-13.334 25.833 -23.001 34.5s-21 14.834 -34 18.501s-26.833 5.5 -41.5 5.5s-28.5 -1.83301 -41.5 -5.5s-24.5 -9.83398 -34.5 -18.501s-17.833 -20.167 -23.5 -34.5s-8.5 -32.166 -8.5 -53.499v-277c0 -21.333 2.83301 -39.166 8.5 -53.499s13.5 -25.833 23.5 -34.5
s21.5 -14.834 34.5 -18.501s26.833 -5.5 41.5 -5.5s28.5 1.83301 41.5 5.5s24.333 9.83398 34 18.501s17.334 20.167 23.001 34.5s8.5 32.166 8.5 53.499v277z" />
    <glyph glyph-name="uni01EB" unicode="&#x1eb;" horiz-adv-x="504" 
d="M48 380c0 65.333 18.166 113.335 54.499 144.002s86.5 46 150.5 46c62.667 0 112 -15.167 148 -45.5s54 -78.5 54 -144.5v-200c0 -58.667 -14.333 -103.167 -43 -133.5s-69 -48.5 -121 -54.5c-11.333 -9.33301 -20.666 -19.5 -27.999 -30.5s-11 -22.167 -11 -33.5
c0 -21.333 10 -32 30 -32c6 0 11.833 0.5 17.5 1.5s11.834 2.16699 18.501 3.5l11 -52c-10.667 -4.66699 -22.334 -7.83398 -35.001 -9.50098s-25.667 -2.5 -39 -2.5c-25.333 0 -46.5 6 -63.5 18s-25.5 31.333 -25.5 58c0 14.667 4.5 29.167 13.5 43.5
s19.833 26.166 32.5 35.499c-51.333 6 -91.5 24.167 -120.5 54.5s-43.5 74.833 -43.5 133.5v200zM330.999 372.002c0 39.333 -6.66699 66.333 -20 81s-32.666 22 -57.999 22c-26.667 0 -46.667 -7.33301 -60 -22s-20 -41.667 -20 -81v-184
c0 -38.667 6.66699 -65.334 20 -80.001s33.333 -22 60 -22c25.333 0 44.666 7.33301 57.999 22s20 41.334 20 80.001v184z" />
    <glyph glyph-name="AEacute" unicode="&#x1fc;" horiz-adv-x="843" 
d="M415 269h-187l-94 -269h-134l252 700h553v-111h-259v-218h216v-109h-216v-152h266v-110h-397v269zM263 371h152v221h-74zM468 926l91 -48l-104 -125l-62 31z" />
    <glyph glyph-name="aeacute" unicode="&#x1fd;" horiz-adv-x="783" 
d="M452 786l91 -48l-104 -125l-62 31zM455 234l0.000976562 -41c-0.666992 -19.333 1.33301 -35.5 6 -48.5s11 -23.5 19 -31.5s17.667 -13.667 29 -17s23.666 -5 36.999 -5c29.333 0 58.833 3 88.5 9s56.5 13.667 80.5 23v-95c-25.333 -12 -54.333 -21.333 -87 -28
s-66.667 -10 -102 -10c-77.333 0 -132.333 24.667 -165 74c-17.333 -23.333 -38.5 -41.5 -63.5 -54.5s-52.5 -19.5 -82.5 -19.5c-54 0 -94.833 16.5 -122.5 49.5s-41.5 80.167 -41.5 141.5v193c0 65.333 14 114.333 42 147s74.333 49 139 49c32 0 61 -2.83301 87 -8.5
s51.667 -15.167 77 -28.5c18 13.333 38.5 22.833 61.5 28.5s48.167 8.5 75.5 8.5c63.333 0 113.333 -15.333 150 -46s55 -78.667 55 -144v-146h-283zM330.001 454c-14.667 5.33301 -29 9 -43 11s-29 3 -45 3c-21.333 0 -37.833 -6.33301 -49.5 -19s-17.5 -36 -17.5 -70v-187
c0 -36 5 -61.5 15 -76.5s27.667 -22.5 53 -22.5c19.333 0 36.5 5.5 51.5 16.5s26.833 24.5 35.5 40.5v304zM614.001 369c0 38 -6.66699 64 -20 78s-33 21 -59 21s-46 -5.66699 -60 -17s-21 -29 -21 -53v-74h160v45z" />
    <glyph glyph-name="Oslashacute" unicode="&#x1fe;" horiz-adv-x="571" 
d="M2 162l46.002 40.999v302c0 34.667 6.33301 65 19 91s29.667 47.5 51 64.5s46.5 29.667 75.5 38s59.833 12.5 92.5 12.5c46 0 87.833 -8.33301 125.5 -25s66.167 -42 85.5 -76l74 67v-152l-47 -42v-287c0 -35.333 -6.33301 -65.833 -19 -91.5s-29.667 -47.167 -51 -64.5
s-46.5 -30.166 -75.5 -38.499s-59.833 -12.5 -92.5 -12.5c-44.667 0 -85.334 7.66699 -122.001 23s-65.334 39 -86.001 71l-76 -69v148zM178.002 320.999l213.001 192.999c-4.66699 32.667 -16.834 55.334 -36.501 68.001s-42.5 19 -68.5 19
c-14.667 0 -28.5 -1.83301 -41.5 -5.5s-24.5 -9.83398 -34.5 -18.501s-17.833 -20.167 -23.5 -34.5s-8.5 -32.166 -8.5 -53.499v-168zM286.003 99.998c14.667 0 28.499 1.83301 41.499 5.5s24.333 9.83398 34 18.501s17.334 20.167 23.001 34.5s8.5 32.166 8.5 53.499v153
l-212 -190c6.66699 -28 19.5 -47.5 38.5 -58.5s41.167 -16.5 66.5 -16.5zM344.002 925.998l91 -48l-104 -125l-62 31z" />
    <glyph glyph-name="oslashacute" unicode="&#x1ff;" horiz-adv-x="503" 
d="M498 415l-42.998 -36v-199c0 -65.333 -18 -113.333 -54 -144s-85.667 -46 -149 -46c-42 0 -77.833 6.5 -107.5 19.5s-52.834 33.5 -69.501 61.5l-70 -57v132l43 35v199c0 65.333 18.167 113.333 54.5 144s86.166 46 149.499 46c41.333 0 77 -6.5 107 -19.5
s53 -33.5 69 -61.5l70 58v-132zM173.002 280l155.998 131c-5.33301 24 -14.666 40.667 -27.999 50s-29.666 14 -48.999 14c-26 0 -45.667 -7.33301 -59 -22s-20 -41.667 -20 -81v-92zM331 282l-156 -132.001c4 -23.333 12.167 -39.833 24.5 -49.5s29.833 -14.5 52.5 -14.5
c25.333 0 44.833 7.33301 58.5 22s20.5 41.334 20.5 80.001v94zM289 785.999l91 -48l-104 -125l-62 31z" />
    <glyph glyph-name="uni0218" unicode="&#x218;" horiz-adv-x="536" 
d="M505 203c0 -72.667 -21.332 -126.497 -63.999 -161.497s-102.334 -52.5 -179.001 -52.5c-41.333 0 -79 3.33301 -113 10s-66.667 16.334 -98 29.001v114c30.667 -12.667 64 -23 100 -31s71 -12 105 -12c35.333 0 63.5 7.83301 84.5 23.5s31.5 39.167 31.5 70.5
c0 34 -7.5 58.833 -22.5 74.5s-37.5 25.5 -67.5 29.5c-28 3.33301 -55.5 8.66602 -82.5 15.999s-50.833 18.666 -71.5 33.999s-37.334 35.5 -50.001 60.5s-19 56.5 -19 94.5c0 65.333 17.667 116.5 53 153.5s90 55.5 164 55.5c38 0 73.667 -3.33301 107 -10
s64.333 -16 93 -28v-108c-30 12 -61.667 21 -95 27s-65.333 9 -96 9c-32 0 -55.833 -8.16699 -71.5 -24.5s-23.5 -37.5 -23.5 -63.5c0 -18 2.83301 -32.833 8.5 -44.5s13.5 -21.334 23.5 -29.001s21.5 -13.334 34.5 -17.001s27.167 -6.5 42.5 -8.5
c28.667 -3.33301 55.5 -9 80.5 -17s46.833 -20 65.5 -36s33.334 -36.667 44.001 -62s16 -57.333 16 -96zM186.001 -243.997c9.33301 10 17.333 22.668 24 38.001s10.667 29 12 41c-11.333 3.33301 -20.666 10.166 -27.999 20.499s-11 22.166 -11 35.499c0 20 6 35.5 18 46.5
s27.667 16.5 47 16.5s35.166 -5.5 47.499 -16.5s18.5 -26.5 18.5 -46.5c0 -11.333 -1.66699 -23.166 -5 -35.499s-7.83301 -24.5 -13.5 -36.5s-12 -23.5 -19 -34.5s-13.833 -20.5 -20.5 -28.5h-70z" />
    <glyph glyph-name="uni0219" unicode="&#x219;" horiz-adv-x="458" 
d="M298 150c0 14.667 -2.83691 26.5039 -8.50391 35.5039s-13.667 16.5 -24 22.5s-22.666 11.167 -36.999 15.5l-46.5 13.5c-19.333 5.33301 -37.666 12.166 -54.999 20.499s-32.666 19.333 -45.999 33s-23.833 30.167 -31.5 49.5s-11.5 43 -11.5 71
c0 49.333 14.833 88.166 44.5 116.499s76.167 42.5 139.5 42.5c32 0 62 -3 90 -9s52.667 -14.667 74 -26v-93c-29.333 11.333 -55.833 19.5 -79.5 24.5s-48.834 7.5 -75.501 7.5c-45.333 0 -68 -20.667 -68 -62c0 -14 2.83301 -25.5 8.5 -34.5s13.5 -16.833 23.5 -23.5
s22 -12.167 36 -16.5l45 -13.5c19.333 -5.33301 37.833 -11.833 55.5 -19.5s33.167 -17.834 46.5 -30.501s24 -28.334 32 -47.001s12 -42 12 -70c0 -54.667 -17 -96.167 -51 -124.5s-84.333 -42.5 -151 -42.5c-35.333 0 -68.166 2.83301 -98.499 8.5
s-58.166 13.834 -83.499 24.501v99c26.667 -10.667 54.667 -19.334 84 -26.001s59.333 -10 90 -10c57.333 0 86 21.333 86 64zM161.996 -243.996c9.33301 10 17.333 22.668 24 38.001s10.667 29 12 41c-11.333 3.33301 -20.666 10.166 -27.999 20.499s-11 22.166 -11 35.499
c0 20 6 35.5 18 46.5s27.667 16.5 47 16.5s35.166 -5.5 47.499 -16.5s18.5 -26.5 18.5 -46.5c0 -11.333 -1.66699 -23.166 -5 -35.499s-7.83301 -24.5 -13.5 -36.5s-12 -23.5 -19 -34.5s-13.833 -20.5 -20.5 -28.5h-70z" />
    <glyph glyph-name="uni021A" unicode="&#x21a;" horiz-adv-x="473" 
d="M172 590h-162v110h454v-110h-162v-590h-130v590zM168 -244c9.33301 10 17.333 22.668 24 38.001s10.667 29 12 41c-11.333 3.33301 -20.666 10.166 -27.999 20.499s-11 22.166 -11 35.499c0 20 6 35.5 18 46.5s27.667 16.5 47 16.5s35.166 -5.5 47.499 -16.5
s18.5 -26.5 18.5 -46.5c0 -11.333 -1.66699 -23.166 -5 -35.499s-7.83301 -24.5 -13.5 -36.5s-12 -23.5 -19 -34.5s-13.833 -20.5 -20.5 -28.5h-70z" />
    <glyph glyph-name="uni021B" unicode="&#x21b;" horiz-adv-x="328" 
d="M101 463h-99v97h99v104l126 19v-123h99v-97h-99v-463h-126v463zM92 -244c9.33301 10 17.333 22.668 24 38.001s10.667 29 12 41c-11.333 3.33301 -20.666 10.166 -27.999 20.499s-11 22.166 -11 35.499c0 20 6 35.5 18 46.5s27.667 16.5 47 16.5
s35.166 -5.5 47.499 -16.5s18.5 -26.5 18.5 -46.5c0 -11.333 -1.66699 -23.166 -5 -35.499s-7.83301 -24.5 -13.5 -36.5s-12 -23.5 -19 -34.5s-13.833 -20.5 -20.5 -28.5h-70z" />
    <glyph glyph-name="uni0237" unicode="&#x237;" horiz-adv-x="240" 
d="M185 560l-0.000976562 -526c0 -61.333 -16.167 -109 -48.5 -143s-84.833 -51 -157.5 -51v86c18 2 32.333 6 43 12s18.834 14 24.501 24s9.5 22.333 11.5 37s3 31.667 3 51v510h124z" />
    <glyph glyph-name="circumflex" unicode="&#x2c6;" horiz-adv-x="359" 
d="M131 748h98l91 -132h-102l-39 69l-37 -69h-104z" />
    <glyph glyph-name="caron" unicode="&#x2c7;" horiz-adv-x="359" 
d="M141 748l38 -69l40 69h102l-92 -132h-98l-94 132h104z" />
    <glyph glyph-name="breve" unicode="&#x2d8;" horiz-adv-x="321" 
d="M157 680c14 0 24.999 4.83203 32.999 14.499s12 25.167 12 46.5h76c0 -24 -3.33301 -44.167 -10 -60.5s-15.5 -29.666 -26.5 -39.999s-23.833 -17.833 -38.5 -22.5s-30 -7 -46 -7c-35.333 0 -64.5 10.333 -87.5 31s-34.5 53.667 -34.5 99h77
c0 -21.333 3.83301 -36.833 11.5 -46.5s18.834 -14.5 33.501 -14.5z" />
    <glyph glyph-name="dotaccent" unicode="&#x2d9;" horiz-adv-x="210" 
d="M179 684c0 -23.333 -6.66699 -40.666 -20 -51.999s-31 -17 -53 -17s-39.833 5.66699 -53.5 17s-20.5 28.666 -20.5 51.999c0 24.667 6.83301 43 20.5 55s31.5 18 53.5 18s39.667 -6 53 -18s20 -30.333 20 -55z" />
    <glyph glyph-name="ring" unicode="&#x2da;" horiz-adv-x="442" 
d="M142 693c0 23.333 7.66699 41.833 23 55.5s33.666 20.5 54.999 20.5c23.333 0 42.5 -6.83301 57.5 -20.5s22.5 -32.167 22.5 -55.5v-10c0 -25.333 -7.5 -44.5 -22.5 -57.5s-34.167 -19.5 -57.5 -19.5c-21.333 0 -39.666 6.5 -54.999 19.5s-23 32.167 -23 57.5v10z
M193 687c0 -24.667 9 -37 27 -37c20 0 30 12.333 30 37s-10 37 -30 37c-18 0 -27 -12.333 -27 -37z" />
    <glyph glyph-name="ogonek" unicode="&#x2db;" horiz-adv-x="240" 
d="M123 -163c-26 0 -46.333 6.00195 -61 18.002s-22 31.333 -22 58c0 17.333 6 34.166 18 50.499s25.667 28.5 41 36.5h78c-15.333 -9.33301 -27.833 -20.333 -37.5 -33s-14.5 -25.667 -14.5 -39c0 -21.333 10.333 -32 31 -32c6.66699 0 13.5 0.666992 20.5 2l21.5 4v-53
c-10.667 -4.66699 -22.5 -7.83398 -35.5 -9.50098s-26.167 -2.5 -39.5 -2.5z" />
    <glyph glyph-name="tilde" unicode="&#x2dc;" horiz-adv-x="432" 
d="M36 625c0 38 8.33203 68.999 24.999 92.999s42 36 76 36c16.667 0 32 -2.33301 46 -7s26.833 -9.83398 38.5 -15.501l32 -15.5c9.66699 -4.66699 18.5 -7 26.5 -7c12 0 20.333 4 25 12s7.33398 18.667 8.00098 32h84c0 -38 -8.5 -69 -25.5 -93s-42.5 -36 -76.5 -36
c-16 0 -30.667 2.33301 -44 7s-25.5 9.83398 -36.5 15.501s-21.5 10.834 -31.5 15.501s-20 7 -30 7c-12 0 -20.5 -4 -25.5 -12s-7.5 -18.667 -7.5 -32h-84z" />
    <glyph glyph-name="hungarumlaut" unicode="&#x2dd;" horiz-adv-x="393" 
d="M194 715l-88 -105l-50 27l64 119zM329 715l-102 -106l-44 28l73 119z" />
    <glyph glyph-name="uni0326" unicode="&#x326;" horiz-adv-x="299" 
d="M88 -244c9.33301 10 17.333 22.668 24 38.001s10.667 29 12 41c-11.333 3.33301 -20.666 10.166 -27.999 20.499s-11 22.166 -11 35.499c0 20 6 35.5 18 46.5s27.667 16.5 47 16.5s35.166 -5.5 47.499 -16.5s18.5 -26.5 18.5 -46.5
c0 -11.333 -1.66699 -23.166 -5 -35.499s-7.83301 -24.5 -13.5 -36.5s-12 -23.5 -19 -34.5s-13.833 -20.5 -20.5 -28.5h-70z" />
    <glyph glyph-name="Wgrave" unicode="&#x1e80;" horiz-adv-x="862" 
d="M862 700l-192 -700.001h-131l-90 399c-4.66699 18.667 -8.5 36.167 -11.5 52.5s-5.16699 33.166 -6.5 50.499c-1.33301 -17.333 -3.5 -34.166 -6.5 -50.499s-6.5 -33.833 -10.5 -52.5l-91 -399h-130l-193 700h135l95 -428c2 -12.667 4.33301 -26.5 7 -41.5
s5 -29.167 7 -42.5l5.5 -35.5c1.66699 -10.333 2.5 -17.166 2.5 -20.499c0.666992 4 1.66699 11.167 3 21.5s3.16602 22.166 5.49902 35.499l7.5 42c2.66699 14.667 5.33398 28 8.00098 40l89 429h133l89 -428c2.66699 -13.333 5.33398 -27.666 8.00098 -42.999l7.5 -44
c2.33301 -14 4.16602 -26 5.49902 -36s2 -16 2 -18c0.666992 2 1.66699 8 3 18s3.16602 22 5.49902 36l7.5 44c2.66699 15.333 5.33398 29.333 8.00098 42l95 429h133zM380 929.999l78 -147l-58 -36l-108 129z" />
    <glyph glyph-name="wgrave" unicode="&#x1e81;" horiz-adv-x="722" 
d="M319 790l78 -147l-58 -36l-108 129zM722 560l-157.001 -560.003h-121l-63 276c-5.33301 22.667 -9.5 44.334 -12.5 65.001s-5.83301 43.334 -8.5 68.001c-0.666992 -25.333 -2.66699 -48.333 -6 -69s-7.66602 -42.334 -12.999 -65.001l-66 -275h-119l-155 560h129
l67 -306l8 -46c2.66699 -15.333 5 -29.333 7 -42l5 -31c1.33301 -8 2 -12.667 2 -14c0 1.33301 0.5 6.16602 1.5 14.499s2.33301 18.666 4 30.999s3.66699 26 6 41s5.16602 30.167 8.49902 45.5l68 307h111l69 -306c3.33301 -15.333 6.33301 -30.666 9 -45.999
s4.83398 -29.166 6.50098 -41.499s3 -22.666 4 -30.999s1.5 -13.166 1.5 -14.499c0 1.33301 0.666992 6 2 14s2.83301 18.333 4.5 31s3.66699 26.5 6 41.5s4.83301 30.167 7.5 45.5l66 307h128z" />
    <glyph glyph-name="Wacute" unicode="&#x1e82;" horiz-adv-x="862" 
d="M862 700l-192 -700.001h-131l-90 399c-4.66699 18.667 -8.5 36.167 -11.5 52.5s-5.16699 33.166 -6.5 50.499c-1.33301 -17.333 -3.5 -34.166 -6.5 -50.499s-6.5 -33.833 -10.5 -52.5l-91 -399h-130l-193 700h135l95 -428c2 -12.667 4.33301 -26.5 7 -41.5
s5 -29.167 7 -42.5l5.5 -35.5c1.66699 -10.333 2.5 -17.166 2.5 -20.499c0.666992 4 1.66699 11.167 3 21.5s3.16602 22.166 5.49902 35.499l7.5 42c2.66699 14.667 5.33398 28 8.00098 40l89 429h133l89 -428c2.66699 -13.333 5.33398 -27.666 8.00098 -42.999l7.5 -44
c2.33301 -14 4.16602 -26 5.49902 -36s2 -16 2 -18c0.666992 2 1.66699 8 3 18s3.16602 22 5.49902 36l7.5 44c2.66699 15.333 5.33398 29.333 8.00098 42l95 429h133zM477 925.999l91 -48l-104 -125l-62 31z" />
    <glyph glyph-name="wacute" unicode="&#x1e83;" horiz-adv-x="722" 
d="M408 786l91 -48l-104 -125l-62 31zM722 560l-157.001 -560.003h-121l-63 276c-5.33301 22.667 -9.5 44.334 -12.5 65.001s-5.83301 43.334 -8.5 68.001c-0.666992 -25.333 -2.66699 -48.333 -6 -69s-7.66602 -42.334 -12.999 -65.001l-66 -275h-119l-155 560h129l67 -306
l8 -46c2.66699 -15.333 5 -29.333 7 -42l5 -31c1.33301 -8 2 -12.667 2 -14c0 1.33301 0.5 6.16602 1.5 14.499s2.33301 18.666 4 30.999s3.66699 26 6 41s5.16602 30.167 8.49902 45.5l68 307h111l69 -306c3.33301 -15.333 6.33301 -30.666 9 -45.999
s4.83398 -29.166 6.50098 -41.499s3 -22.666 4 -30.999s1.5 -13.166 1.5 -14.499c0 1.33301 0.666992 6 2 14s2.83301 18.333 4.5 31s3.66699 26.5 6 41.5s4.83301 30.167 7.5 45.5l66 307h128z" />
    <glyph glyph-name="Wdieresis" unicode="&#x1e84;" horiz-adv-x="862" 
d="M862 700l-192 -700.001h-131l-90 399c-4.66699 18.667 -8.5 36.167 -11.5 52.5s-5.16699 33.166 -6.5 50.499c-1.33301 -17.333 -3.5 -34.166 -6.5 -50.499s-6.5 -33.833 -10.5 -52.5l-91 -399h-130l-193 700h135l95 -428c2 -12.667 4.33301 -26.5 7 -41.5
s5 -29.167 7 -42.5l5.5 -35.5c1.66699 -10.333 2.5 -17.166 2.5 -20.499c0.666992 4 1.66699 11.167 3 21.5s3.16602 22.166 5.49902 35.499l7.5 42c2.66699 14.667 5.33398 28 8.00098 40l89 429h133l89 -428c2.66699 -13.333 5.33398 -27.666 8.00098 -42.999l7.5 -44
c2.33301 -14 4.16602 -26 5.49902 -36s2 -16 2 -18c0.666992 2 1.66699 8 3 18s3.16602 22 5.49902 36l7.5 44c2.66699 15.333 5.33398 29.333 8.00098 42l95 429h133zM385 817.999c0 -20.667 -5 -37.5 -15 -50.5s-26.333 -19.5 -49 -19.5c-22 0 -38 6.5 -48 19.5
s-15 29.833 -15 50.5s5 37.667 15 51s26 20 48 20c22.667 0 39 -6.66699 49 -20s15 -30.333 15 -51zM606 817.999c0 -20.667 -5 -37.5 -15 -50.5s-26.333 -19.5 -49 -19.5c-21.333 0 -37 6.5 -47 19.5s-15 29.833 -15 50.5s5 37.667 15 51s25.667 20 47 20
c22.667 0 39 -6.66699 49 -20s15 -30.333 15 -51z" />
    <glyph glyph-name="wdieresis" unicode="&#x1e85;" horiz-adv-x="722" 
d="M316 678c0 -20.667 -5 -37.5 -15 -50.5s-26.333 -19.5 -49 -19.5c-22 0 -38 6.5 -48 19.5s-15 29.833 -15 50.5s5 37.667 15 51s26 20 48 20c22.667 0 39 -6.66699 49 -20s15 -30.333 15 -51zM537 678c0 -20.667 -5 -37.5 -15 -50.5s-26.333 -19.5 -49 -19.5
c-21.333 0 -37 6.5 -47 19.5s-15 29.833 -15 50.5s5 37.667 15 51s25.667 20 47 20c22.667 0 39 -6.66699 49 -20s15 -30.333 15 -51zM722 560l-157.001 -560.003h-121l-63 276c-5.33301 22.667 -9.5 44.334 -12.5 65.001s-5.83301 43.334 -8.5 68.001
c-0.666992 -25.333 -2.66699 -48.333 -6 -69s-7.66602 -42.334 -12.999 -65.001l-66 -275h-119l-155 560h129l67 -306l8 -46c2.66699 -15.333 5 -29.333 7 -42l5 -31c1.33301 -8 2 -12.667 2 -14c0 1.33301 0.5 6.16602 1.5 14.499s2.33301 18.666 4 30.999s3.66699 26 6 41
s5.16602 30.167 8.49902 45.5l68 307h111l69 -306c3.33301 -15.333 6.33301 -30.666 9 -45.999s4.83398 -29.166 6.50098 -41.499s3 -22.666 4 -30.999s1.5 -13.166 1.5 -14.499c0 1.33301 0.666992 6 2 14s2.83301 18.333 4.5 31s3.66699 26.5 6 41.5
s4.83301 30.167 7.5 45.5l66 307h128z" />
    <glyph glyph-name="Ygrave" unicode="&#x1ef2;" horiz-adv-x="608" 
d="M148 700l116.001 -227c12.667 -26.667 22.5 -48.667 29.5 -66s11.167 -28 12.5 -32c1.33301 4 5.16602 14.5 11.499 31.5s16.5 39.167 30.5 66.5l115 227h144l-238 -429v-271h-130v269l-239 431h148zM260.001 928l78 -147l-58 -36l-108 129z" />
    <glyph glyph-name="ygrave" unicode="&#x1ef3;" 
d="M329 560l124.001 0.000976562v-554c0 -32.667 -4.5 -59.667 -13.5 -81s-22.167 -38.333 -39.5 -51s-38.5 -21.5 -63.5 -26.5s-53.5 -7.5 -85.5 -7.5c-33.333 0 -63.666 2.83301 -90.999 8.5s-52.666 13.5 -75.999 23.5v97c23.333 -10 48.166 -18 74.499 -24
s53.5 -9 81.5 -9c12 0 23.5 1 34.5 3s20.5 6.16699 28.5 12.5s14.333 15.333 19 27s7 26.834 7 45.501v40c-14.667 -14 -31.834 -25.667 -51.501 -35s-42.167 -14 -67.5 -14c-54 0 -94 16.333 -120 49s-39 79 -39 139v357h124v-346c0 -34.667 4.66699 -59.334 14 -74.001
s26.666 -22 51.999 -22c18.667 0 36 6.16699 52 18.5s28 26.166 36 41.499v382zM221.001 790.001l78 -147l-58 -36l-108 129z" />
    <glyph glyph-name="uni1EF8" unicode="&#x1ef8;" horiz-adv-x="551" 
d="M148 700l116.001 -227c12.667 -26.667 22.5 -48.667 29.5 -66s11.167 -28 12.5 -32c1.33301 4 5.16602 14.5 11.499 31.5s16.5 39.167 30.5 66.5l115 227h144l-238 -429v-271h-130v269l-239 431h148zM125.001 762c0 38 8.66504 69.833 25.998 95.5s43 38.5 77 38.5
c16.667 0 31.834 -2.66699 45.501 -8s26.334 -11 38.001 -17l32 -17c9.66699 -5.33301 18.5 -8 26.5 -8c12 0 20.5 4 25.5 12s7.5 18.667 7.5 32h83c0 -38 -8.33301 -69.833 -25 -95.5s-42 -38.5 -76 -38.5c-16.667 0 -31.5 2.66699 -44.5 8s-25.167 11.166 -36.5 17.499
l-32 17.5c-10 5.33301 -20 8 -30 8c-11.333 0 -19.5 -4.16699 -24.5 -12.5s-7.83301 -19.166 -8.5 -32.499h-84z" />
    <glyph glyph-name="uni1EF9" unicode="&#x1ef9;" 
d="M188 669c-12 0 -20.334 -3.99902 -25.001 -11.999s-7.33398 -18.667 -8.00098 -32h-84c0 18.667 2.16699 36.167 6.5 52.5s10.833 30.5 19.5 42.5s19.334 21.333 32.001 28s27.667 10 45 10c16 0 31 -2.66699 45 -8s26.667 -11 38 -17l32 -17c10 -5.33301 19 -8 27 -8
c12 0 20.333 4.16699 25 12.5s7.33398 19.166 8.00098 32.499h83c0 -38 -8.5 -69.833 -25.5 -95.5s-42.5 -38.5 -76.5 -38.5c-16 0 -30.667 2.66699 -44 8s-25.5 11 -36.5 17l-31.5 17c-10 5.33301 -20 8 -30 8zM328.999 560.001l124.001 0.000976562v-554
c0 -32.667 -4.5 -59.667 -13.5 -81s-22.167 -38.333 -39.5 -51s-38.5 -21.5 -63.5 -26.5s-53.5 -7.5 -85.5 -7.5c-33.333 0 -63.666 2.83301 -90.999 8.5s-52.666 13.5 -75.999 23.5v97c23.333 -10 48.166 -18 74.499 -24s53.5 -9 81.5 -9c12 0 23.5 1 34.5 3
s20.5 6.16699 28.5 12.5s14.333 15.333 19 27s7 26.834 7 45.501v40c-14.667 -14 -31.834 -25.667 -51.501 -35s-42.167 -14 -67.5 -14c-54 0 -94 16.333 -120 49s-39 79 -39 139v357h124v-346c0 -34.667 4.66699 -59.334 14 -74.001s26.666 -22 51.999 -22
c18.667 0 36 6.16699 52 18.5s28 26.166 36 41.499v382z" />
    <glyph glyph-name="endash" unicode="&#x2013;" horiz-adv-x="462" 
d="M8 346h447v-90h-447v90z" />
    <glyph glyph-name="emdash" unicode="&#x2014;" horiz-adv-x="737" 
d="M8 346h724v-90h-724v90z" />
    <glyph glyph-name="quoteleft" unicode="&#x2018;" horiz-adv-x="218" 
d="M91 529c-7.33301 8.66699 -14.833 19.168 -22.5 31.501s-14.5 25.166 -20.5 38.499s-10.833 27 -14.5 41s-5.5 27.333 -5.5 40c0 23.333 6.66699 40.833 20 52.5s31 17.5 53 17.5c21.333 0 38.833 -6 52.5 -18s20.5 -29.333 20.5 -52
c0 -15.333 -4.16699 -28.5 -12.5 -39.5s-18.833 -18.5 -31.5 -22.5c1.33301 -14 5.83301 -29.5 13.5 -46.5s16.5 -31.167 26.5 -42.5h-79z" />
    <glyph glyph-name="quoteright" unicode="&#x2019;" horiz-adv-x="218" 
d="M47 529c10 11.333 18.833 25.499 26.5 42.499s12.167 32.5 13.5 46.5c-12.667 4 -23.167 11.5 -31.5 22.5s-12.5 24.167 -12.5 39.5c0 22.667 6.83301 40 20.5 52s31.167 18 52.5 18c22 0 39.667 -5.83301 53 -17.5s20 -29.167 20 -52.5c0 -12.667 -1.83301 -26 -5.5 -40
s-8.5 -27.667 -14.5 -41s-12.833 -26.166 -20.5 -38.499s-15.167 -22.833 -22.5 -31.5h-79z" />
    <glyph glyph-name="quotesinglbase" unicode="&#x201a;" horiz-adv-x="218" 
d="M47 -92c10 11.333 18.833 25.499 26.5 42.499s12.167 32.5 13.5 46.5c-12.667 4 -23.167 11.5 -31.5 22.5s-12.5 24.167 -12.5 39.5c0 22.667 6.83301 40 20.5 52s31.167 18 52.5 18c22 0 39.667 -5.83301 53 -17.5s20 -29.167 20 -52.5c0 -12.667 -1.83301 -26 -5.5 -40
s-8.5 -27.667 -14.5 -41s-12.833 -26.166 -20.5 -38.499s-15.167 -22.833 -22.5 -31.5h-79z" />
    <glyph glyph-name="quotedblleft" unicode="&#x201c;" horiz-adv-x="397" 
d="M91 529c-7.33301 8.66699 -14.833 19.168 -22.5 31.501s-14.5 25.166 -20.5 38.499s-10.833 27 -14.5 41s-5.5 27.333 -5.5 40c0 23.333 6.66699 40.833 20 52.5s31 17.5 53 17.5c21.333 0 38.833 -6 52.5 -18s20.5 -29.333 20.5 -52
c0 -15.333 -4.16699 -28.5 -12.5 -39.5s-18.833 -18.5 -31.5 -22.5c1.33301 -14 5.83301 -29.5 13.5 -46.5s16.5 -31.167 26.5 -42.5h-79zM271 529.001c-7.33301 8.66699 -14.833 19.168 -22.5 31.501s-14.5 25.166 -20.5 38.499s-10.833 27 -14.5 41s-5.5 27.333 -5.5 40
c0 23.333 6.66699 40.833 20 52.5s31 17.5 53 17.5c21.333 0 38.833 -6 52.5 -18s20.5 -29.333 20.5 -52c0 -15.333 -4.16699 -28.5 -12.5 -39.5s-18.833 -18.5 -31.5 -22.5c1.33301 -14 5.83301 -29.5 13.5 -46.5s16.5 -31.167 26.5 -42.5h-79z" />
    <glyph glyph-name="quotedblright" unicode="&#x201d;" horiz-adv-x="397" 
d="M227 529c10 11.333 18.833 25.499 26.5 42.499s12.167 32.5 13.5 46.5c-12.667 4 -23.167 11.5 -31.5 22.5s-12.5 24.167 -12.5 39.5c0 22.667 6.83301 40 20.5 52s31.167 18 52.5 18c22 0 39.667 -5.83301 53 -17.5s20 -29.167 20 -52.5
c0 -12.667 -1.83301 -26 -5.5 -40s-8.5 -27.667 -14.5 -41s-12.833 -26.166 -20.5 -38.499s-15.167 -22.833 -22.5 -31.5h-79zM47 528.999c10 11.333 18.833 25.499 26.5 42.499s12.167 32.5 13.5 46.5c-12.667 4 -23.167 11.5 -31.5 22.5s-12.5 24.167 -12.5 39.5
c0 22.667 6.83301 40 20.5 52s31.167 18 52.5 18c22 0 39.667 -5.83301 53 -17.5s20 -29.167 20 -52.5c0 -12.667 -1.83301 -26 -5.5 -40s-8.5 -27.667 -14.5 -41s-12.833 -26.166 -20.5 -38.499s-15.167 -22.833 -22.5 -31.5h-79z" />
    <glyph glyph-name="quotedblbase" unicode="&#x201e;" horiz-adv-x="397" 
d="M227 -92c10 11.333 18.833 25.499 26.5 42.499s12.167 32.5 13.5 46.5c-12.667 4 -23.167 11.5 -31.5 22.5s-12.5 24.167 -12.5 39.5c0 22.667 6.83301 40 20.5 52s31.167 18 52.5 18c22 0 39.667 -5.83301 53 -17.5s20 -29.167 20 -52.5
c0 -12.667 -1.83301 -26 -5.5 -40s-8.5 -27.667 -14.5 -41s-12.833 -26.166 -20.5 -38.499s-15.167 -22.833 -22.5 -31.5h-79zM47 -92.001c10 11.333 18.833 25.499 26.5 42.499s12.167 32.5 13.5 46.5c-12.667 4 -23.167 11.5 -31.5 22.5s-12.5 24.167 -12.5 39.5
c0 22.667 6.83301 40 20.5 52s31.167 18 52.5 18c22 0 39.667 -5.83301 53 -17.5s20 -29.167 20 -52.5c0 -12.667 -1.83301 -26 -5.5 -40s-8.5 -27.667 -14.5 -41s-12.833 -26.166 -20.5 -38.499s-15.167 -22.833 -22.5 -31.5h-79z" />
    <glyph glyph-name="dagger" unicode="&#x2020;" horiz-adv-x="454" 
d="M165 400h-123v108h123v192h125v-192h125v-108h-125v-510h-125v510z" />
    <glyph glyph-name="daggerdbl" unicode="&#x2021;" horiz-adv-x="454" 
d="M165 115h-123v107h123v178h-123v108h123v192h125v-192h125v-108h-125v-178h125v-107h-125v-225h-125v225z" />
    <glyph glyph-name="bullet" unicode="&#x2022;" horiz-adv-x="400" 
d="M354 323c0 -51.333 -14.333 -90.666 -43 -117.999s-66.334 -41 -113.001 -41c-45.333 0 -81.833 13.667 -109.5 41s-41.5 66.666 -41.5 117.999c0 53.333 13.833 94 41.5 122s64.167 42 109.5 42c46.667 0 84.334 -14 113.001 -42s43 -68.667 43 -122z" />
    <glyph glyph-name="ellipsis" unicode="&#x2026;" horiz-adv-x="531" 
d="M179 57c0 -23.333 -6.66699 -40.833 -20 -52.5s-31 -17.5 -53 -17.5s-39.667 5.83301 -53 17.5s-20 29.167 -20 52.5c0 24.667 6.66699 42.834 20 54.501s31 17.5 53 17.5s39.667 -5.83301 53 -17.5s20 -29.834 20 -54.501zM385 57
c0 -23.333 -6.83301 -40.833 -20.5 -52.5s-31.5 -17.5 -53.5 -17.5s-39.5 5.83301 -52.5 17.5s-19.5 29.167 -19.5 52.5c0 24.667 6.5 42.834 19.5 54.501s30.5 17.5 52.5 17.5s39.833 -5.83301 53.5 -17.5s20.5 -29.834 20.5 -54.501zM591 57
c0 -23.333 -6.83301 -40.833 -20.5 -52.5s-31.5 -17.5 -53.5 -17.5s-39.667 5.83301 -53 17.5s-20 29.167 -20 52.5c0 24.667 6.66699 42.834 20 54.501s31 17.5 53 17.5s39.833 -5.83301 53.5 -17.5s20.5 -29.834 20.5 -54.501z" />
    <glyph glyph-name="perthousand" unicode="&#x2030;" horiz-adv-x="1243" 
d="M45 568c0 49.333 14.167 85.5 42.5 108.5s66.5 34.5 114.5 34.5c47.333 0 85.333 -11.5 114 -34.5s43 -59.167 43 -108.5v-129c0 -26.667 -3.83301 -49.5 -11.5 -68.5s-18.334 -34.667 -32.001 -47s-30.167 -21.333 -49.5 -27s-40.666 -8.5 -63.999 -8.5
c-47.333 0 -85.333 11.833 -114 35.5s-43 62.167 -43 115.5v129zM157 440c0 -23.333 4.16699 -38.833 12.5 -46.5s19.166 -11.5 32.499 -11.5s23.833 3.83301 31.5 11.5s11.5 23.167 11.5 46.5v126c0 19.333 -3.83301 32.666 -11.5 39.999s-18.167 11 -31.5 11
s-24.166 -3.66699 -32.499 -11s-12.5 -20.666 -12.5 -39.999v-126zM521 270c0 49.333 14.5 85.5 43.5 108.5s67.5 34.5 115.5 34.5c46.667 0 84.167 -11.5 112.5 -34.5s42.5 -59.167 42.5 -108.5v-129c0 -53.333 -14.167 -91.833 -42.5 -115.5s-65.833 -35.5 -112.5 -35.5
c-48 0 -86.5 11.833 -115.5 35.5s-43.5 62.167 -43.5 115.5v129zM635 142c0 -23.333 4 -38.833 12 -46.5s18.667 -11.5 32 -11.5c12.667 0 23.167 3.83301 31.5 11.5s12.5 23.167 12.5 46.5v126c0 19.333 -4.16699 32.666 -12.5 39.999s-18.833 11 -31.5 11
c-13.333 0 -24 -3.66699 -32 -11s-12 -20.666 -12 -39.999v-126zM884 270c0 49.333 14.333 85.5 43 108.5s67 34.5 115 34.5c47.333 0 85.166 -11.5 113.499 -34.5s42.5 -59.167 42.5 -108.5v-129c0 -26.667 -3.66699 -49.5 -11 -68.5s-17.833 -34.667 -31.5 -47
s-30.167 -21.333 -49.5 -27s-40.666 -8.5 -63.999 -8.5c-47.333 0 -85.5 11.833 -114.5 35.5s-43.5 62.167 -43.5 115.5v129zM997 142c0 -23.333 4 -38.833 12 -46.5s19 -11.5 33 -11.5c12.667 0 23.167 3.83301 31.5 11.5s12.5 23.167 12.5 46.5v126
c0 19.333 -4.16699 32.666 -12.5 39.999s-18.833 11 -31.5 11c-14 0 -25 -3.66699 -33 -11s-12 -20.666 -12 -39.999v-126zM587 700h126l-423 -700h-128z" />
    <glyph glyph-name="guilsinglleft" unicode="&#x2039;" horiz-adv-x="264" 
d="M244 157l-69 -56l-133 142v73l133 142l69 -56l-115 -123z" />
    <glyph glyph-name="guilsinglright" unicode="&#x203a;" horiz-adv-x="264" 
d="M42 157l114 122l-114 123l69 56l133 -142v-73l-133 -142z" />
    <glyph glyph-name="fraction" unicode="&#x2044;" 
d="M402 700h126l-423 -700h-128z" />
    <glyph glyph-name="Euro" unicode="&#x20ac;" horiz-adv-x="468" 
d="M424 586c-17.333 5.33301 -36.333 9.16602 -57 11.499s-39 3.5 -55 3.5c-30 0 -53.167 -8.16699 -69.5 -24.5s-24.5 -45.5 -24.5 -87.5v-29h185l-19 -75h-166v-67h185l-19 -75h-166v-32c0 -42 8.16699 -71.167 24.5 -87.5s39.5 -24.5 69.5 -24.5
c16 0 34.333 1.16699 55 3.5s39.667 6.16602 57 11.499v-110c-19.333 -5.33301 -40 -9.16602 -62 -11.499s-44 -3.5 -66 -3.5c-138.667 0 -208 68.667 -208 206v48h-66l20 75h46v67h-66l20 75h46v45c0 137.333 69.333 206 208 206c22 0 44.167 -1.16699 66.5 -3.5
s42.833 -6.16602 61.5 -11.499v-110v0z" />
    <glyph glyph-name="trademark" unicode="&#x2122;" horiz-adv-x="832" 
d="M380 700h92l114 -230l112 230h95v-452h-97l2 255l-74 -149h-76l-74 147l1 -253h-95v452zM148 616h-110v84h315v-84h-108v-368h-97v368z" />
    <glyph glyph-name="minus" unicode="&#x2212;" horiz-adv-x="415" 
d="M328 346v-90h-286v90h286z" />
    <glyph glyph-name="approxequal" unicode="&#x2248;" horiz-adv-x="527" 
d="M176 252c17.333 0 34.1631 -3.33301 50.4961 -10s31.666 -13.834 45.999 -21.501l39.5 -21.5c12 -6.66699 23 -10 33 -10c17.333 0 29.833 4.66699 37.5 14s11.834 21.666 12.501 36.999h91c-1.33301 -44 -13.166 -78.333 -35.499 -103s-54.166 -37 -95.499 -37
c-18 0 -34.833 3.33301 -50.5 10s-30.167 13.834 -43.5 21.501l-38.5 21.5c-12.333 6.66699 -24.5 10 -36.5 10c-17.333 0 -30.166 -4.66699 -38.499 -14s-12.5 -21.666 -12.5 -36.999h-90c1.33301 44 13.333 78.333 36 103s54.334 37 95.001 37zM175.997 462
c17.333 0 34.1631 -3.33301 50.4961 -10s31.666 -13.834 45.999 -21.501l39.5 -21.5c12 -6.66699 23 -10 33 -10c17.333 0 29.833 4.66699 37.5 14s11.834 21.666 12.501 36.999h91c-1.33301 -44 -13.166 -78.333 -35.499 -103s-54.166 -37 -95.499 -37
c-18 0 -34.833 3.33301 -50.5 10s-30.167 13.834 -43.5 21.501l-38.5 21.5c-12.333 6.66699 -24.5 10 -36.5 10c-17.333 0 -30.166 -4.66699 -38.499 -14s-12.5 -21.666 -12.5 -36.999h-90c1.33301 44 13.333 78.333 36 103s54.334 37 95.001 37z" />
    <glyph glyph-name="notequal" unicode="&#x2260;" horiz-adv-x="513" 
d="M38 136v91h130l55 126h-185v90h226l53 117h123l-53 -117h88v-90h-130l-56 -126h186v-91h-227l-53 -118h-122l52 118h-87z" />
    <glyph glyph-name="uniFB01" unicode="&#xfb01;" horiz-adv-x="495" 
d="M8 458l-0.00292969 102h48v25c0 29.333 4.33301 53.666 13 72.999s21 34.833 37 46.5s35.333 19.834 58 24.501s48 7 76 7c26.667 0 54.334 -2.5 83.001 -7.5s54.334 -11.833 77.001 -20.5v-94c-25.333 7.33301 -51.166 13 -77.499 17s-52.833 6 -79.5 6
c-20.667 0 -36 -4 -46 -12s-15 -21.667 -15 -41v-24h258v-560h-124v458h-136v-458h-124v458h-48z" />
    <glyph glyph-name="uniFB02" unicode="&#xfb02;" horiz-adv-x="497" 
d="M56 463l-48 -0.00195312v97h48v50c0 24.667 3.33301 45.334 10 62.001s16.834 29.834 30.501 39.501s30.667 16.5 51 20.5s44.166 6 71.499 6c19.333 0 39.5 -1.5 60.5 -4.5s41.5 -7 61.5 -12s38.833 -10.833 56.5 -17.5s33.167 -14 46.5 -22v-682h-125v628
c-10.667 3.33301 -23.167 6.33301 -37.5 9s-28.5 4 -42.5 4c-24 0 -39.833 -4 -47.5 -12s-11.5 -20.667 -11.5 -38v-31h96v-97h-96v-463h-124v463z" />
    <glyph glyph-name=".null" horiz-adv-x="0" 
 />
    <glyph glyph-name="nonmarkingreturn" horiz-adv-x="333" 
 />
    <glyph glyph-name="glyph297" horiz-adv-x="501" 
d="M409 157l-69 -56l-50 53l-66 -53l-133 142v73l133 142l66 -53l50 53l69 -56l-115 -123zM207 249v60l-28 -30z" />
    <glyph glyph-name="glyph298" horiz-adv-x="501" 
d="M92 157l114 122l-114 123l69 56l49 -53l66 53l133 -142v-73l-133 -142l-66 53l-49 -53zM294 308v-58l27 29z" />
    <glyph glyph-name="glyph326" horiz-adv-x="1627" 
d="M1029 421c0 -13.333 0.832031 -26.6631 2.49902 -39.9961s2.5 -31.333 2.5 -54h-113c0 43.333 0.5 79.666 1.5 108.999s2.16699 53.333 3.5 72c2 22 4 39.333 6 52h76c0.666992 -8.66699 1.66699 -17 3 -25c0.666992 -7.33301 1.33398 -15.333 2.00098 -24s1 -17 1 -25
c0.666992 1.33301 2 6.16602 4 14.499s5.83301 17.166 11.5 26.499s13.667 17.833 24 25.5s24.166 11.5 41.499 11.5c26.667 0 45.5 -7.83301 56.5 -23.5s16.833 -41.5 17.5 -77.5l2 -136h-112c0 22.667 0.333008 40.667 1 54s1 26.666 1 39.999
c0 9.33301 -1.16699 15.833 -3.5 19.5s-6.16602 5.5 -11.499 5.5s-9.5 -1.83301 -12.5 -5.5s-4.5 -10.167 -4.5 -19.5zM307.999 634.003c1.33301 -28 3 -58 5 -90c1.33301 -28 2.5 -60.5 3.5 -97.5s1.5 -76.833 1.5 -119.5h-116c0 43.333 0.5 83.5 1.5 120.5
s2.16699 69.5 3.5 97.5c2 32 4 61.667 6 89h95zM1306 321.003c-41.333 0 -71.665 11 -90.998 33s-29 50.667 -29 86c0 16.667 1.83301 32.5 5.5 47.5s10.167 28.167 19.5 39.5s21.666 20.333 36.999 27s34.666 10 57.999 10c24.667 0 45 -3.33301 61 -10
s28.333 -15.667 37 -27s14.667 -24.5 18 -39.5s5 -30.833 5 -47.5c0 -35.333 -9.66699 -64 -29 -86s-50 -33 -92 -33zM1283 429.003c0 -20 7.66699 -30 23 -30c16 0 24 10 24 30c0 18 -8 27 -24 27c-15.333 0 -23 -9 -23 -27zM509 327.003l-9 58
c-4 -20.667 -11.5 -36.5 -22.5 -47.5s-28.167 -16.5 -51.5 -16.5c-28 0 -49.833 9.16699 -65.5 27.5s-23.5 46.5 -23.5 84.5c0 42 10 74.333 30 97s54 34 102 34c40 0 69.333 -9.66699 88 -29s28 -47 28 -83v-125h-76zM443 429.003c0 -9.33301 2 -16.668 6 -22.001
s9 -8 15 -8c16 0 24 10 24 30c0 18 -8 27 -24 27c-6 0 -11 -2.16699 -15 -6.5s-6 -11.166 -6 -20.499zM773 48.001c0 -3.33301 0.333984 -7.00391 1.00098 -11.0039c0 -3.33301 0.166992 -7.66602 0.5 -12.999s0.5 -11.333 0.5 -18h-127c0 42.667 0.5 81.334 1.5 116.001
s2.16699 64.334 3.5 89.001c2 28.667 4 54.334 6 77.001h78c0.666992 -10 1.66699 -19.667 3 -29c1.33301 -8 2.33301 -16.167 3 -24.5s1 -15.5 1 -21.5c1.33301 7.33301 3.33301 15.833 6 25.5s7 18.667 13 27s13.667 15.5 23 21.5s21.333 9 36 9
c23.333 0 42.166 -9.66699 56.499 -29s21.5 -47 21.5 -83c0 -44.667 -11 -78.5 -33 -101.5s-53.333 -34.5 -94 -34.5zM754.001 155.997c0 -4 0.166992 -7.50293 0.5 -10.5029s0.833008 -5.83301 1.5 -8.5l2 -8c6.66699 0.666992 13 2.33398 19 5.00098
c4.66699 2.66699 9 6.33398 13 11.001s6 11.334 6 20.001c0 14 -6.33301 21 -19 21c-15.333 0 -23 -10 -23 -30zM1071 121.994c16.667 0 29.667 2.33008 39 6.99707c4.66699 2.66699 8.66699 5.33398 12 8.00098v-73c-4 -2.66699 -9.66699 -5.33398 -17 -8.00098
c-6 -2 -13.5 -3.83301 -22.5 -5.5s-19.833 -2.5 -32.5 -2.5c-46.667 0 -80.5 11.167 -101.5 33.5s-31.5 51.5 -31.5 87.5c0 84.667 41 127 123 127c34.667 0 62 -10 82 -30s30 -48 30 -84c0 -5.33301 -0.333008 -10.166 -1 -14.499s-1.33398 -8.16602 -2.00098 -11.499
l-2 -10h-120c0.666992 -4.66699 2.66699 -8.66699 6 -12s7.83301 -6.16602 13.5 -8.49902s13.834 -3.5 24.501 -3.5zM1043 197.991c-14.667 0 -22 -9 -22 -27h39v2c0 0.666992 0.166992 1.5 0.5 2.5s0.5 2.16699 0.5 3.5c0 12.667 -6 19 -18 19zM598.001 470.991
l-0.000976562 82.999l116 36l4 -30h172c1.33301 -13.333 2.66602 -31 3.99902 -53c1.33301 -18.667 2.33301 -42.667 3 -72s1 -65.333 1 -108h-114v82.5c0 23.667 0.666992 44.167 2 61.5h-57l2 -63c0 -0.666992 0.666992 -1 2 -1c1.33301 -0.666992 4.33301 -1 9 -1
s9 0.666992 13 2c2 0.666992 3.33301 1.33398 4 2.00098v-72c-1.33301 -3.33301 -4.66602 -6.33301 -9.99902 -9c-4.66699 -2 -11.167 -3.83301 -19.5 -5.5s-19.166 -2.5 -32.499 -2.5c-28 0 -48 5.5 -60 16.5s-18 26.833 -18 47.5c0 6 0.166992 13.667 0.5 23
s0.5 18.333 0.5 27s0.166992 16.5 0.5 23.5s0.5 11.167 0.5 12.5h-23zM900 633.99c0 -17.333 -5.5 -31.833 -16.5 -43.5s-25.167 -17.5 -42.5 -17.5s-31.5 5.83301 -42.5 17.5s-16.5 26.167 -16.5 43.5c0 16 5.5 29.833 16.5 41.5s25.167 17.5 42.5 17.5
s31.5 -5.83301 42.5 -17.5s16.5 -25.5 16.5 -41.5zM200 193.99l0.00195312 83.002l121 40l4 -29h165c-0.666992 -19.333 -1 -36.666 -1 -51.999c-0.666992 -13.333 -1 -25.333 -1 -36v-18c0 -17.333 5.33301 -26 16 -26c10 0 15 8.66699 15 26
c0 1.33301 -0.166992 7.33301 -0.5 18s-0.5 22.667 -0.5 36c-0.666992 15.333 -1 32.666 -1 51.999h106c0.666992 -12 1.66699 -25.333 3 -40c0.666992 -12.667 1.33398 -28 2.00098 -46s1 -37.667 1 -59c0 -48 -12 -82.833 -36 -104.5s-62 -32.5 -114 -32.5
c-17.333 0 -32 1 -44 3s-21.667 4.33301 -29 7c-8.66699 2.66699 -15.334 6.33398 -20.001 11.001v83c4.66699 -4 10.667 -7.33301 18 -10c6 -2.66699 13.5 -4.83398 22.5 -6.50098s19.5 -2.5 31.5 -2.5c16.667 0 29.667 1.83301 39 5.5s16.666 7.83398 21.999 12.501
c6 5.33301 9.66699 11.333 11 18c-2.66699 -2.66699 -6.33398 -5.33398 -11.001 -8.00098c-4.66699 -2 -10.667 -3.66699 -18 -5s-16.666 -2 -27.999 -2c-28.667 0 -51.334 5.33301 -68.001 16s-25 30 -25 58v8h-45l2 -61c8.66699 0 15.667 1 21 3
c2.66699 0.666992 5 1.66699 7 3v-74c-3.33301 -3.33301 -8.33301 -6.33301 -15 -9c-5.33301 -2 -12.333 -3.83301 -21 -5.5s-19 -2.5 -31 -2.5c-25.333 0 -43.833 5.66699 -55.5 17s-17.5 27 -17.5 47c0 6 0.166992 13.5 0.5 22.5s0.5 17.667 0.5 26
s0.166992 15.666 0.5 21.999s0.5 10.166 0.5 11.499h-27zM1198 234.992v37h16c10 0 15 -4 15 -12c0 -6 -2.66699 -10 -8 -12l8 -13h-9l-7 11h-7v-11h-8zM1206 252.992h8c4.66699 0 7 2 7 6s-2.33301 6 -7 6h-8v-12zM1212 215.992c-10 0 -18.667 3.66699 -26 11
s-11 16 -11 26s3.66699 18.667 11 26s16 11 26 11s18.667 -3.66699 26 -11s11 -16 11 -26s-3.66699 -18.667 -11 -26s-16 -11 -26 -11zM1182 252.992c0 -8 3 -15 9 -21s13 -9 21 -9s15 3 21 9s9 13 9 21s-3 15 -9 21s-13 9 -21 9s-15 -3 -21 -9s-9 -13 -9 -21z" />
    <glyph glyph-name="glyph344" horiz-adv-x="493" 
d="M421 929l92 -48l-106 -126l-61 32zM163 929l91 -48l-104 -126l-62 32zM222 -66c33.333 0 56.833 13.167 70.5 39.5s20.5 59.5 20.5 99.5v627h130v-642c0 -69.333 -18.167 -123 -54.5 -161s-91.833 -57 -166.5 -57v94zM52 700h131v-700h-131v700z" />
    <glyph glyph-name="glyph345" horiz-adv-x="471" 
d="M178 560v-560h-124v561zM417 560l0.000976562 -526c0 -61.333 -16 -109 -48 -143s-84.667 -51 -158 -51v86c17.333 2 31.166 6 41.499 12s18.333 14 24 24s9.5 22.333 11.5 37s3 31.667 3 51v510h126zM353.001 786l91 -48l-104 -125l-62 31zM211.001 786l91 -48
l-104 -125l-62 31z" />
    <glyph glyph-name="glyph348" horiz-adv-x="232" 
d="M178 560v-560h-124v560h124zM191 684c0 -23.333 -6.66699 -40.666 -20 -51.999s-31 -17 -53 -17s-39.833 5.66699 -53.5 17s-20.5 28.666 -20.5 51.999c0 24.667 6.83301 43 20.5 55s31.5 18 53.5 18s39.667 -6 53 -18s20 -30.333 20 -55z" />
    <glyph glyph-name="glyph351" horiz-adv-x="473" 
d="M172 590h-162v110h454v-110h-162v-590h-130v590zM174 -244c9.33301 10 17.333 22.668 24 38.001s10.667 29 12 41c-11.333 3.33301 -20.666 10.166 -27.999 20.499s-11 22.166 -11 35.499c0 20 6 35.5 18 46.5s27.667 16.5 47 16.5s35.166 -5.5 47.499 -16.5
s18.5 -26.5 18.5 -46.5c0 -11.333 -1.66699 -23.166 -5 -35.499s-7.83301 -24.5 -13.5 -36.5s-12 -23.5 -19 -34.5s-13.833 -20.5 -20.5 -28.5h-70z" />
    <glyph glyph-name="glyph352" horiz-adv-x="232" 
d="M178 560v-560h-124v560h124zM189 684c0 -23.333 -6.66699 -40.666 -20 -51.999s-31 -17 -53 -17s-39.833 5.66699 -53.5 17s-20.5 28.666 -20.5 51.999c0 24.667 6.83301 43 20.5 55s31.5 18 53.5 18s39.667 -6 53 -18s20 -30.333 20 -55z" />
    <glyph glyph-name="glyph353" horiz-adv-x="328" 
d="M101 463h-99v97h99v104l126 19v-123h99v-97h-99v-463h-126v463zM100 -244c9.33301 10 17.333 22.668 24 38.001s10.667 29 12 41c-11.333 3.33301 -20.666 10.166 -27.999 20.499s-11 22.166 -11 35.499c0 20 6 35.5 18 46.5s27.667 16.5 47 16.5
s35.166 -5.5 47.499 -16.5s18.5 -26.5 18.5 -46.5c0 -11.333 -1.66699 -23.166 -5 -35.499s-7.83301 -24.5 -13.5 -36.5s-12 -23.5 -19 -34.5s-13.833 -20.5 -20.5 -28.5h-70z" />
    </font>
</defs>
</svg>
